<svg xmlns="http://www.w3.org/2000/svg" width="314.576" height="615.326" overflow="visible" xmlns:v="https://vecta.io/nano"><path opacity=".5" d="M116.617 431.641c-2.052 8.465-5.372 15.896-7.828 20.693 1.493-1.519 3.256-3.36 5.132-5.422.013-.014.024-.026.037-.041a160.7 160.7 0 0 0 5.867-6.805c-1.329-2.009-2.454-5.56-3.208-8.425zm-13.705 5.177a22.12 22.12 0 0 1 .639 2.24c.868 3.656 1.498 8.912 1.888 12.875h0c2.814-9.482 8.206-29.266 6.328-35.799-.205-.713-.473-1.545-.781-2.461-1.938 4.809-6.303 15.479-9.134 21.084.521.876.883 1.567 1.06 2.061zm5.331-30.66c-1.5 2.043-4.229 5.559-7.501 8.828-3.993 3.899-5.366 8.326-5.66 9.427l2.693 4.062 2.831 4.289c2.162-4.459 5.048-11.332 7.068-16.259l2.017-4.975.287-.718-1.735-4.654zm5.907-7.33l1.607 5.474.228-.188h0 0l2.807 3.395 1.824 2.252 4.629 6.139c1.385 2.227 4.12 5.104 5.609 6.604.783-2.121 1.24-4.137 1.24-5.965 0-.824-.092-1.611-.283-2.354l-.911-3.34-1.292-.574c-6.431-3.035-12.389-8.405-15.458-11.443zm9.402 18.137c-1.234-1.921-4.432-5.9-6.687-8.652.913 3.444 1.515 6.162 1.603 7.601l.08-.026h.002c1.521 4.666 3.572 9.938 4.373 10.676 1.055.975 2.587 3.148 3.493 4.496.623-.97 1.202-1.938 1.746-2.898l.357-.636a43.13 43.13 0 0 0 1.513-3.016c-1.264-1.244-4.759-4.776-6.48-7.545zm-10.402-21.422l.322-.291c.085.094 8.104 8.924 16.748 13.105l-.799-2.926-2.125-7.723-15.719-7.208 1.573 5.043zm12.318-4.953c-4.229-4.65-12.834-6.971-16.346-7.754l1.639 5.09 15.875 7.279-.02-.079-1.108-4.479-.019-.075h0l-.021.018zm-18.74-15.051h0l1.68 5.102c2.166.414 10.722 2.271 16.347 6.607l-.13-.668c-.521-2.609-.901-5.037-1.058-7.18l-16.839-3.861zm16.75 1.789l-.001-.049c0-1.605.174-2.98.542-4.099-5.211-1.263-11.802-1.384-18.392-.95l.362 1.086 17.489 4.012zm-5.166 43.951l-.728 5.705c.487 2.457 1.926 8.483 3.568 11.422 1.421-1.81 2.796-3.666 4.067-5.531-.862-1.316-2.639-3.904-3.655-4.844-.904-.836-2.203-3.937-3.252-6.752zm-11.433-16.652l.509-.709-1.217-3.164-.034-.089c-4.022 7.848-12.927 14.794-15.556 16.733l3.092 4.861c.775-2.104 2.422-5.529 5.662-8.695 3.331-3.329 6.147-7.015 7.544-8.937zm-7.047-20.949l-2.08-6.648-20.184 13.289c.474 1.773 1.074 3.592 1.772 5.434l.779-.196c4.41-1.15 16.216-4.819 19.713-11.879zm-22.756 4.593h0c5.75-3.55 17.479-11.488 20.147-13.301-.155-.666-.289-1.297-.391-1.879-9.527 1.217-17.626 3.076-19.558 3.535-.601 1.708-.912 3.561-.912 5.563.001 1.924.26 3.965.714 6.082zm16.685 10.477c2.793-2.99 7.043-7.848 8.179-9.152h0l-1.244-3.439c-4.874 7.121-16.713 10.523-20.61 11.479 1.151 2.803 2.503 5.641 3.972 8.447 1.294-.834 3.859-2.529 6.201-4.321 1.332-1.021 2.592-2.072 3.502-3.014zm-2.003 15.189c4-3.257 10.815-9.481 13.375-15.886l-2.4-6.318-7.521 8.396c-2.758 2.852-8.225 6.455-10.209 7.727l.485.864c1.308 2.375 2.667 4.715 4.039 6.964.535-.402 1.307-.996 2.231-1.747z"/><path d="M124.019 373.181c-.367 1.118-.542 2.493-.542 4.099l.001.049 1.255.289-.446 1.949h-.002 0l-.717-.166c.157 2.142.537 4.569 1.057 7.18l.13.668h0c.797.615 1.539 1.277 2.192 1.996h0l-1.457 1.328h0l.019.075 1.108 4.479.02.079h0l1.802.828-.834 1.816-.308-.141 2.125 7.723.799 2.926 1.795.795-.742 1.855-.372-.164.911 3.34c.191.742.283 1.527.283 2.354 0 1.828-.457 3.844-1.24 5.965l1.025 1.014-1.379 1.447-.001-.001-.001.001-.467-.454-1.513 3.016-.357.636-1.746 2.898.749 1.137-.001.001.001.001-1.687 1.076-.259-.398-4.067 5.531c.205.365.411.691.619.947l-1.264 1.027-.29.236c-.133-.164-.263-.355-.392-.55l-5.867 6.804-.037.041-5.132 5.422-3.144 5.625c-.067.106-.152.196-.249.268a1 1 0 0 1-1.025.105c-.195-.092-.339-.246-.438-.424l.122 1.787 1.534-1.42c1.309-1.211 31.996-29.801 28.152-44.594l-2.398-8.789c-3.259-11.681-7.271-26.069-5.412-31.173-.612-.197-1.25-.378-1.91-.538zm-20.468 65.878l-.639-2.24c-.177-.494-.539-1.186-1.06-2.061l-.241.475-1.777-.918.772-1.551-2.831-4.289-2.693-4.062-.063.257-1.957-.41c.017-.082.185-.844.612-2l-3.093-4.86-.727.524-.454-.65-.693-.992.817-.598-4.038-6.964-.485-.864-.741.469h0 0l-1.056-1.699.854-.543-3.972-8.447-1.251.285-.4-1.959c.023-.004.353-.074.906-.209l-1.772-5.434-.574.346v-.001l-1.025-1.718.484-.294.622-.379c-.453-2.118-.712-4.159-.712-6.083 0-2.002.312-3.854.911-5.563l-.439.105-1.703.426.001-.004h0l.501-1.684.179-.574-.073.018-.188.477c-5.788 14.656 11.351 40.375 20.558 54.193 2.524 3.787 4.519 6.779 4.916 7.902 1.647 4.654 2.64 16.781 2.849 19.549l1.564-5.102h0c-.392-3.962-1.021-9.218-1.889-12.874z"/><path d="M105.646 457.959c.163-.258 1.445-2.313 3.141-5.619 2.459-4.803 5.778-12.235 7.831-20.699-.614-2.334-.985-4.201-1.019-4.379l1.963-.383c.005.033.014.072.022.105.325-1.875.573-3.781.728-5.707a124.45 124.45 0 0 1-1.665-4.771l1.819-.592c-.086-1.439-.688-4.158-1.603-7.604l-1.088-1.321-1.323-1.589 1.303-1.098.001-.001-1.607-5.474c-1.268-1.254-2.059-2.119-2.164-2.238l1.164-1.047-1.572-5.042-.001-.001-1.759-.805.834-1.82h.001 0l.108.051-1.639-5.09a33.83 33.83 0 0 0-1.545-.313l.332-1.975.498.092-1.68-5.102-1.698-.391.447-1.949h.001 0l.51.117-.363-1.086h0l-2.06.148c4.589 13.616 12.834 39.212 12.92 43.836l.007.773c0 11.57-4.227 23.137-7.773 30.82 2.414-8.607 5.414-20.789 5.414-28.215 0-1.582-.137-2.945-.442-4.014-.99-3.443-3.149-9.053-5.649-15.547-3.852-9.999-8.144-21.188-9.191-27.188l-2.014.246a32.3 32.3 0 0 0 .391 1.877l.55-.374.001-.001h0l1.128 1.65c-.002.001-.022.015-.029.02-.024.017-.086.06-.179.122l-.945.642c.549 1.998 1.262 4.246 2.08 6.646.034-.068.068-.125.096-.184l.001.001 1.813.847a12.86 12.86 0 0 1-1.046 1.814l1.245 3.44.291-.333v.001l1.512 1.31-1.011 1.158 2.399 6.318c.029-.074.063-.146.093-.223l1.866.717v.006a21.77 21.77 0 0 1-.954 2.114c.012.028.022.059.034.089l1.218 3.164.077-.109.285-.409.071-.104h0l1.661 1.113c-.051.076-.497.734-1.24 1.748l1.735 4.652.099-.251.02-.05h0l.001-.004 1.858.736-.437 1.097-.536 1.336c.311.917.576 1.747.781 2.462 1.878 6.531-3.514 26.314-6.328 35.799l-1.564 5.102a1.76 1.76 0 0 0-.025.082c-.09.271-.042.553.089.789.097.182.239.338.435.428a1 1 0 0 0 1.023-.104c.1-.066.185-.156.252-.262z"/><g fill="#fff"><path opacity=".5" d="M225.034 499.145c10.271-1.762 29.441-2.012 35.006-2.049l-.002-.002-4.661-8.693-11.452 1.489-.98.137c-4.928.691-10.227 1.502-13.915 2.249-7.727 1.563-23.612 1.873-28.319 1.934l1.226 5.783h0c3.005.21 13.272.741 23.097-.848zm31.64 75.001l-4.513 1.312 1.527 5.168 4.573-1.173-1.587-5.307zm-23.35-66.056l30.337-4.234-.002-.002-2.552-4.762-.836.005c-5.18.035-24.775.283-34.908 2.021-9.501 1.539-19.378 1.135-23.021.908l.598 3.063c3.785.804 21.437 4.374 30.384 3.001zm21.039-21.58l-.209-.389-2.561-4.762-.639.077c-3.424.407-13.98 1.588-21.653 1.608-.853.002-1.67-.01-2.438-.039a36.6 36.6 0 0 0-1.483-.024c-6.176.011-16.395 1.247-22.63 2.086l-4.093.571c.572 2.188 1.103 4.383 1.604 6.572 4.012-.047 20.668-.34 28.371-1.896 7.429-1.505 21.28-3.257 25.731-3.804zm12.831 23.933l-2.523-4.703-31.043 4.328c-.83.127-1.725.215-2.67.269-6.465.368-15.266-.857-21.514-1.95a195.31 195.31 0 0 1-6.098-1.164l.789 4.186.395 2.102c8.914 1.246 20.037 2.619 25.354 2.838 7.079.253 25.724-3.456 34.29-5.256l.274-.058.796-.169 1.951-.418zm-8.355 70.926l-.645.164-3.938 1.011 1.648 5.577.019.064 4.497-1.61-1.581-5.206zm-8.631-29.31l-1.505-5.24-1.016.243-5.111 1.154 1.955 5.116 1.867-.377 3.81-.896zm-14.084-85.232l4.477.083 3.274.154-.238-.438-2.698-4.958c-3.81.507-25.104 3.371-31.806 5-5.892 1.428-13.016 1.813-16.009 1.914.956 2.364 1.837 4.781 2.649 7.235 3.083-1.404 12.019-5.251 21.743-7.358 6.107-1.324 13.109-1.645 18.608-1.632zm-10.743 14.154l1.56.026 1.432.033c7.42.078 18.524-1.145 22.203-1.576h.001l-.002-.002-5.572-10.318h0a134.55 134.55 0 0 0-8.755-.304c-5.435-.016-12.378.288-18.306 1.573-9.801 2.123-18.785 6.051-21.552 7.322.62 1.969 1.201 3.957 1.746 5.955 4.114-.601 18.983-2.697 27.245-2.709zm26.325 76.258l-5.11 1.674 2.796 7.948 4.719-1.388-2.405-8.234zm-15.19-29.482c6.641-.437 31.271-4.556 37.024-5.526l-5.277-9.794c-3.271 1.38-14.223 5.93-23.087 8.76l-1.144.358-2.197.65c-2.128.6-4.026 1.039-5.522 1.23-2.027.254-5.294.353-9.116.361-6.369.014-14.279-.226-20.567-.426l.337 1.537.378 1.656 3.444.682 6.2 1.229 18.942-.688a16.05 16.05 0 0 0 .585-.029zm53.651 24.569l-3.551-6.272-11.384 3.627 7.329 5.85 7.606-3.205h0zm5.425 9.297l-2.266-3.833-2.157-3.718-6.861 2.901 6.788 5.662 4.496-1.012h0zm3.518 5.767l-2.432-3.956-3.663.814.14.117 4.599 3.862 1.566-.499-.21-.338zm.461 2.357l2.235 1.853-1.382-2.125-.853.272zm-44.897-2.352l-4.645 1.365 1.549 4.786 4.525-1.315-1.429-4.836zm29.153-26.344l-1.699-3.072-17.2 4.682-.115.031a58.53 58.53 0 0 1 5.446 3.255c6.262-2.145 11.443-4.084 13.569-4.894zm-37.164-1.397l-.784-2.777-.495-1.764 1.751.537 6.786 2.271c8.627-2.303 20.62-6.008 24.262-7.143h.001l-.996-1.824c-3.969.685-30.201 5.171-39.891 6.028l2.387 5.893 6.523-1.132.456-.089zM276.18 527.1l-1.636-3.012c-4.434.754-32.479 5.486-38.561 5.697-2.242.041-6.401.188-10.891.361l10.771 2.43.493.121.147.357.506-.053c9.098-.79 33.534-4.935 39.171-5.901zm4.956 9.078l-1.977-3.606h0l-20.148 6.021-1.932.539 5.027 2.201 15.582-4.204 3.448-.951zm-88.621-104.655c5.328-.99 17.742-1.224 25.623-1.268l5.299-.006-5.322-9.189c-3.653.727-19.895 3.824-31.473 3.871-.771.003-1.523-.008-2.248-.033-9.923-.352-19.258 2.168-22.696 3.227.406.542.829 1.078 1.25 1.615 1.625 2.071 3.366 4.103 5.238 6.079l1.282 1.341c2.931-.8 16.039-4.332 23.047-5.637zm-37.245-69.569l-9.696 3.308c-1.399.503-2.857 1.185-4.295 1.953-4.228 2.262-8.28 5.276-10.158 6.738 1.23.787 2.293 1.703 3.125 2.783.471.611.93 1.266 1.381 1.947 3.031-1.795 13.189-7.602 20.92-9.559 4.272-1.081 9.4-2.22 13.586-3.113l5.694-1.189c-3.456-2.281-7.222-4.297-11.178-6.066l-9.379 3.198zm111.993 250.964l1.423-.522-2.388-7.141-4.211 1.217.34.804 1.621 1.769 3.215 3.873zM157.255 356.345l-12.692 4.3-4.07 1.438c-4.953 1.871-14.603 6.256-19.528 8.526 3.086.455 5.893 1.192 8.247 2.3l.6-.475c1.219-.957 3.377-2.584 5.954-4.263 2.795-1.821 6.068-3.692 9.151-4.8l16.987-5.794a109.53 109.53 0 0 0-3.85-1.497l-.799.265zm20.851 10.055c-2.206.441-13.138 2.656-21.069 4.666-7.335 1.855-17.324 7.537-20.345 9.314.922 1.54 1.819 3.224 2.708 5.021h0c2.794-1.885 10.473-6.719 18.303-8.582 7.904-1.785 21.303-5.186 25.444-6.242a40.86 40.86 0 0 0-2.191-1.979c-.914-.76-1.873-1.485-2.85-2.198zm-11.185 19.973c-6.025 1.004-21.141 5.602-24.064 6.5l1.268 2.875 1.171 2.658c4.189-1.816 19.932-8.465 29.789-10.154 8.549-1.467 17.764-1.17 21.72-.941l-3.653-5.031-26.231 4.093zm-8.766-7.603c-7.187 1.71-14.459 6.191-17.353 8.109l-.519.348 1.75 3.809c2.294-.71 18.135-5.564 24.561-6.635l25.182-3.932c-2.465-3.193-4.801-5.963-6.987-8.246l-26.634 6.547zm105.927 219.588l-4.55 1.526 1.79 4.727 4.357-1.259-1.597-4.994zM208.66 464.725c6.523-1.584 25.888-4.221 31.252-4.936l-.102-.187-2.14-3.905h.002c-2.504-.066-15.809-.381-24.304.123-1.439.086-3.045.249-4.73.464-7.307.93-16.133 2.828-19.565 3.597 1.164 2.169 2.236 4.415 3.228 6.723 2.238-.059 10.143-.372 16.359-1.879zm-53.677-109.733l-8.501-2.582c-12.496 3.127-26.891 13.5-32.283 17.637.98.029 1.946.078 2.896.146.707-.33 15.951-7.439 22.703-9.988l15.185-5.213zm-48.485 15.168l4.496-.145h0c2.217-1.803 17.332-13.816 31.711-18.583-3.774-.925-7.496-1.702-11.063-2.353-.589.256-1.186.543-1.79.859-9.054 4.75-19.529 15.939-23.354 20.222zm-10.493-13.074c-4.224 4.39-8.189 12.218-9.804 15.613l5.371-.916c1.946-2.342 15.04-17.643 30.345-24.242h-.001a224.42 224.42 0 0 0-8.333-.971l-.46.194c-2.774 1.182-12.373 5.482-17.118 10.322zM268.51 614.59l.523.736h.676l-.367-1.04-.832.304zm-41.177-177.483l-2.751-4.85-2.799-.008c-6.157-.001-19.45.097-26.555.903-.889.101-1.68.213-2.349.337-5.462 1.016-14.712 3.412-19.818 4.772l-1.911.513c1.333 1.266 2.705 2.516 4.166 3.717 1.698 1.398 3.284 2.916 4.775 4.531 3.083-.676 16.888-3.748 25.197-6.52 7.753-2.578 18.11-3.234 22.045-3.395zm19.877 104.478l-6.768 1.193 1.396 3.547 6.313-1.435-.941-3.305zm-30.665-87.91c7.336-.251 16.403-.088 20.011-.007l-4.875-8.807c-2.777.174-16.74 1.115-24.227 3.113-6.679 1.781-17.162 5.658-21.155 7.164a71.18 71.18 0 0 1 1.765 2.916c3.622-.822 16.878-3.736 25.186-4.23l3.295-.149zm-9.606-7.632c7.11-1.896 19.434-2.838 23.664-3.117h0-.001l-2.162-3.854c-2.037.063-9.795.4-17.027 1.896-1.903.395-3.771.864-5.487 1.436-7.644 2.547-19.835 5.338-24.316 6.334.685.81 1.341 1.646 1.981 2.499a62.67 62.67 0 0 1 1.576 2.19c3.648-1.38 14.756-5.515 21.772-7.384zm-20.265-30.158c5.949-.799 19.355-3.384 24.664-4.422l.949-.186-2.83-4.629c-2.634-.092-17.67-.455-30.122 2.479l-2.103.504c-10.46 2.543-20.007 5.43-23.319 6.453.707 1.26 1.441 2.518 2.205 3.773l30.556-3.972zM83.779 373.162c.947-2.104 5.576-12.051 10.793-17.473 3.92-3.996 10.686-7.525 14.885-9.484l-3.689-.256c-.404-.023-1.439-.086-2.016-.697-13.116 8.655-20.034 15.785-24.088 25.025-.579 1.319-1.1 2.683-1.571 4.099a179.64 179.64 0 0 1 5.686-1.214zm98.627 49.703l2.06.035 2.07.031c10.677-.032 25.879-2.808 30.503-3.701l-3.65-6.133-.344.067-19.561 3.663-6.543 1.041-29.654 3.854c1.002 1.576 2.057 3.143 3.166 4.693 2.723-.887 11.732-3.545 21.953-3.55zm-23.684-10.315c4.387-1.287 10.514-3.008 17.079-4.626l3.074-.744c5.171-1.219 10.762-1.876 15.765-2.225a155 155 0 0 1 10.064-.369l3.491.027-2.334-3.705c-.5-.104-1.559-.315-3.025-.565-3.667-.623-9.885-1.483-16.304-1.493a64.33 64.33 0 0 0-3.855.105c-.418.025-.859.063-1.309.105-9.988.953-27.476 6.143-32.297 7.617h0c1.011 2.119 2.098 4.268 3.24 6.426l.622 1.189 5.789-1.742zm104.758 183.9l-2.472-7.956-4.525 1.622 2.4 7.876 3.237-1.084 1.36-.458zm-88.059-206.227c-9.5 1.631-25.176 8.229-29.313 10.016l2.101 4.609c4.67-1.441 24.115-7.277 34.348-7.889 8.632-.506 17.717.877 21.818 1.623l-1.939-2.978-4.162-6.19c-2.034-.16-12.925-.894-22.853.809zm1.344-49.043c-1.056-5.355-4.221-12.9-5.054-14.834a76.3 76.3 0 0 0-6.115-.141c1.268 2.38 3.724 7.274 5.066 11.895 1.342 4.609 3.704 12.092 4.816 15.597l.524 1.646c1.763 1.049 3.535 2.167 5.312 3.353-1.252-4.361-3.635-12.855-4.549-17.516zm13.107 23.759l-.1-17.045c0-5.665-5.705-17.488-6.835-19.775h-.001 0l-3.15-.656c-1.807-.416-3.758-.723-5.818-.932 1.203 2.861 3.79 9.329 4.762 14.264 1.103 5.632 4.514 17.385 5.186 19.679 1.981 1.396 3.969 2.882 5.956 4.46v.005h0 0zM311.993 558l2.484-6.611-5.533-5.676-1.654 4.203 4.703 8.084zM152.072 327.348l-.06 1.497c-.042 1.784-.001 4.29.431 6.265.673 3.065 3.059 9.266 3.664 10.814a111.08 111.08 0 0 1 5.644 2.205c-4.879-7.36-7.099-17.79-7.702-21.055l-1.977.274zm16.672 11.312c-1.201-4.128-3.391-8.605-4.672-11.053l-.718-1.34c-2.373.1-4.819.291-7.309.57.715 3.746 3.502 16.411 9.554 23.006 2.578 1.199 5.192 2.535 7.834 4.017l.001.004-4.69-15.204zm50.738 59.086c1.088-3.561 3.333-10.081 6.986-17.01 3.291-6.367 5.276-16.406 6.29-22.923l.253-1.685.206-1.478.161-1.238.089-.72-2.042-3.744c-1.482-2.004-3.124-3.775-4.899-5.352v-.002c-1.049 3.43-3.866 12.451-6.726 20.045-3.08 8.446-6.557 22.522-7.296 25.569a324.41 324.41 0 0 1 6.773 9.204l.205-.666zm-1.557-34.801c1.69-4.489 3.364-9.475 4.665-13.502l.319-.993 1.948-6.24c-3.901-3.074-8.358-5.331-13.128-7.095-.826 3.316-3.253 13.402-4.451 21.869-1.312 9.292-1.54 21.468-1.571 23.735 1.722 2.041 3.468 4.202 5.233 6.464 1.201-4.835 4.242-16.714 6.985-24.238zm26.598 72.063c0-5.412.14-11.059.283-16.801l.013-.571c-2.69 5.417-4.419 10.692-4.913 12.282l3.845 6.322.773-.952-.001-.28zm-46.704-82.238c.364-3.349.103-11.955-.121-17.466l-.027-.672-.054-1.233-.104-2.264h0l-8.16-1.676-3.938-.822c1.94 4.058 6.358 13.888 6.358 19.258l.109 18.673a78.66 78.66 0 0 1 3.131 2.765c.729-3.78 2.376-12.517 2.806-16.563zm116.757 209.431v-5.375l-1.268 3.344 1.268 2.031zM205.299 356.705c1.077-7.625 3.141-16.538 4.166-20.76l.37-1.502c-3.329-1.127-6.788-2.043-10.299-2.854l.041.874c.223 4.847.683 16.35.23 20.519-.504 4.747-2.566 15.4-3.075 17.988 2.286 2.232 4.627 4.735 7.019 7.473.113-4.535.467-14.089 1.548-21.738zm20.348 50.938l4.173-9.029 5.456-12.154c2.646-6.055 4.61-14.23 5.713-19.506-.684-1.866-1.465-3.611-2.379-5.193l-3.499-6.124c-.864 6.269-2.942 18.427-6.869 26.028-4.604 8.731-6.928 16.801-7.479 18.854l4.883 7.122zM127.83 333.26c-5.319 1.844-10.375 4.001-14.903 6.417 3.294-.261 7.973-.416 13.675-.024-.108-1.275.014-3.421 1.228-6.393zm171.5 202.183l-.243-.268.196.359.047-.091zM132.798 333.087a11.15 11.15 0 0 1 .682-1.636l-3.051.939-.654 1.41c-1.32 3.126-1.272 5.147-1.147 6.01l4.94.557a8.68 8.68 0 0 1-.77-7.28zm173.227 214.594h0l1.393-3.563-6.646-7.102-.325.638 5.578 10.027z"/><path opacity=".5" d="M300.447 537.655v-.001.001zM151.366 338.653l-.877-3.116c-.354-1.62-.47-3.508-.488-5.148l-.003-.145.054-2.582-9.344 1.867c.838 7.169 4.201 12.234 4.861 13.17a107.94 107.94 0 0 1 8.058 2.354l-1.327-3.622-.934-2.778zm-12.615-8.649l-2.385.627-.694 1.025c-1.22 2.014-1.462 3.771-1.271 5.197.206 1.528.907 2.669 1.441 3.346.214.271.404.476.521.59h0l6.411 1.237a32.38 32.38 0 0 1-4.023-12.022h0zm106.169 83.179l.17-11.976c0-4.253-.088-8.419-.316-12.427l-4.401 8.38c-3.933 7.869-6.783 19.188-7.389 21.696l5.539 8.815v.004c1.042-3.124 3.235-9.072 6.397-14.492zm-12.945 1.542c1.271-4.706 3.605-12.453 6.607-18.459 1.629-3.257 3.81-7.322 5.933-11.191-.431-5.157-1.156-9.975-2.315-14.27-1.166 5.068-2.883 11.402-5.091 16.457l-10.161 22.327 4.549 6.95v.001l.478-1.815zm-118.489-60.199c-8.629 5.825-15.742 13.296-18.874 16.81 2.896-.402 5.958-.754 9.063-.996 1.756-2.055 13.793-15.879 24.623-21.838l-.321-.052-2.015-.321c-4.317 1.441-8.553 3.749-12.476 6.397z"/><path opacity=".5" d="M128.299 348.502h-.001.001z"/></g><path d="M267.349 615.016h0 0l-.694-1.875c.02-.006.238-.088.607-.223h.001l-3.215-3.874-1.62-1.767 2.791 6.315 1.328 1.733h2.486l-.523-.736-1.161.427zm-16.2-59.7l-5.241 1.717.688 1.88 5.11-1.674-.557-1.923zm-43.805-28.752l-.378-1.656-.338-1.537h.001l20.567.426 9.116-.361c1.496-.191 3.395-.631 5.522-1.23l2.197-.65 1.144-.358c8.864-2.83 19.816-7.38 23.087-8.76l-1.067-1.989-1.951.418-.796.169-.274.058c-8.566 1.8-27.211 5.509-34.29 5.256-5.317-.219-16.44-1.592-25.354-2.838l-.395-2.102-.789-4.186h-.001l-1.58-.34.438-1.951h0l.001-.002c.022.006.288.063.735.158l-.598-3.063h-.001l-1.467-.105.184-1.992h.001v-.002c.019.002.328.029.877.066h0l-1.227-5.783-1.321.012h0-.001l-.013-2 .888-.01-1.604-6.572-.779.113-.502.076-.301-1.979 1.06-.158a158.31 158.31 0 0 0-1.745-5.955l-.875.41-.879-1.797c.021-.012.421-.205 1.137-.531a119.57 119.57 0 0 0-2.649-7.236l-1.435.037-.023-2h0v-.002c.015 0 .25-.004.633-.014-.989-2.308-2.061-4.554-3.226-6.723a3.68 3.68 0 0 0-.138.029l-1.306.297c-.005.001-.024.006-.026.006h0-.001l-.457-1.945.001-.002.827-.19.09-.021c-.567-.991-1.155-1.964-1.764-2.916h0l-1.624.617-.001-.002h0l-.72-1.865c.024-.01.467-.18 1.21-.461a60.81 60.81 0 0 0-1.575-2.19c-.64-.853-1.296-1.689-1.981-2.499l-1.727.379v-.002h-.001l-.419-1.955c.02-.004.246-.053.632-.137-1.491-1.615-3.077-3.133-4.775-4.531-1.461-1.201-2.833-2.451-4.166-3.717l-1.751.475-.531-1.928c.019-.004.233-.064.599-.162-.438-.442-.857-.893-1.281-1.341a86.42 86.42 0 0 1-5.238-6.079l-1.251-1.615a33.88 33.88 0 0 0-1.396.455l-.001-.002h-.001l-.676-1.883c.067-.023.357-.127.83-.279a103.56 103.56 0 0 1-3.168-4.693l-.112.015-1.614.212-.256-1.984h0v-.002l.815-.105c-.764-1.255-1.5-2.515-2.204-3.773l-1.238.387-.606-1.904h.001v-.002c.02-.008.324-.104.862-.271l-.622-1.19a170.55 170.55 0 0 1-3.239-6.426l-1.269.393-.602-1.906h0v-.002l1.006-.314-2.099-4.607-1.032.451-.813-1.828.003-.006a84.56 84.56 0 0 1 1.026-.449l-1.17-2.656-1.267-2.875-.494.152-.592-1.91.001-.004.261-.08-1.75-3.805-.802.555-1.176-1.617.001-.004c.074-.053.459-.331 1.093-.76-.89-1.798-1.786-3.481-2.708-5.021l-.898.537-1.045-1.705.002-.002a84.43 84.43 0 0 1 .876-.526 33.2 33.2 0 0 0-1.38-1.946c-.832-1.08-1.895-1.996-3.125-2.783l-1.104.877-1.274-1.539.002-.006.467-.378c-2.354-1.104-5.163-1.845-8.25-2.3l-3.051 1.414-.849-1.813.003-.004c.002 0 .018-.008.031-.014a69.36 69.36 0 0 0-2.896-.146l-2.193 1.729-1.273-1.541v-.004l.259-.213c-1.487.014-2.989.063-4.491.145l-1.5 1.713-1.529-1.289v-.004c.031-.038.105-.126.202-.238-3.104.24-6.167.594-9.059.994-1.082 1.213-1.691 1.959-1.723 1.996l-1.553-1.26v-.004l.233-.283-5.369.916-.316.673-.442.97h0l-1.835-.797.171-.385c-2.421.479-4.388.912-5.687 1.213.472-1.418.994-2.782 1.573-4.103 4.055-9.239 10.972-16.369 24.086-25.021-.164-.176-.298-.386-.361-.66-.068-.292-.019-.601.113-.92.157-.385.444-.788.877-1.213-16.943 10.928-24.623 19.713-28.566 32.438l-.179.576-.5 1.678-.001.004 1.703-.426.439-.105c1.932-.459 10.031-2.318 19.558-3.535l2.015-.246a149.43 149.43 0 0 1 4.717-.467l2.061-.148h0c6.591-.434 13.182-.313 18.393.95a26.89 26.89 0 0 1 1.914.539c2.899.937 5.238 2.306 6.727 4.239 3.401 4.42 6.289 10.99 9.633 18.6 6.551 14.9 14.701 33.447 31.755 47.482 18.232 15.016 23.717 44.25 28.123 67.74l.659 3.516.711.1c9.069 1.279 20.731 2.727 26.268 2.953 5.879.213 18.937-2.109 28.386-3.984-7.518 2.939-17.238 6.465-22.131 7.092-5.471.684-20.624.199-30.65-.119l-1.271-.041.261 1.244.782 3.594 2.154.422zm43.418 27.416l-.555-1.922-3.81.896-1.867.377.711 1.901 1.578-.323 3.943-.929zM112.926 339.677c4.529-2.416 9.584-4.573 14.903-6.417.303-.742.67-1.533 1.123-2.375l1.762.947c-.104.191-.19.373-.285.559l3.051-.939c.4-.779.912-1.584 1.572-2.416l1.566 1.242c-.094.12-.163.23-.25.352l2.383-.623c-.074-.61-.138-1.231-.177-1.871h0l1.996-.125a28.9 28.9 0 0 0 .138 1.518 134.44 134.44 0 0 1 9.344-1.865h0a35.22 35.22 0 0 1 .08-1.262l1.992.174a29.81 29.81 0 0 0-.053.773l1.977-.273-.067-.379-.104-.619h0l1.977-.313c.004.025.066.414.191 1.072 2.49-.277 4.936-.469 7.309-.566l-.296-.529 1.734-.996c.043.074.35.611.803 1.461 2.113-.033 4.156.014 6.116.141l-.084-.193-.121-.277 1.828-.813.631 1.467c2.063.211 4.014.518 5.82.934l3.15.656h0l-.192-.385h.001l1.782-.908a82.51 82.51 0 0 1 .887 1.809l3.939.824 8.16 1.678-.037-.746h0v-.002l1.998-.104a.47.47 0 0 0 .002.034l.043.886.019.383c3.511.813 6.97 1.729 10.299 2.856l.241-.957 1.937.502v.002h0c-.007.021-.11.427-.282 1.122 4.769 1.767 9.226 4.024 13.127 7.098h.001v-.001l.182-.604 1.916.572.001.002-.431 1.416c1.774 1.578 3.417 3.35 4.896 5.35a236.18 236.18 0 0 1-3.475-6.728c-10.167-9.121-24.378-11.972-38.208-14.719l-9.507-1.984c-18.888-4.34-52.54 2.558-72.398 14.771.655-.115 2.408-.395 5.075-.607zm130.825 96.565l.783 1.299-.011-2.253-.772.954zm42.544 109.237l-2.468-4.426c-2.126.81-7.308 2.749-13.569 4.894a47.37 47.37 0 0 1 1.991 1.417c5.957-2.049 10.737-3.847 12.53-4.531l.804 1.453-12.265 3.908 1.914 1.487 11.385-3.626-.322-.576z"/><path opacity=".5" fill="#fff" d="M244.607 441.559c-19.115-32.088-38.535-60.757-54.358-73.748-39.856-32.73-79.737-25.982-82.143-25.535-.938.532-1.861 1.184-2.374 1.656.059.006.075.016.146.02 4.875.289 14.404 1.07 25.511 3.059.355-.143.71-.277 1.06-.398l.221.633c16.627 3.088 36.47 8.902 49.566 19.818 1.175.979 2.404 2.136 3.684 3.457 19.195 19.824 49.679 76.723 76.774 127.297l33.382 60.707 5.641 9.26 1.725 2.659 3.548 5.366c2.55 2.036 5.08 4.001 7.587 5.842v-15.779c-4.87-7.258-12.252-20.544-21.292-37.135-18.11-20.379-37.543-44.891-44.419-60.836-2.927-6.862-3.983-16.019-4.259-26.343z"/><path d="M103.39 344.592a1.4 1.4 0 0 0 .361.66c.576.611 1.611.674 2.016.697l3.689.256 3.692-1.619h0 .001l.743 1.857-.31.127 8.333.971h0l3.643-1.389h0l.622 1.9-.215.075 2.011.322.321.052h0c1.043-.574 2.077-1.081 3.087-1.49-11.103-1.99-20.633-2.772-25.508-3.061-.071-.004-.088-.014-.146-.02.511-.473 1.436-1.125 2.374-1.658 2.405-.447 42.285-7.195 82.143 25.535 15.823 12.991 35.242 41.659 54.358 73.744l-.072-4.012-.783-1.299-3.846-6.324h0l-.147.49-1.923-.557-.001-.004a56.74 56.74 0 0 1 .688-2.173l-5.538-8.818-.001.001-.121.508-1.949-.445v-.002h0c.03-.135.232-1.007.584-2.378v-.001l-4.549-6.95-.271.577-1.812-.85.001-.002-.003-.002.781-1.671-4.883-7.123-.136.511-1.942-.475-.001-.004c.007-.025.204-.813.595-2.135-2.281-3.216-4.542-6.289-6.772-9.206v.001l-.146.6-1.945-.463-.001-.004c.01-.035.2-.835.528-2.158-1.766-2.264-3.512-4.425-5.233-6.466l-.005.372-2-.016v-.004h-.001a202.06 202.06 0 0 1 .05-2.627c-2.392-2.739-4.732-5.242-7.019-7.475l-.111.565-1.961-.389-.001-.006a260.05 260.05 0 0 0 .353-1.806 77.31 77.31 0 0 0-3.13-2.768v.003l.003.57-2 .018v-.004h-.001l-.014-2.215v-.006c-1.987-1.578-3.975-3.064-5.956-4.46l.089.306.025.086-1.918.566-.002-.006-.793-2.728c-1.778-1.189-3.55-2.307-5.313-3.356l.092.29-1.904.609-.002-.006-.755-2.371a116.06 116.06 0 0 0-7.837-4.025c.03.031.054.063.078.088l-.002.002-1.461 1.365c-.885-.953-1.701-2.02-2.455-3.158a109.73 109.73 0 0 0-5.651-2.217l.139.356h0l-1.857.742-.756-1.957a107.77 107.77 0 0 0-8.063-2.367l.122.172-.001.001.002.003-1.59 1.215c-.063-.086-.604-.809-1.323-2.051-2.213-.502-4.354-.914-6.416-1.248a3.08 3.08 0 0 0 .127.119l-.002.002-1.304 1.516c-.02-.018-.658-.584-1.327-1.596-.005-.007-.009-.015-.014-.022-.09-.137-.181-.28-.271-.433a104.2 104.2 0 0 0-4.944-.561c.044.307.099.471.101.479h-.001l-1.866.721c-.02-.051-.188-.514-.259-1.352-5.702-.398-10.381-.242-13.675.018-2.684.214-4.437.493-5.092.608l-.023.004-.271.051-.147.031-.133.074c-1.265.701-2.206 1.363-2.857 1.99-.01.01-.015.018-.025.027-.433.425-.72.828-.877 1.213-.131.325-.18.633-.112.923zm209.781 215.933l-.041.109h-.001 0l-1.866-.717.729-1.918-4.703-8.084-.17.426-1.854-.744.001-.002h-.001l.76-1.915-5.578-10.026v.001l-.27.53-1.787-.898.893-1.752-.196-.359-5.797-6.434c9.036 16.586 16.417 29.868 21.286 37.126v-3.667l-1.268-2.031-.137.355z"/><path d="M273.54 522.229l1.22-.207v.003l.34 1.97-.552.094 1.629 3.01 1.185-.205.001.004h.002l.342 1.971-.517.088h-.002l.992 1.822 1.093-.342.001.004h.001l.6 1.906c-.021.008-.278.088-.714.227l1.975 3.604 1.117-.311.001.002h.001l.539 1.926-.664.186 1.698 3.072 2.469 4.428.32.574 3.55 6.272 1.01-.439v.001l.002-.001.809 1.83c-.023.012-.316.141-.816.357l2.157 3.718 2.264 3.833 1.334-.287h0 .002l.409 1.957-.655.141h-.002l2.432 3.956.209.337 1.128-.361.001.002h0l.615 1.9-.638.207 1.381 2.125 5.183 4.209-3.548-5.366-1.727-2.661c-1.753-2.765-3.641-5.871-5.639-9.258-9.303-15.764-21.061-37.708-33.382-60.707-27.095-50.574-57.579-107.473-76.774-127.297-1.28-1.321-2.509-2.478-3.684-3.457-13.097-10.916-32.939-16.73-49.566-19.818l.435 1.258c-.479.166-.97.365-1.462.578 3.567.65 7.289 1.428 11.063 2.353a45.29 45.29 0 0 1 3.423-.997v.002l.48 1.939c-.042.01-.084.023-.126.033 2.839.77 5.685 1.627 8.501 2.582l2.74-.91.627 1.9c-.01.004-.113.037-.295.098 1.294.479 2.58.974 3.849 1.497l.003-.001 2.602-.887.648 1.893-.509.174c3.956 1.77 7.723 3.785 11.179 6.066l2.29-.463h0 .001l.389 1.961c-.013.002-.154.029-.4.08.978.711 1.937 1.438 2.85 2.197.71.592 1.442 1.26 2.192 1.98l1.257-.322h0 .002l.498 1.939a2.08 2.08 0 0 1-.116.027c2.188 2.283 4.522 5.053 6.987 8.246l1.676-.262h0 .002l.301 1.977-.604.096c1.191 1.587 2.409 3.267 3.652 5.031l1.989.139v.002h0l-.184 1.992c-.012-.002-.127-.014-.336-.029l4.161 6.19 1.939 2.978 2.245.441-.434 1.951h-.001 0c-.011-.002-.124-.025-.323-.066l2.334 3.705 1.766.053-.094 1.998h-.001 0c-.014 0-.16-.006-.408-.016l2.83 4.629 1.28-.252h0 .001l.391 1.961c-.019.004-.222.043-.571.111l3.65 6.133 1.396-.275.404 1.959-.021.004c-.093.021-.332.068-.703.143l5.322 9.189 1.664.01-.019 2c-.02 0-.203-.002-.5-.002l2.751 4.85 1.594-.051h0 .001l.032 2c-.015 0-.201.006-.52.016h-.001 0l2.162 3.854h.001l1.456-.09h0 .001l.111 1.996c-.016.002-.189.01-.489.029h-.001l4.875 8.807h0l1.585.041h.004l-.06 2h-.001 0-.004c-.019 0-.153-.004-.388-.011-.009-.001-.012-.001-.021-.001l2.138 3.905.101.185 1.361-.182v.002l.262 1.982c-.021.002-.236.031-.594.078l2.696 4.958.237.437 1.804.127v.002h.002l-.17 1.99h-.002 0c-.036-.002-.208-.017-.505-.037l5.572 10.318h.001l1.234-.148v.002h.001l.252 1.982c-.055.008-.221.029-.469.061h-.001l2.561 4.762.208.387 1.421-.172v.002h.002l.236 1.986a104.27 104.27 0 0 0-.644.076h-.001 0l4.661 8.693h.001l1.525-.006v.004h.002v2h-.458-.001l2.552 4.762h.001l1.398-.186v.002h.002l.262 1.982c-.021.004-.253.033-.65.088h-.001l2.523 4.703.002.004 1.064 1.984 5.282 9.795zm40.937 29.16L311.993 558l-.729 1.918 1.866.717h.001l.041-.109.137-.355 1.268-3.344v-5.338l-.1-.1zm-8.452-3.708l-.76 1.915h.001l1.854.746.17-.426 1.654-4.203-1.526-1.595-1.393 3.563h0zm-7.635-10.394l1.787.896.27-.528v-.001l.325-.638-1.442-1.573-.047.092-.893 1.752zm-53.47-124.102c-3.162 5.421-5.355 11.369-6.396 14.491a61.97 61.97 0 0 0-.688 2.173l1.922.56a31.21 31.21 0 0 1 .147-.488c.493-1.592 2.222-6.868 4.913-12.285l.102-4.451zm-.146-24.405l-.259-3.706c-2.123 3.869-4.304 7.935-5.933 11.191-3.002 6.006-5.336 13.753-6.607 18.459l-.479 1.816-.584 2.377v.002l1.949.445c.003-.016.046-.197.121-.508v-.001c.604-2.505 3.456-13.828 7.39-21.696 1.236-2.47 2.795-5.412 4.402-8.379zm-2.574-17.975l-1.21-3.849c-1.104 5.276-3.067 13.447-5.713 19.503l-5.457 12.154-4.173 9.029-.78 1.672-.001.002 1.812.85c.008-.016.104-.221.271-.576l10.161-22.328c2.207-5.055 3.924-11.389 5.09-16.457zm-7.091-15.172l-1.642-2.939-.089.72-.161 1.238-.206 1.478-.253 1.685c-1.014 6.517-2.999 16.556-6.29 22.925-3.653 6.929-5.898 13.447-6.986 17.008l-.202.672c-.388 1.308-.585 2.092-.595 2.133l1.941.479c.004-.014.05-.195.135-.51.553-2.057 2.877-10.123 7.479-18.856 3.928-7.605 6.007-19.766 6.869-26.033zm-8.583-12.037l.431-1.416-1.916-.574-.182.604v.001l-1.949 6.24-.319.993c-1.301 4.027-2.975 9.014-4.665 13.504-2.743 7.521-5.784 19.402-6.983 24.24l-.527 2.156 1.944.467c.004-.018.057-.234.146-.6v-.001c.739-3.047 4.216-17.123 7.296-25.569 2.858-7.594 5.676-16.616 6.724-20.045zm-14.796-8.483l.283-1.123v-.002l-1.937-.502-.241.955-.37 1.504c-1.025 4.222-3.089 13.135-4.166 20.76-1.081 7.649-1.436 17.203-1.547 21.741v.001l-.05 2.625v.004l2 .016.005-.369c.031-2.271.26-14.446 1.571-23.738 1.199-8.467 3.626-18.553 4.452-21.872zm-12.152-2.649l-.041-.874-.019-.385-.043-.886a.47.47 0 0 1-.002-.034l-1.998.104v.002l.037.744.104 2.264.054 1.233.027.672c.224 5.511.486 14.116.122 17.464-.43 4.049-2.076 12.783-2.806 16.568l-.353 1.805 1.96.395a32.58 32.58 0 0 0 .11-.563c.509-2.592 2.571-13.243 3.075-17.99.455-4.169-.005-15.672-.227-20.519zm-14.163-3.827l-.888-1.811-1.783.906.192.385c1.131 2.289 6.836 14.112 6.836 19.777l.1 17.045h0l.014 2.215v.004l2-.018-.003-.57v-.003l-.109-18.673c-.001-5.37-4.42-15.2-6.359-19.257zm-6.687 12.158c-.972-4.935-3.56-11.403-4.762-14.264l-.632-1.469-1.827.813.12.277.084.193c.833 1.934 3.998 9.479 5.054 14.834.914 4.661 3.297 13.155 4.551 17.52l.792 2.727 1.92-.56c-.001-.005-.013-.043-.025-.086l-.088-.299c-.666-2.278-4.082-14.049-5.187-19.686zm-8.065-2.693c-1.344-4.621-3.801-9.52-5.067-11.896l-.803-1.461-1.733.996a44.44 44.44 0 0 1 .295.527l.718 1.34c1.281 2.447 3.471 6.925 4.672 11.053 1.292 4.438 3.525 11.53 4.69 15.205l.755 2.371 1.906-.603c-.003-.01-.036-.111-.091-.285l-.525-1.651-4.817-15.596zm-14.618-11.264l-.191-1.074-1.977.311.104.621.069.379c.603 3.267 2.821 13.694 7.703 21.056.758 1.146 1.574 2.212 2.459 3.165l1.465-1.361c-.028-.032-.052-.062-.078-.09-6.052-6.596-8.839-19.261-9.554-23.007zm.062 19.086c-.605-1.549-2.991-7.749-3.664-10.814-.432-1.975-.473-4.48-.431-6.265a45.46 45.46 0 0 1 .06-1.497l.053-.773-1.992-.174c-.006.063-.045.539-.08 1.26a46.29 46.29 0 0 0-.054 2.584c0 .047.002.098.003.145.018 1.641.134 3.528.489 5.148.191.869.508 1.962.876 3.116.29.91.61 1.855.936 2.778l1.329 3.623.758 1.963 1.859-.736c-.008-.022-.056-.143-.139-.356z"/><path d="M140.708 329.529l-.138-1.52-1.996.123.177 1.871a32.34 32.34 0 0 0 4.024 12.022l1.326 2.058 1.59-1.215-.002-.003c-.007-.008-.054-.074-.12-.167-.659-.934-4.022-6-4.861-13.169zm-4.343 11.26a6.29 6.29 0 0 1-.521-.59c-.535-.677-1.235-1.817-1.441-3.346-.192-1.427.05-3.184 1.271-5.197l.694-1.027.252-.352-1.566-1.242a14.65 14.65 0 0 0-1.571 2.414c-.29.565-.51 1.108-.683 1.638a8.68 8.68 0 0 0 .773 7.28l.273.437c.004.008.009.016.014.022.669 1.012 1.307 1.578 1.327 1.596l1.308-1.512c-.024-.018-.07-.062-.13-.121h0zm-6.59-6.988l.654-1.41.285-.559-1.762-.947c-.453.844-.82 1.633-1.123 2.375-1.214 2.973-1.335 5.118-1.228 6.393.071.844.239 1.307.259 1.358l1.867-.717c-.005-.018-.058-.18-.102-.477-.124-.86-.172-2.884 1.15-6.016zm137.487 279.117l-.607.223.693 1.875h.001l1.16-.426.833-.305-.656-1.89-1.424.523h0zm-1.583-9.565l-4.357 1.259.766 1.86 4.211-1.217-.62-1.902zm-2.199-6.903l-1.359.458-3.236 1.085.647 1.892 4.55-1.526-.602-1.909zm-3.06-9.875l-4.497 1.61.56 1.931 4.525-1.622-.588-1.919zm-1.581-5.206l-.577-1.916-4.573 1.173.567 1.918 3.938-1.011.645-.164zm41.586-11.894l.638-.207-.615-1.9h0l-1.128.361-1.566.499 1.817 1.52.854-.273zm-44.321 2.755l-4.525 1.315.296.942.287.97 4.513-1.312-.571-1.915zm40.576-8.796l.655-.141-.409-1.957h-.002l-1.332.287-4.496 1.013 1.919 1.612 3.663-.814zm-42.57 2.041l-4.719 1.388.639 1.897 4.645-1.365-.565-1.92zm37.059-11.403l.816-.357-.809-1.83-.002.001c-.029.015-.386.17-1.008.44h-.001l-7.604 3.205 1.746 1.442 6.862-2.901h0zm-42.466-7.254l-.551-1.928-6.313 1.435.736 1.89 5.111-1.153 1.017-.244zm33.424-8.839l.665-.186-.539-1.926h-.001l-1.115.311-3.448.952-15.582 4.204a71.75 71.75 0 0 1 2.705 1.357l.115-.031 17.2-4.681zm-35.464 1.675l-.456.09-6.523 1.132.76 1.902 6.768-1.193-.549-1.931zm32.497-7.082h0l.714-.227-.6-1.906h-.001l-1.09.34h-.001c-3.642 1.135-15.635 4.84-24.262 7.143 1.084.396 2.138.8 3.159 1.211l1.932-.539 20.149-6.022zm-1.971-3.617l.517-.088-.342-1.971h-.002l-1.182.203c-5.637.967-30.073 5.111-39.17 5.902-.163.014-.34.037-.506.053l.047.113.745 1.815c9.688-.857 35.922-5.346 39.891-6.028zm-2.645-4.867l.555-.094-.336-1.971-1.222.207h-.001c-5.753.971-30.384 5.09-37.024 5.526l-.585.03c-3.583.063-12.04.398-18.942.688l8.104 1.671 10.891-.361c6.082-.21 34.127-4.942 38.56-5.696zm-43.586-13.751l2.67-.269 31.043-4.328h.001l.65-.088-.262-1.982h-.002l-1.397.188-30.337 4.234c-8.946 1.373-26.6-2.197-30.386-3.002l-.735-.158h0l-.438 1.951 1.58.34h.001c1.364.284 3.515.713 6.098 1.164 6.249 1.092 15.049 2.318 21.514 1.95zm-5.595-9.22c10.133-1.737 29.729-1.985 34.908-2.021l.836-.005h.001.458v-2h-.002l-1.524.006c-5.563.035-24.735.287-35.006 2.047-9.824 1.592-20.092 1.059-23.1.85l-.876-.066h-.001l-.184 1.992c.025.002.554.049 1.467.105h.001c3.644.227 13.521.631 23.022-.908zm3.666-8.842c3.688-.747 8.987-1.558 13.915-2.249l.98-.137 11.452-1.489h.001l.644-.076-.236-1.986h-.002c-.032.005-.549.064-1.419.172-4.451.547-18.303 2.301-25.73 3.805-7.703 1.559-24.359 1.852-28.371 1.898l-.888.008.013 2h0l1.321-.012c4.708-.061 20.593-.371 28.32-1.934zm-26.279-7.208c6.235-.839 16.454-2.075 22.63-2.086.525-.001 1.021.007 1.483.024.768.029 1.585.041 2.438.039 7.673-.021 18.229-1.201 21.653-1.608l.639-.077h.001l.469-.061-.252-1.982h-.001c-.027.002-.476.059-1.233.148h-.001c-3.679.432-14.783 1.654-22.203 1.576l-1.433-.033a38.44 38.44 0 0 0-1.559-.026c-8.263.012-23.132 2.107-27.245 2.712h-.001l-1.042.154.283 1.981c.018-.004.204-.031.502-.076l.778-.113 4.094-.572zm33.498-16.226l8.755.304h0l.499.036.008.001.17-1.99h-.002l-1.803-.127-3.274-.154-4.477-.083c-5.498-.013-12.501.308-18.605 1.632-9.728 2.107-18.663 5.955-21.745 7.359l-1.137.531.879 1.797a43.11 43.11 0 0 1 .875-.41c2.767-1.271 11.751-5.199 21.552-7.322 5.927-1.286 12.87-1.59 18.305-1.574zm4.69-7.173l.596-.078-.26-1.982-1.361.182c-5.364.715-24.729 3.354-31.252 4.936-6.217 1.508-14.121 1.82-16.36 1.881l-.635.014h0l.023 2a58.02 58.02 0 0 0 1.434-.037c2.994-.102 10.118-.486 16.01-1.914 6.701-1.631 27.995-4.495 31.805-5.002zm-32.3-5.384l4.73-.464c8.495-.504 21.8-.189 24.304-.123.009 0 .012 0 .021.001l.388.011h.004.001l.06-2h-.004c-.037 0-.612-.018-1.584-.039-3.606-.083-12.675-.246-20.012.005l-3.296.149c-8.308.494-21.563 3.408-25.186 4.23l-.091.021-.827.192.456 1.945h.001a.35.35 0 0 1 .026-.006l1.306-.297a3.95 3.95 0 0 1 .136-.031c3.431-.766 12.26-2.664 19.567-3.594zm23.043-11.423h0l.49-.029-.111-1.996h-.001l-1.456.09c-4.229.279-16.554 1.223-23.664 3.117-7.017 1.871-18.124 6.006-21.773 7.387l-1.21.461.719 1.863.001.002a167.32 167.32 0 0 1 1.624-.617h0c3.993-1.506 14.477-5.383 21.155-7.164 7.486-1.998 21.449-2.94 24.226-3.114zm-25.756-2.457c1.716-.571 3.584-1.041 5.487-1.436 7.231-1.496 14.989-1.833 17.027-1.896h.001l.52-.016-.032-2h-.001l-1.593.051c-3.937.162-14.293.816-22.043 3.398-8.311 2.771-22.114 5.844-25.197 6.52l-.632.137.418 1.953v.002c.03-.008.665-.145 1.727-.379 4.483-.996 16.675-3.787 24.318-6.334zm-13.045-8.914l2.349-.337c7.104-.807 20.397-.904 26.555-.903l2.799.008.5.002.019-2c-.142 0-.739-.006-1.664-.01-1.241-.005-3.092-.007-5.299.006-7.881.044-20.295.277-25.623 1.268-7.008 1.305-20.116 4.837-23.047 5.637l-.6.162.531 1.928 1.751-.475 1.911-.513c5.106-1.361 14.355-3.757 19.818-4.773zm-8.486-8.592l2.248.033c11.577-.047 27.818-3.145 31.473-3.871l.703-.143c.006-.001.017-.003.021-.004l-.404-1.959c-.031.008-.535.109-1.396.275-4.625.896-19.827 3.669-30.504 3.701-.711.002-1.403-.008-2.07-.031a56.96 56.96 0 0 0-2.06-.035c-10.221.005-19.229 2.663-21.953 3.551l-.828.281.675 1.881.001.002c.022-.01.522-.186 1.396-.455 3.44-1.058 12.775-3.577 22.698-3.226zm2.547-7.031l6.543-1.039 19.561-3.663.344-.067.571-.111-.391-1.961h0l-1.28.252h-.001l-.949.186c-5.309 1.038-18.715 3.623-24.664 4.422l-30.556 3.973h-.001l-.815.105v.002l.257 1.982 1.613-.21.112-.015h.001l29.655-3.856zm-33.027-1.785c3.313-1.023 12.859-3.908 23.319-6.451l2.103-.504c12.452-2.934 27.488-2.57 30.122-2.479h.001l.408.016h0l.094-1.998c-.031-.002-.666-.029-1.766-.053l-3.491-.027c-2.682.011-6.199.099-10.064.369-5.002.349-10.593 1.006-15.763 2.225l-3.076.744c-6.565 1.618-12.692 3.339-17.079 4.626l-5.788 1.743-.864.272v.002l.607 1.902c.023-.008.462-.145 1.237-.387z"/><path d="M149.072 406.676c4.82-1.473 22.307-6.663 32.295-7.615.45-.043.891-.08 1.309-.105a64.35 64.35 0 0 1 3.855-.105c6.418.01 12.637.87 16.304 1.493a90.12 90.12 0 0 1 3.025.565h.001l.323.066h0l.434-1.951c-.031-.008-.852-.188-2.244-.439-4.103-.746-13.188-2.131-21.817-1.625-10.231.611-29.677 6.447-34.349 7.889l-1.007.314v.002l.601 1.904 1.27-.393zm-2.961-6.44c4.137-1.787 19.813-8.385 29.313-10.016 9.927-1.701 20.816-.967 22.851-.807l.336.027.184-1.99v-.002c-.028-.002-.756-.066-1.987-.139h-.002c-3.956-.229-13.17-.525-21.72.941-9.857 1.689-25.601 8.338-29.788 10.154l-1.031.451.002.004.811 1.824c.023-.009.395-.173 1.031-.447zm-3.256-7.363c2.925-.898 18.039-5.496 24.064-6.5l26.23-4.094.604-.096-.301-1.977h0l-1.676.262h-.002l-25.182 3.932c-6.425 1.07-22.266 5.925-24.561 6.635l-.263.08.001.003.591 1.907c.018-.004.19-.058.495-.152zm-2.572-5.646l.519-.348c2.894-1.919 10.166-6.401 17.353-8.109 9.019-2.037 25.165-6.17 26.633-6.547.063-.016.109-.025.116-.027l-.498-1.939h0c-.027.008-.479.123-1.257.322h0l-25.445 6.242c-7.83 1.863-15.509 6.697-18.303 8.582h0l-1.096.762.001.002 1.175 1.615c.017-.012.311-.223.802-.555zm-3.592-6.846c3.02-1.777 13.01-7.459 20.345-9.314 7.933-2.012 18.864-4.225 21.07-4.666l.401-.08-.39-1.961h0l-2.29.463-5.695 1.189c-4.187.894-9.313 2.032-13.586 3.115-7.729 1.957-17.889 7.762-20.92 9.559l-.878.527v.001l1.044 1.704.899-.537zm-5.57-6.428c1.878-1.462 5.931-4.477 10.158-6.738 1.438-.769 2.896-1.451 4.296-1.955-.008.003 4.828-1.646 9.695-3.306l9.378-3.198h0l.509-.174-.648-1.893-2.602.887-.003.001h0l-16.987 5.794c-3.083 1.107-6.356 2.979-9.151 4.8a86.41 86.41 0 0 0-5.954 4.263l-.598.473-.472.383.002.003 1.273 1.536c.018-.015.429-.352 1.104-.876zm-10.159-3.344c4.927-2.272 14.577-6.656 19.53-8.527l4.07-1.438 12.692-4.3.8-.265.296-.098-.627-1.9c-.033.012-1.094.361-2.74.91l-15.184 5.213c-6.754 2.549-21.998 9.658-22.703 9.988-.017.008-.032.016-.035.016l.001.002.847 1.813 3.053-1.414zm-6.765-.564c5.393-4.135 19.787-14.51 32.283-17.635.045-.01.087-.023.128-.033l-.479-1.939v-.002c-1.131.277-2.272.617-3.42.996-14.383 4.768-29.498 16.781-31.714 18.584h0l-.264.217.002.002 1.271 1.539c.037-.032.833-.686 2.193-1.729zm-7.699.115c3.824-4.285 14.3-15.472 23.355-20.221.604-.316 1.201-.604 1.79-.859a20.97 20.97 0 0 1 1.462-.578l-.435-1.258-.221-.633c-.35.121-.703.256-1.06.4-1.011.41-2.045.916-3.09 1.49h0c-10.83 5.959-22.867 19.783-24.623 21.838l-.207.244.002.002 1.527 1.287c.028-.034.571-.673 1.5-1.712zm-11.886 1.176h0c3.132-3.514 10.245-10.984 18.874-16.81 3.923-2.648 8.159-4.956 12.477-6.397.076-.024.148-.053.219-.076l-.621-1.9c-1.227.4-2.441.871-3.643 1.391-15.305 6.6-28.398 21.898-30.346 24.242l-.236.287.002.002 1.551 1.258c.03-.038.641-.784 1.723-1.997zm-8.41 1.363c1.614-3.396 5.58-11.224 9.804-15.613 4.744-4.84 14.343-9.14 17.118-10.321l.46-.194.31-.127-.743-1.857h-.001c-.173.069-1.622.655-3.69 1.621-4.199 1.957-10.966 5.486-14.887 9.484-5.217 5.422-9.846 15.367-10.793 17.473l-.171.383 1.833.801h0l.442-.97.318-.677zm11.021 2.272l-20.148 13.302-.622.379-.484.294 1.024 1.719.574-.346c5.23-3.184 16.542-10.82 20.183-13.289l.949-.644.179-.122c.005-.004.024-.017.026-.018l-1.125-1.652h0l-.001.001c-.019.015-.212.145-.534.363l-.021.013zm-17.104 20.585l-.779.196-.906.209.4 1.959 1.251-.285c3.898-.955 15.737-4.357 20.61-11.479.396-.58.75-1.186 1.046-1.814l-1.81-.851-.001-.001c-.027.059-.062.116-.092.176-3.502 7.072-15.309 10.741-19.719 11.89zm21.821-5.96l-8.179 9.152c-.911.942-2.17 1.993-3.502 3.013l-6.201 4.321-.854.543 1.055 1.699h0a63.16 63.16 0 0 0 .741-.471c1.985-1.271 7.452-4.875 10.209-7.727 2.398-2.566 5.838-6.473 7.521-8.396l1.011-1.158-1.509-1.312v-.001l-.291.333-.001.004zm3.194 8.457c-2.561 6.403-9.376 12.627-13.376 15.884-.923.752-1.696 1.346-2.233 1.747l-.816.6.691.99.454.65.727-.524c2.63-1.94 11.534-8.887 15.557-16.734.359-.702.684-1.408.956-2.118l-.002-.001-1.865-.716c-.029.073-.063.148-.093.222zm1.745 6.574c-1.397 1.922-4.214 5.608-7.544 8.938-3.24 3.166-4.887 6.594-5.662 8.695-.428 1.156-.596 1.918-.612 2l1.957.41c.001-.006.021-.098.063-.258.293-1.098 1.666-5.525 5.66-9.428 3.271-3.27 6.001-6.785 7.501-8.828.743-1.014 1.189-1.672 1.24-1.748l-1.658-1.117h0c-.002.004-.031.046-.071.104l-.285.409-.077.109-.512.714zm5.079 6.613l-1.858-.736h0c-.001.004-.013.032-.02.05l-.101.257-.288.72-2.017 4.975c-2.02 4.927-4.906 11.8-7.067 16.259l-.773 1.551 1.777.918.241-.475c2.831-5.605 7.196-16.275 9.134-21.084l.538-1.341.434-1.094zm5.627 15.75l-.001-.006a.98.98 0 0 1-.022-.105l-1.963.383 1.019 4.377c.755 2.865 1.878 6.418 3.21 8.428l.393.549.288-.234 1.264-1.027c-.208-.256-.414-.582-.618-.945l-.001-.002c-1.643-2.941-3.082-8.967-3.569-11.418zm.963-11.102l-.08.025-.002.001-1.819.592 1.665 4.771c1.05 2.816 2.349 5.918 3.254 6.754 1.018.938 2.793 3.525 3.654 4.842l.26.398 1.685-1.075.001-.001-.748-1.135c-.907-1.35-2.439-3.523-3.494-4.498-.803-.738-2.855-6.008-4.376-10.674zm12.305 6.612c-1.489-1.5-4.225-4.375-5.609-6.604-.917-1.428-2.797-3.854-4.627-6.137l-1.824-2.252-2.808-3.395h0l-.228.188-.001.001-1.303 1.098 1.323 1.589 1.087 1.319c2.258 2.756 5.456 6.735 6.69 8.656 1.721 2.77 5.216 6.301 6.479 7.543l.468.455.001-.001 1.378-1.446c-.014-.012-.419-.401-1.026-1.014zm-17.381-27.248l-.322.291-1.164 1.047 2.164 2.238c3.069 3.036 9.027 8.408 15.459 11.441.429.202.86.395 1.292.574.124.053.247.115.372.164l.742-1.855a29.08 29.08 0 0 1-1.795-.795c-8.644-4.181-16.663-13.011-16.748-13.105zm-2.819-7.377h-.001l-.834 1.82 1.759.805.001.001 15.718 7.208.308.141.834-1.817-1.802-.828h0l-15.875-7.279zm-2.743-7.326l-.332 1.975 1.545.313c3.512.783 12.116 3.104 16.346 7.754l.021-.02 1.458-1.326h0c-.653-.719-1.396-1.381-2.192-1.996h0c-5.625-4.336-14.181-6.193-16.347-6.607l-.499-.093zm-2.432-7.35h0l-.448 1.949 1.698.391h0l16.839 3.861h.001l.717.166h0l.448-1.949-1.255-.289-17.49-4.012zM94.43 576.627c-7.119 1.271-16.282 5.393-21.417 7.896-1.208-.646-2.395-1.314-3.56-2l-1.822.852-.877-1.797.652-.313a113.67 113.67 0 0 1-7.559-5.11l-1.944.694-.676-1.883c.02-.008.278-.1.713-.256-2.925-2.245-5.675-4.554-8.246-6.87l-2.475.229-.146-1.994c.016-.001.239-.019.629-.053-1.563-1.459-3.051-2.909-4.472-4.338-.64.442-.998.721-1.016.734l-1.238-1.57c.062-.049.363-.28.832-.615-2.011-2.066-3.881-4.073-5.589-5.964l-1.294.661-.932-1.77.841-.435-3.686-4.187a60.16 60.16 0 0 0-1.266-1.414l-1.37.588-.794-1.836.693-.299c-1.407-1.433-2.905-2.842-4.448-4.209l-1.412.66-.879-1.797.632-.302c-1.867-1.59-3.767-3.108-5.619-4.523-.651.464-1.028.792-1.043.806l-1.333-1.49c.048-.043.3-.263.706-.574a182.54 182.54 0 0 0-8.563-5.986l-4.871-.766.178-1.988 3.081.158c2.799-1.912 5.677-3.825 8.63-5.699l-.664-.465 1.165-1.625c.025.018.513.365 1.352.929 2.125-1.322 4.281-2.621 6.471-3.881l-.57-.382 1.097-1.672 1.415.951c3.815-2.139 7.716-4.149 11.68-5.962l-.56-.614 1.474-1.352 1.009 1.106c3.953-1.733 7.962-3.262 12.007-4.507l-.447-.725 1.706-1.045.735 1.188c2.311-.656 4.63-1.22 6.957-1.674l-.363-.668 1.759-.951.678 1.245c3.942-.656 7.896-.995 11.842-.946l-.201-.672 1.919-.566.396 1.313a55.72 55.72 0 0 1 10.413 1.477l-.226-.522 1.835-.799.851 1.969c1.783.521 3.559 1.129 5.325 1.852a100.18 100.18 0 0 0 6.86 2.529l-.104-.582 1.976-.313c.004.025.097.581.318 1.584 3.493 1.043 6.696 1.757 9.692 2.241l-.245-.542 1.824-.818.773 1.701a80.77 80.77 0 0 0 6.377.554l-.317-.55 1.728-1.008.942 1.646c2.094.056 4.132.058 6.152.058l5.65.047-.195-.787 1.942-.469.339 1.329c2.906.132 5.891.415 9.082 1.004-.002-.651.054-.979.066-1.04l1.966.367c-.002.016-.049.358-.017 1.083 3.305.729 6.855 1.813 10.779 3.405l-.146-.578 1.943-.475c.007.031.189.767.534 2.039l2.032.918c2.908 1.383 6.058 2.622 9.39 3.761l-.169-.501 1.897-.635.655 1.922c2.622.837 5.348 1.618 8.165 2.355l-.222-.412 1.746-.977c.041.073.386.694 1.071 2.054 5.343 1.329 10.972 2.532 16.767 3.707l-.104-.716 1.979-.273.215 1.411 6.528 1.296 5.6 1.111-.148-.625 1.95-.449.363 1.514 9.703 2.037c-.002-.005-.006-.02-.006-.021l1.938-.494c.007.025.098.382.261 1.008l4.836 1.121c6.624 16.088 11.695 29.771 15.064 40.666l4.021 13.604c3.008 10.394 4.065 14.042 9.828 26.648h2.201l-.792-1.733-2.791-6.315-.341-.806-.766-1.86h0a110 110 0 0 1-1.79-4.727h0l-.647-1.892c-.793-2.389-1.521-4.844-2.401-7.877l-.56-1.931c-.006-.022-.012-.043-.019-.064l-1.648-5.577-.567-1.918-1.527-5.168-.287-.97-.296-.942h0l-1.549-4.786-.639-1.897-2.796-7.949h0l-.688-1.88-.666-1.8-.711-1.901-1.955-5.116-.736-1.891-1.396-3.547-.76-1.902h0l-2.387-5.893h0l-.745-1.815-.047-.113-.147-.357-.493-.121c-3.512-.858-7.128-1.657-10.771-2.43l-8.104-1.671-6.2-1.229-3.444-.682-2.159-.43c-15.89-3.172-30.686-6.419-41.848-11.727-14.945-7.039-24.604-7.037-34.83-7.035-9.709.002-19.748.002-35.221-6.352-31.598-12.928-65.777 6.338-92.02 24.566L0 526.469l1.32.797c.185.111 18.555 11.271 28.302 22.564 8.538 9.771 22.793 26.09 42.882 36.705l.451.238.458-.227c3.976-1.953 14.016-6.641 21.369-7.955 10.608-1.866 23.62-4.865 26.809-5.609l-2.219-1.537c-4.852 1.116-15.808 3.573-24.942 5.182zm24.071 34.525l-1.774.494-.524-1.93.462-.129-5.537-4.4-2.332.365-.291-1.979.4-.061-7.151-4.902-1.895.76-.771-1.846.525-.215-1.724-1.049c3.375-1.717 6.35-3.016 8.444-3.652 6.635-2.012 27.852-6.876 32.131-7.851l-2.211-1.549c-6.61 1.515-24.37 5.626-30.5 7.483-2.539.773-6.223 2.408-10.371 4.604l-1.625.861 1.605.895c8.939 4.992 17.281 11.42 24.931 18.273h2.943c-1.544-1.409-3.13-2.798-4.735-4.172zM301.806 571.6l-2.235-1.853-1.817-1.52h0l-4.599-3.862-.14-.117h0l-1.919-1.612-6.788-5.662h0l-1.746-1.442-7.329-5.85-.001-.001-1.914-1.487-1.057-.821-2.003-1.426a58.53 58.53 0 0 0-5.446-3.255l-2.705-1.357-5.027-2.201-3.159-1.211-6.786-2.271-1.751-.537.495 1.764.784 2.777.548 1.931.941 3.306.551 1.928 1.505 5.24.555 1.922.387 1.336.557 1.923h0l2.404 8.234.564 1.921 1.43 4.836h0l.57 1.916 1.588 5.307.577 1.916h0l1.581 5.206.588 1.919 2.472 7.956.602 1.908h0l1.598 4.994h0l.619 1.902 2.388 7.141.656 1.89.367 1.041h2.12c-7.614-21.281-20.397-66.15-23.51-77.164l3.498 1.177-.224-.511 1.82-.828c.015.032.365.812.971 2.287 6.809 2.583 12.426 5.478 16.657 8.67l1.713 1.331-.048-.218 1.953-.428.567 2.566c5.658 4.455 11.224 9.127 16.639 13.688l.873.734-.007-.461 1.999-.012c0 .038.007.826.051 2.191l12.548 10.291.016-.404 1.998.1c-.001.029-.031.681-.047 1.838 1.769 1.366 3.528 2.686 5.278 3.949v-2.473c-2.507-1.841-5.037-3.806-7.587-5.842l-5.183-4.21z"/><path opacity=".5" fill="#fff" d="M101.964 551.141c-.002-.003-.018-.023-.025-.033l-8.115-4.318c-21.33-10.461-50.698-15.359-70.5-17.596l4.419.893a13.48 13.48 0 0 1 1.374.215l-.014.067c4.662.976 9.666 2.091 14.8 3.34.514.04.999.113 1.447.226l-.03.121 9.693 2.533c.169.014.324.036.454.074l-.014.049c14.165 3.939 28.11 8.855 37.522 14.67 5.953 3.631 16.272 10.613 29.027 19.452l.333-.079 19.101 13.332-.334.076 27.095 19.064 15.894 11.195.668-.088.077.612.541.38h15.382c-36.321-24.735-76.317-51.554-98.779-64.196l-.016.011z"/><path d="M122.333 570.754l-.333.079 19.099 13.329.334-.076-19.1-13.332z"/><path opacity=".5" fill="#fff" d="M122.333 570.754l-.333.079 19.099 13.329.334-.076-19.1-13.332z"/><path d="M28.702 532.258c-.397-.084-.79-.141-1.181-.182l10.308 2.243c2.206-.486 4.313-.748 6.074-.611-5.134-1.249-10.138-2.364-14.8-3.34l-.401 1.89zm16.162 3.615c-.39-.098-.816-.159-1.272-.191l6.688 1.692c2.051-.56 3.728-.872 4.733-.786l-9.693-2.533-.456 1.818z"/><path d="M27.743 530.086l-4.419-.893c19.802 2.236 49.17 7.135 70.5 17.596 2.345 1.15 5.071 2.605 8.115 4.318l-2.973-3.914a135.43 135.43 0 0 0-4.077-2.105l-1.296 1.43-4.31-3.993c-1.497-.638-3.023-1.25-4.573-1.842l-1.143 1.468a169.21 169.21 0 0 1-4.135-3.366c-4.878-1.656-9.922-3.11-14.992-4.389l-1.118 1.546c-.145-.104-1.511-1.098-3.46-2.652-2.684-.62-5.362-1.194-8.013-1.724l-.353 1.944c-.389-.071-7.587-1.405-12.325-4.197l-2.186-.337-.31 1.931c-3.131-.503-6.594-1.785-9.89-3.318-9.895-1.207-17.831-1.776-21.948-2.02l-3.081-.158-.178 1.988 4.871.766 14.83 2.663c1.921-.625 4.119-.995 6.464-.742zm114.699 57.463l2.93-.291.183 1.992-.608.058 4.446 3.126 2.698-.521.338 1.971-.773.143 8.277 5.828 3.024-.252.123 1.996-.61.043 4.573 3.223 1.454 1.024 2.069-.587.535 1.928-.501.141 10.587 7.457 2.903-.404-15.894-11.195-27.095-19.064-19.099-13.329c-12.755-8.839-23.074-15.821-29.027-19.452-9.413-5.814-23.357-10.73-37.522-14.67l-.544 1.871c-.084-.024-.192-.036-.311-.043a273.89 273.89 0 0 1 11.632 3.485l3.205-.839.503 1.936c-.01.003-.098.025-.241.063 5.119 1.762 9.973 3.66 14.321 5.691l2.621-.666.529 1.928c-.012.004-.136.037-.359.097 1.822.925 3.538 1.876 5.119 2.853l.436.269 2.107-.808.722 1.865c-.019.008-.27.104-.704.271l7.401 4.839 1.989-.746.709 1.871c-.018.006-.249.094-.652.245l10.801 7.355 2.451-.458.364 1.967-.492.092 2.311 1.598 2.219 1.537 14.665 10.228 2.211 1.549 3.976 2.785zm51.753 23.041l-1.83-3.387-3.357-2.277-1.474 1.33-4.575-5.423-21.364-14.339-1.369.779-1.517-2.697-12.003-7.921-1.243.575-.945-2.008-12.559-8.126.074.116-1.684 1.078-2.316-3.695-14.769-9.169.071.108-1.67 1.1-2.212-3.487-6.167-3.573.27.355-1.578 1.2c22.461 12.643 62.458 39.461 98.779 64.196h3.551l-8.355-5.687-1.758.952zm-9.313 4.736h.493l-.541-.38.048.38z"/><path d="M184.757 614.334l-.668.088-2.903.404-3.337.5h7.034l-.048-.38-.078-.612zm-14.192-9.033l-2.069.587c-3.871 1.109-12.401 3.607-18.836 5.894-4.725 1.677-12.365 2.844-18.167 3.545h12.702c2.261-.485 4.378-1.036 6.135-1.66 7.502-2.668 17.895-5.629 20.269-6.297l.501-.141-.535-1.928zm-7.608-5.699l-3.024.252c-4.548.435-13.498 1.503-21.755 3.746-.009.002-18.38 5.116-21.513 5.988l-.462.129.524 1.93 1.774-.494 20.211-5.625c9.999-2.72 21.072-3.684 23.757-3.887l.61-.043-.122-1.996zm-11.301-5.577l.773-.143-.338-1.971-2.698.521c-3.924.814-11.206 2.552-15.735 5.021-5.523 3.014-22.005 5.638-24.752 6.059l-.4.061.291 1.979 2.332-.365c5.362-.873 18.418-3.21 23.487-5.977 5.113-2.785 14.328-4.671 17.04-5.185zm-6.709-4.717l.608-.058-.183-1.992-2.93.291c-4.876.506-14.841 1.64-22.097 3.123-8.724 1.884-18.401 5.694-20.73 6.639l-.525.215.771 1.846c.027-.012.721-.301 1.895-.76 3.582-1.4 11.65-4.395 19.001-5.982 8.667-1.773 21.304-3.045 24.19-3.322zm-77.541-8.042l-.652.313.877 1.797 1.822-.852c4.212-1.925 14.959-6.579 23.863-8.238.001 0 20.343-3.802 23.744-4.438l.492-.092-.364-1.967-2.451.458-21.789 4.073c-10.305 1.918-22.587 7.546-25.542 8.946zm-9.466-6.555l-.713.256.676 1.883 1.944-.694 23.154-7.903c6.506-1.97 18.076-6.288 20.935-7.36l.652-.245-.709-1.871-1.989.746c-4.14 1.544-13.775 5.093-19.468 6.816-6.566 1.99-21.115 7.169-24.482 8.372zm-10.238-8.688l-.629.053.146 1.994 2.475-.229c4.147-.438 12.729-1.571 19.971-4.011 8.394-2.864 21.647-7.928 24.823-9.147l.704-.271-.722-1.865c-.034.014-.813.313-2.107.808l-23.34 8.581c-8.273 2.786-18.687 3.852-21.321 4.087zm-5.894-5.789l-.832.615 1.238 1.57 1.016-.734c2.724-1.886 10.6-6.79 19.493-7.32 10.349-.616 21.918-3.56 24.085-4.132l.359-.097-.529-1.928c-.035.01-1.006.274-2.621.666-4.316 1.048-13.26 3.01-21.413 3.494-9.839.588-18.209 6.019-20.796 7.866zm-6.974-7.506l-.841.435.932 1.77 1.294-.661c2.611-1.313 8.679-4.254 13.249-5.61 5.603-1.659 18.34-4.984 20.228-5.477l.241-.063-.503-1.936-3.205.839-17.329 4.718c-5.099 1.512-11.748 4.801-14.066 5.985zm20.178-16.14c-1.005-.086-2.682.227-4.733.786-6.903 1.883-18.008 6.551-21.868 8.206l-.693.299.794 1.836 1.37-.588c9.213-3.926 21.871-8.741 24.715-8.588.119.007.227.019.311.043l.544-1.871.014-.049c-.13-.038-.285-.06-.454-.074zm-11.42-.906a7.45 7.45 0 0 1 1.272.191l.455-1.818.03-.121a8.8 8.8 0 0 0-1.447-.226c-1.761-.137-3.868.125-6.074.611-6.291 1.388-13.377 4.602-15.523 5.613l-.632.302.879 1.797a63.72 63.72 0 0 1 1.412-.66c3.728-1.701 13.966-6.084 19.628-5.689zm-16.071-3.606l1.181.182.401-1.89.014-.067a13.48 13.48 0 0 0-1.374-.215c-2.345-.253-4.542.117-6.459.741-2.928.953-5.184 2.488-6.268 3.323l-.706.574 1.333 1.49c.015-.014.392-.342 1.043-.806 1.881-1.339 6.096-3.83 10.835-3.332zm9.157-1.17l.31-1.931.007-.044c-7.73-1.24-18.022-7.773-21.671-10.224l-1.352-.929-1.165 1.625.664.465c1.857 1.283 7.304 4.919 13.317 7.719 3.295 1.534 6.758 2.816 9.89 3.319zm-.782-4.394c.734 1.061 1.903 1.991 3.277 2.801 4.738 2.792 11.936 4.126 12.325 4.197l.353-1.944.004-.024c-3.196-.58-11.995-2.818-14.308-6.158-2.518-3.729-10.525-9.414-13.812-11.658l-1.415-.951-1.097 1.672.57.382c2.386 1.605 11.564 7.922 14.103 11.683zm23.968 6.777l3.46 2.652 1.118-1.546.055-.075c-.093-.066-9.367-6.805-14.883-13.422-4.409-5.291-10.025-11.52-12.275-13.995l-1.009-1.106-1.474 1.352.56.614c1.837 2.016 7.946 8.759 12.662 14.417 3.562 4.275 8.503 8.491 11.786 11.109zm19.569 5.495l4.135 3.366 1.143-1.468.086-.11c-.111-.088-11.21-8.752-17.64-16.178-5.515-6.265-13.397-18.697-15.817-22.58l-.735-1.188-1.706 1.045.447.725c2.022 3.267 10.36 16.56 16.306 23.314 4.045 4.674 9.88 9.808 13.781 13.074zm9.851 3.74l4.31 3.993 1.296-1.43.048-.053c-.133-.119-13.255-12.029-18.581-18.686-4.468-5.706-13.46-21.966-15.986-26.583l-.678-1.245-1.759.951.363.668c2.013 3.701 11.646 21.261 16.492 27.449 3.512 4.393 10.118 10.813 14.495 14.936zm9.682 4.669l2.973 3.914.025.033.014-.011 1.578-1.2-.27-.355-19.762-26.242c-2.875-4.081-7.78-19.784-9.197-24.437l-.396-1.313-1.919.566.201.672c1.11 3.694 6.433 21.061 9.683 25.674 2.565 3.557 12.13 16.188 17.07 22.699zm10.487 5.954l2.212 3.487 1.67-1.1-.071-.108c-.862-1.319-9.989-15.416-14.562-26.896-3.856-9.694-9.403-22.641-11.503-27.512l-.851-1.969-1.835.799c.007.017.087.201.226.522l12.105 28.899c3.441 8.637 9.394 18.694 12.609 23.878zm18.58 11.449l2.316 3.695 1.684-1.078-.074-.116c-.851-1.338-9.526-15.034-18.805-31.993-7.781-14.055-10.703-25.064-11.578-29.014-.222-1.003-.314-1.559-.318-1.584l-1.976.313a19.09 19.09 0 0 0 .104.582c.515 2.724 3.131 14.615 12.017 30.666 6.811 12.453 13.302 23.155 16.63 28.529zm16.485 10.627l.945 2.008 1.243-.575.57-.265c-.063-.139-6.469-13.945-16.446-32.783-8.165-15.404-14.98-30.067-17.209-34.936l-.773-1.701-1.824.818.245.542c1.411 3.107 8.786 19.212 17.794 36.212 7.745 14.624 13.33 26.201 15.455 30.68zm14.19 9.353l1.517 2.697 1.369-.779.368-.209c-.145-.254-14.564-25.65-22.498-43.408-6.541-14.652-14.436-28.848-17.113-33.563l-.942-1.646-1.728 1.008.317.55c1.753 3.053 10.509 18.491 17.641 34.468 6.446 14.429 17.134 33.839 21.069 40.882zm12.905-1.252c2.53 5.948 7.6 12.841 11.346 17.509 2.483 3.095 4.385 5.213 4.575 5.423l1.474-1.33.011-.01c-.114-.127-11.489-12.793-15.565-22.375-4.091-9.623-14.773-26.541-23.547-39.039-7.059-9.916-12.321-28.861-13.666-34.011l-.339-1.329-1.942.469.195.787c1.086 4.29 6.476 24.504 14.119 35.238 8.707 12.407 19.304 29.178 23.339 38.668zm-24.259-73.502l-1.966-.367c-.012.061-.068.389-.066 1.04.011 2.82 1.125 11.712 11.723 31.341l35.32 65.367 1.83 3.387 1.758-.95.002-.001-37.15-68.754c-9.99-18.502-11.339-27.166-11.467-29.979-.033-.725.014-1.068.016-1.084zm10.616 3.91l.146.578c.715 2.773 4.065 15.213 9.656 27.688 3.134 6.994 6.524 12 10.113 17.297 3.637 5.367 7.396 10.918 10.956 18.836 5.049 11.233 13.454 28.486 17.729 37.195h2.228l-18.133-38.018c-3.63-8.074-7.438-13.697-11.124-19.137-3.538-5.223-6.882-10.156-9.944-16.992-4.826-10.77-7.963-21.516-9.149-25.883l-.534-2.039-1.944.475zm13.731 5.743l.169.501c1.206 3.554 8.788 25.655 14.504 36.464 2.913 5.508 7.229 12.424 11.801 19.746 5.174 8.291 10.522 16.863 14.021 23.734 2.529 5.014 4.468 10.538 5.894 15.406h2.081c-1.47-5.103-3.504-10.984-6.19-16.311-3.538-6.951-8.912-15.563-14.108-23.889-4.551-7.291-8.849-14.18-11.729-19.625-5.123-9.684-11.801-28.668-13.889-34.74l-.655-1.922-1.899.636zm10.495 3.23a24.42 24.42 0 0 1 .222.412c.837 1.58 4.096 7.939 10.378 22.602 3.439 8.025 6.824 13.66 10.1 19.107 3.896 6.484 7.926 13.189 12.203 24.131l9.984 26.369h2.134l-10.255-27.098c-4.34-11.098-8.412-17.877-12.353-24.434-3.388-5.639-6.588-10.965-9.976-18.865-5.064-11.821-8.14-18.212-9.621-21.147l-1.071-2.054-1.745.977zm19.48 4.068l.104.716c.594 3.968 3.711 23.076 10.417 36.077l6.213 11.766c6.99 13.113 15.69 29.434 18.07 37.336l.782 2.658h2.082l-.949-3.234c-2.438-8.094-10.822-23.822-18.221-37.701l-6.2-11.74c-6.146-11.91-9.294-29.66-10.104-34.739l-.215-1.411-1.979.272zm16.124 2.471l-1.95.449.148.625c.954 3.986 6.512 26.564 14.513 45.748 4.64 11.121 8.688 18.119 12.604 24.889 2.646 4.573 5.184 8.959 7.752 14.371h2.208c-2.735-5.874-5.421-10.521-8.228-15.373-3.884-6.711-7.899-13.652-12.489-24.656-7.471-17.915-12.802-38.834-14.194-44.539l-.364-1.514zm10.061 3.529c0 .002.004.017.006.021.139.542 5.1 19.824 10.435 35.729 2.496 7.434 7.618 19.416 13.043 32.1l6.242 14.703h2.167l-6.57-15.49c-5.408-12.645-10.517-24.59-12.985-31.949-4.663-13.901-9.044-30.412-10.138-34.6l-.261-1.008-1.939.494zM253.415 538l-1.82.828.224.511c1.161 2.686 6.735 16.064 12.517 38.294 3.99 15.337 8.135 27.082 12.245 37.693h2.145c-4.181-10.747-8.4-22.616-12.453-38.197-5.008-19.257-9.873-31.938-11.886-36.842l-.972-2.287zm21.246 11.643l-1.953.428.048.218 15.264 65.038h2.064c-5.648-21.867-12.813-53.903-14.855-63.117l-.568-2.567zm20.071 16.515l-1.999.012.007.461c.053 3.074.546 21.329 4.781 38.066.821 3.242 1.835 6.833 2.935 10.629h2.083l-3.079-11.119c-3.672-14.512-4.494-30.2-4.677-35.857l-.051-2.192zm14.612 12.178l-1.998-.1-.016.404c-.079 2.385-.331 15.047 2.526 29.74.456 2.346 1.047 4.657 1.716 6.945h2.089c-.724-2.418-1.361-4.857-1.842-7.326-2.441-12.557-2.578-23.595-2.522-27.826l.047-1.837z"/><g fill="#fff"><path opacity=".5" d="M282.663 56.661l-.045.017 2.712 3.569c-1.629-5.786-3.884-14.347-4.595-19.751-1.04-8.013-.212-28.292-.037-32.253a84.76 84.76 0 0 0-6.896-2.175c.088 4.432.492 19.349 2.003 27.549 1.772 9.648 6.807 22.911 6.858 23.044zm3.096 121.396l1.492 7.517 27.324 9.108v-10.423l-4.66-1.335c-10.132-2.533-20.525-4.285-24.156-4.867zm22.559-51.276l-2.056-4.607-31.927-9.817c-2.03-.53-5.264-.945-9.146-1.21l.884 1.688c2.157.332 12.695 2.04 21.419 5.083 7.228 2.521 16.515 6.816 20.826 8.863zm-13.142 5.767c-5.738-.185-18.214-4.916-23.242-6.911.856 2.155 1.678 4.324 2.44 6.507l21.672 6.033c6.962 1.979 14.014 4.922 18.529 6.954v-4.292l-1.704-3.833c-1.895-.698-11.584-4.162-17.695-4.458zm16.572 1.931l-2.171-4.875c-1.862-.907-13.889-6.708-22.742-9.797-7.294-2.545-15.905-4.142-19.604-4.76 1.312 2.622 2.527 5.301 3.665 8.014 2.458 1.003 18.095 7.288 24.362 7.489 5.298.257 12.823 2.656 16.49 3.929zm-28.199 32.433l1.803 9.055c2.776.435 14.06 2.27 25.048 5.016 1.357.339 2.759.741 4.176 1.182v-4.233l-5.967-1.82c-10.686-3.384-21.123-7.578-25.06-9.2zm-10.891-77.016c-8.574-3.181-20.383-4.702-24.865-5.192.652 1.186 1.332 2.367 2.042 3.542 9.963.945 17.502 2.355 22.396 4.202 8.955 3.477 19.972 7.059 24.481 8.496l-1.227-2.696-22.827-8.352zm21.661 5.796l-5.424-11.721c-2.602-.46-15.347-2.743-22.031-4.464-5.985-1.542-19.222-4.212-24.062-5.177a111.17 111.17 0 0 0 3.872 8.245c2.927.279 16.695 1.741 26.68 5.446l20.965 7.671zm-55.59-75.025l-.043.046c-3.844-3.531-9.329-3.604-11.838-3.417a135.71 135.71 0 0 1 2.475 6.738c2.459.239 10.324 1.132 16.415 3.225l-7.009-6.592zm29.575 20.048c3.701 3.701 7.29 7.541 10.633 11.468-1.66-4.84-3.995-12.193-5.101-18.206-1.632-8.857-1.986-24.802-2.048-28.437-4.141-1.021-8.396-1.776-12.711-2.322.644 3.2 2.291 11.549 3.36 18.418 1.236 7.926 5.293 17.72 5.867 19.079zM232.052 2.101a299.92 299.92 0 0 0-10.383.468c3.389 2.306 9.946 6.891 17.879 13.05-3.768-5.573-6.608-11.567-7.496-13.518zm67.428 81.852l8.017 15.572c-.09-6.277-.171-18.933.306-33.252.6-18.18 4.415-29.688 5.396-32.368-1.513-1.739-3.052-3.626-4.629-5.735a54.03 54.03 0 0 0-3.58-4.279l-4.264 29.543c-1.889 12.046-1.324 28.529-1.246 30.519zm-9.055-42.888l3.471 32.675 3.48 6.288c-.102-6.126-.06-17.755 1.374-26.913 1.925-11.559 4.061-27.958 4.459-31.053-2.531-2.491-5.261-4.692-8.157-6.63-1.164 4.713-4.998 20.721-4.627 25.633zm-42.823-19.017l-.003.004 1.862 1.545c-.812-1.451-1.382-2.905-1.467-4.235-.285-4.465-5.04-14.824-6.211-17.315a218.06 218.06 0 0 0-7.545.009c1.833 3.881 7.357 14.883 13.364 19.992zm30.527 122.092c1.071 3.811 2.028 7.587 2.901 11.29 1.854.548 9.046 2.629 19.052 4.938 4.33 1.041 9.581 2.776 14.493 4.555v-8.871c-4.039-1.007-8.95-2.179-13.11-3.022-7.223-1.463-18.762-6.723-23.336-8.89zM259.054 31.798l-.063.072 5.798 5.401c-1.482-3.969-3.494-9.979-4.327-15.326-1.146-7.363-2.963-16.448-3.475-18.976-4.296-.475-8.639-.75-12.974-.873 1.655 3.581 5.694 12.713 5.977 17.138.258 4.022 6.631 10.433 9.064 12.564z"/><path opacity=".5" d="M287.727 187.84l2.177 8.902c2.431 1.092 15.513 6.947 24.672 10.513v-10.471l-.537-.173-26.312-8.771zm-.592-121.476l-.022.007-.022-.076c-12.988-19.914-35.723-39.184-51.534-51.224 16.026 14.458 39.406 37.262 48.756 54.961 4.729 9.027 13.795 28.975 24.432 52.793l.081.18h-.001l5.752 12.909v-17.536C303.54 95.67 293.658 76.451 287.233 66.51l-.098-.146zm-4.418-26.127c1.022 7.77 5.476 22.777 6.205 25.206.783 1.212 1.62 2.568 2.5 4.042l-2.989-28.25c-.42-5.568 3.919-23.263 4.845-26.961-3.35-2.074-6.904-3.82-10.61-5.287-.214 5.106-.909 23.873.049 31.25zm26.858 63.42h-.01l5.011 10.159V36.079c-1.36 4.228-4.269 14.91-4.775 30.259-.673 20.234-.231 37.151-.226 37.319zm-7.604 115.451a146.02 146.02 0 0 0 12.604 5.646v-12.227c-8.266-2.458-16.099-3.708-19.6-4.188 2.019 3.534 4.413 7.118 6.996 10.769zm-10.93-18.931c.757 1.985 1.688 3.98 2.749 5.989 2.19.266 11.127 1.459 20.786 4.274v-1.041c-8.015-3.077-19.259-8.044-23.853-10.098l.318.876zm-15.896-65.742l2.242 7.13c2.252 1.093 16.426 7.875 24.475 9.505 4.027.816 8.746 1.937 12.714 2.921v-6.666c-4.382-1.999-11.786-5.152-19.077-7.225l-20.354-5.665zm32.58 92.601l3.814 5.218 3.036.676v-6.015c-3.986-1.52-7.603-3.152-10.126-4.353l3.276 4.474zm6.851 9.487v-1.535l-1.289-.297 1.289 1.832zM250.69 32.085l-.033.033c-3.741-3.827-16.214-5.511-20.656-6 .615 1.961 1.172 3.936 1.635 5.883 4.204.572 16.326 2.314 23.19 4.243l-4.136-4.159zm15.399 16.272c-2.584-2.952-5.293-5.898-8.054-8.794l-.023.022c-1.481-1.548-15.563-4.066-25.919-5.503l.323 1.697 1 5.565c2.444.17 10.053.781 15.261 2.131 4.316 1.12 12.82 3.556 17.412 4.882zm21.758 33.395l-3.86-7.96c-2.593-.445-17.235-2.975-26.258-4.923-7.557-1.632-15.684-5.188-19.386-6.92a133.03 133.03 0 0 0 3.56 10.163c3.082.61 18.753 3.73 25.459 5.458 5.798 1.492 16.245 3.419 20.485 4.182zm-6.292 75.913l1.501 6.875c2.22.931 14.033 5.825 26.157 9.665l5.362 1.641v-8.796c-5.04-1.842-10.499-3.665-14.951-4.735-8.639-1.995-15.202-3.822-18.069-4.65zm1.298-86.099l-.312-.603-2.869-4.911-.023.083c-.128-.036-12.905-3.601-23.076-8.913-7.991-4.173-17.34-3.963-20.562-3.737a160.48 160.48 0 0 0 1.558 5.873c1.969.964 11.835 5.665 20.582 7.555 7.877 1.701 20.073 3.851 24.702 4.653zm-25.355-16.115c7.521 3.927 16.515 6.887 20.546 8.124-2.74-4.038-6-8.23-9.566-12.444l-20.303-5.719c-4.657-1.208-11.547-1.819-14.372-2.031.492 2.542 1.066 5.272 1.736 8.13 3.096-.262 13.138-.667 21.959 3.94zm-24.109-39.644L221.69 5.596c1.206 2.492 2.781 5.897 4.372 9.758 1.41-.156 4.247-.298 7.327.453z"/></g><path d="M218.57.746l-1.539.106.726 1.362c.102.19 10.148 19.178 12.695 33.908 2.236 12.744 5.979 34.07 17.916 53.588l.263.428.5.046c9.911.915 17.654 2.344 22.392 4.131 10.51 4.082 23.804 8.292 26.246 9.059l7.382 16.338-30.31-9.292c-2.457-.641-6.472-1.135-11.294-1.389l-1.829-.096.907 1.59c12.086 21.172 17.208 47.508 20.948 66.739 1.898 9.761 3.537 18.192 5.604 23.624 3.396 8.906 9.975 17.856 16.94 27.333l8.458 11.836v-3.534l-1.289-1.832-2.54-.561.409-1.958.384.081-3.814-5.218-3.275-4.474a115.66 115.66 0 0 1-3.591-1.777l.929-1.772c.009.005.077.04.184.095-2.583-3.651-4.978-7.235-6.995-10.77l-1.915-.243.211-1.989a33.44 33.44 0 0 1 .518.061c-1.061-2.009-1.992-4.004-2.749-5.989-.107-.282-.213-.577-.317-.875l-2.046-.918.823-1.822.403.182c-.753-2.566-1.465-5.572-2.177-8.902l-1.563-.521.642-1.894.445.148-1.492-7.517-1.349-.211.295-1.979c.017.002.242.036.646.1l-1.803-9.055-1.648-.688.784-1.84c.013.005.14.06.371.156l-1.501-6.875-1.59-.467.582-1.912c.011.003.185.056.483.144-.873-3.702-1.83-7.479-2.901-11.29l-1.941-.934.885-1.794c.013.006.127.063.314.153-.698-2.375-1.447-4.754-2.242-7.13l-1.61-.448.526-1.93.313.087c-.763-2.183-1.584-4.352-2.44-6.507l-2.145-.867.769-1.847c.014.005.137.057.337.138-1.138-2.713-2.354-5.392-3.665-8.014l-1.841-.292.282-1.98.402.061-.884-1.688c3.882.265 7.115.68 9.146 1.21 6.95 1.763 28.692 8.772 31.927 9.817l-9.55-21.23c-4.51-1.438-15.526-5.02-24.481-8.496-4.895-1.847-12.434-3.257-22.396-4.202-.71-1.175-1.39-2.356-2.042-3.542l-1.83-.185.17-1.994.542.05c-1.427-2.743-2.719-5.499-3.872-8.245l-1.817-.36.385-1.963c.018.003.206.041.533.105-1.366-3.441-2.544-6.845-3.56-10.163l-2.034-.981.903-1.786c.011.005.137.069.356.176a162.53 162.53 0 0 1-1.558-5.873c-.723.051-1.141.102-1.162.105l-.259-1.983a22.96 22.96 0 0 1 .948-.097c-.67-2.858-1.244-5.589-1.736-8.13l-1.292-.09.115-1.998.791.052-1-5.565c-.097-.561-.207-1.127-.323-1.697l-1.471-.201.265-1.982.748.101c-.463-1.947-1.02-3.921-1.635-5.883l-1.593-.16.163-1.992.752.069a133.37 133.37 0 0 0-2.475-6.738c-.821.061-1.327.149-1.347.153l-.365-1.966c.064-.012.401-.071.926-.129-1.591-3.861-3.166-7.266-4.372-9.758l-3.687-3.079 1.177-1.615 2.489 1.667c3.399-.208 6.868-.375 10.383-.468l-.286-.639 1.832-.8c.012.027.238.542.641 1.394 2.502-.044 5.02-.051 7.545-.009l-.261-.55 1.801-.87.69 1.469c4.335.124 8.678.398 12.974.873l-.14-.685 1.958-.404c.005.022.105.511.271 1.339 4.314.546 8.57 1.301 12.711 2.322l-.011-.73 2.001-.022c0 .029.006.491.022 1.279 2.343.633 4.646 1.355 6.896 2.175l.029-.658 1.998.094a456.47 456.47 0 0 0-.058 1.308c3.706 1.467 7.261 3.213 10.61 5.287l.167-.661 1.938.495-.331 1.324c2.896 1.938 5.626 4.14 8.157 6.63l.065-.514 1.984.253-.271 2.088a54.03 54.03 0 0 1 3.58 4.279 99.43 99.43 0 0 0 4.629 5.735l.226-.594 1.152.463v-1.337c-1.439-1.662-2.903-3.46-4.401-5.463C289.608-.445 250.416-1.446 218.57.746zm90.255 122.259l-.081-.18.081.18h0z"/><path d="M307.575 103.711l-.078-4.187-8.017-15.572.008.205-1.998.089-.113-4.218-3.48-6.288.042.385-1.988.217-.527-4.856-2.5-4.042.104.345-1.892.576.097.145c6.425 9.941 16.307 29.16 27.344 51.868v-4.561l-5.011-10.159-1.991.053zm1.169 19.114l-24.432-52.793c-9.35-17.699-32.729-40.503-48.756-54.961 15.812 12.04 38.546 31.31 51.534 51.224l-1.761-6.048a128.71 128.71 0 0 0-2.712-3.569l-1.824.696c-.02-.052-.803-2.116-1.856-5.19-3.343-3.927-6.932-7.768-10.633-11.468l.068.162-1.836.793c-.074-.172-.804-1.874-1.747-4.399a270.44 270.44 0 0 0-5.798-5.401l-1.254 1.433c-.293-.256-5.625-4.966-8.276-9.706l-1.862-1.545-1.292 1.52c-2.415-2.054-4.723-4.94-6.759-7.952-7.933-6.159-14.49-10.744-17.879-13.05L219.18.904l-1.177 1.615 3.687 3.079c2.751 2.329 6.858 5.863 11.699 10.211 2.249.548 4.619 1.568 6.65 3.434l-1.311 1.426 7.009 6.592c2.652.911 4.969 2.048 6.349 3.46l-1.396 1.365 4.136 4.158c2.297.645 4.01 1.31 4.631 1.959l-1.421 1.36c2.761 2.896 5.47 5.842 8.054 8.794l3.119.904-.559 1.92c-.009-.002-.07-.021-.173-.05 3.566 4.214 6.826 8.406 9.566 12.444l2.139.633-.51 1.845c1.061 1.673 2.025 3.314 2.869 4.911l.312.603 1.874.323-.336 1.972c-.015-.002-.159-.027-.404-.069l3.86 7.96 1.868.332-.345 1.971c-.015-.002-.186-.033-.476-.084l5.424 11.721 2.248.822-.68 1.881-.401-.147 1.227 2.696 9.55 21.23 2.056 4.607 2.396 1.152-.884 1.795-.254-.124 2.171 4.875 2.164.779-.711 1.87-.329-.123 1.704 3.833v-4.925l-5.752-12.909-.079-.18zm2.412 109.348l-.409 1.958 2.54.561 1.289.297v-2.059l-3.036-.676-.384-.081zm-9.368-13.16l-.929 1.772 3.591 1.777c2.523 1.201 6.14 2.833 10.126 4.353v-2.161c-6.302-2.454-11.586-5.124-12.604-5.646l-.184-.095zm-8.516-12.907l-.211 1.989 1.915.243c3.501.481 11.334 1.73 19.6 4.188v-2.086c-9.659-2.815-18.596-4.008-20.786-4.274l-.518-.06zm-3.772-9.545l-.823 1.822 2.046.918c4.594 2.053 15.838 7.021 23.853 10.098v-2.144c-9.159-3.565-22.241-9.42-24.672-10.513l-.404-.181zm-2.694-11.136l-.642 1.894 1.563.521 26.312 8.771.537.173v-2.103l-27.324-9.108-.446-.148zm-1.454-9.458l-.646-.1-.295 1.979 1.349.211c3.631.582 14.023 2.334 24.156 4.867 1.511.378 3.076.832 4.66 1.335v-2.095c-1.417-.441-2.818-.842-4.176-1.182-10.988-2.746-22.272-4.581-25.048-5.015z"/><path d="M283.056 164.54l-.371-.156-.784 1.84 1.648.688c3.937 1.623 14.374 5.816 25.06 9.2l5.967 1.82v-2.085l-5.362-1.641c-12.125-3.841-23.938-8.735-26.158-9.666zm-2.025-9.11l-.483-.144-.582 1.912 1.59.467c2.867.828 9.43 2.655 18.069 4.649 4.452 1.07 9.911 2.894 14.951 4.735v-2.126c-4.912-1.779-10.163-3.514-14.493-4.555-10.006-2.309-17.199-4.39-19.052-4.938zm-3.644-13.865l-.314-.153-.885 1.794 1.941.934c4.573 2.167 16.112 7.427 23.336 8.89 4.16.843 9.071 2.015 13.11 3.022v-2.061c-3.968-.984-8.687-2.105-12.714-2.921-8.048-1.631-22.222-8.412-24.474-9.505zm-3.012-9.421l-.313-.087-.526 1.93 1.61.448 20.354 5.666c7.291 2.073 14.695 5.226 19.077 7.225v-2.195c-4.516-2.032-11.567-4.975-18.529-6.954l-21.673-6.033zm38.497 4.861l.329.123.711-1.87-2.164-.779c-3.667-1.273-11.191-3.672-16.49-3.929-6.268-.201-21.904-6.486-24.362-7.489l-.337-.138-.769 1.847 2.145.867c5.028 1.996 17.504 6.727 23.242 6.911 6.11.296 15.799 3.76 17.695 4.457zm-3.295-7.401l.254.124.884-1.795-2.396-1.152c-4.311-2.047-13.598-6.342-20.825-8.863-8.724-3.043-19.262-4.751-21.419-5.083l-.402-.061-.282 1.98 1.841.292c3.699.618 12.311 2.215 19.604 4.76 8.852 3.09 20.878 8.891 22.741 9.798zm-14.091-31.356l.401.147.68-1.881-2.248-.822-20.965-7.671c-9.984-3.706-23.753-5.167-26.68-5.446l-.542-.05-.17 1.994c.031.002.703.062 1.83.185 4.482.49 16.291 2.011 24.865 5.192l22.829 8.352zm-6.591-14.277l.476.084.345-1.971-1.868-.332c-4.24-.763-14.688-2.69-20.485-4.182-6.706-1.728-22.377-4.848-25.459-5.458l-.533-.105-.385 1.963 1.817.36 24.062 5.177c6.683 1.721 19.428 4.004 22.03 4.464zm-4.908-10.179l.404.069.336-1.972-1.874-.323c-4.629-.803-16.825-2.953-24.702-4.653-8.747-1.89-18.613-6.591-20.582-7.555l-.356-.176-.903 1.786c.112.057.848.426 2.034.981 3.702 1.732 11.829 5.288 19.386 6.92 9.021 1.948 23.664 4.478 26.257 4.923zm-27.414-16.569c10.171 5.312 22.948 8.877 23.076 8.913l.023-.083.51-1.845c-.031-.009-.82-.229-2.139-.633-4.031-1.236-13.024-4.197-20.546-8.124-8.82-4.607-18.862-4.202-21.959-3.94-.539.045-.873.087-.948.097l.259 1.983c.021-.003.439-.054 1.162-.105 3.222-.226 12.571-.436 20.562 3.737zm11.904-6.092l.173.05.559-1.92-3.119-.904-17.412-4.881c-5.208-1.35-12.816-1.961-15.261-2.131l-.791-.052-.115 1.998c.021.001.51.031 1.292.09 2.825.212 9.715.824 14.372 2.031 5.675 1.472 18.666 5.243 20.302 5.719zm-10.441-11.568l1.421-1.36c-.621-.649-2.334-1.314-4.631-1.959-6.864-1.928-18.986-3.67-23.19-4.243l-.748-.101-.265 1.982 1.471.201c10.355 1.437 24.438 3.956 25.919 5.503l.023-.023zm-7.346-7.478l1.396-1.365c-1.38-1.412-3.696-2.549-6.349-3.46-6.091-2.093-13.956-2.986-16.415-3.225l-.752-.069-.163 1.992c.031.003.625.053 1.593.16 4.442.489 16.915 2.173 20.656 6l.034-.033zm-12.004-11.371l.043-.046 1.311-1.426c-2.031-1.866-4.401-2.886-6.65-3.434-3.08-.751-5.917-.609-7.327-.453l-.926.129.365 1.966a14.52 14.52 0 0 1 1.347-.153c2.508-.187 7.993-.114 11.837 3.417zm7.621 2.857l1.292-1.52.003-.004c-6.007-5.108-11.531-16.111-13.363-19.992l-.641-1.394-1.832.8.286.639c.888 1.951 3.728 7.945 7.496 13.518 2.036 3.013 4.344 5.899 6.759 7.953zm3.154.026c2.651 4.74 7.983 9.45 8.276 9.706l1.254-1.433.063-.072c-2.434-2.131-8.807-8.542-9.063-12.564-.282-4.424-4.321-13.557-5.977-17.138l-.69-1.469-1.801.87c.008.015.103.213.261.55 1.171 2.492 5.926 12.851 6.211 17.315.085 1.33.655 2.784 1.466 4.235zm15.329 13.674l1.747 4.399 1.836-.793-.068-.162c-.574-1.359-4.631-11.153-5.866-19.078-1.069-6.869-2.717-15.218-3.36-18.418l-.271-1.339-1.958.404c.003.016.054.261.14.685.512 2.528 2.328 11.613 3.475 18.976.83 5.347 2.842 11.357 4.325 15.326zm14.147 14.913l1.856 5.19 1.824-.696.045-.017c-.051-.133-5.086-13.396-6.858-23.044-1.511-8.2-1.915-23.117-2.003-27.549l-.022-1.279-2.001.022.011.73c.062 3.634.416 19.58 2.048 28.437 1.105 6.012 3.44 13.365 5.1 18.206zm1.798-11.688c.711 5.404 2.966 13.966 4.595 19.751l1.761 6.048a2.25 2.25 0 0 1 .022.076l.022-.007 1.892-.576-.104-.345c-.729-2.429-5.183-17.437-6.205-25.206-.958-7.377-.264-26.144-.05-31.25l.058-1.308-1.998-.094-.029.658c-.176 3.962-1.004 24.24.036 32.253zm7.698.739l2.989 28.25.527 4.856 1.988-.217-.042-.385-3.471-32.675c-.371-4.912 3.463-20.92 4.627-25.633l.331-1.324-1.938-.495-.167.661c-.925 3.699-5.264 21.394-4.844 26.962zm8.943 38.793l.113 4.218 1.998-.089-.008-.205c-.078-1.99-.643-18.473 1.245-30.52 1.708-10.255 3.579-24.303 4.264-29.543l.271-2.088-1.984-.253c-.002.018-.025.196-.065.514l-4.459 31.053c-1.434 9.158-1.476 20.786-1.375 26.913zm16.047-46.718l-.226.594c-.98 2.68-4.796 14.188-5.396 32.368-.477 14.32-.396 26.976-.306 33.252l.078 4.187 1.99-.054h.01c-.005-.168-.446-17.085.226-37.319.507-15.349 3.415-26.031 4.775-30.259v-2.306l-1.151-.463zm-81.998 315.639l2.042 3.744 1.642 2.939 3.501 6.127c.914 1.582 1.695 3.327 2.379 5.193l1.211 3.852c1.159 4.295 1.885 9.112 2.315 14.27l.259 3.706h0c.229 4.008.316 8.174.316 12.427l-.17 11.976-.102 4.452-.013.572-.283 16.801.001.28.011 2.253.072 4.012c.276 10.33 1.332 19.487 4.258 26.348 6.876 15.945 26.309 40.457 44.419 60.836l5.803 6.44.243.268h0l1.442 1.573 6.646 7.102 1.526 1.595 5.533 5.676.099.1v-2.844l-5.889-6.088c-.643.065-1.272.143-1.878.242l-.326-1.973c.162-.027.332-.047.497-.071l-11.624-12.686-2.376-.208.149-1.994a35.29 35.29 0 0 1 .291.023l-5.261-6.034c-.718-.026-1.428-.041-2.123-.036l-.014-2c.131-.001.267.005.398.005-3.441-4.038-6.849-8.149-10.135-12.255l-2.205-.139.114-1.996.412.024-2.831-3.624-2.138-.18.165-1.994c.017.002.139.012.324.027-3.579-4.705-6.899-9.316-9.827-13.708l-1.827-.073.063-1.998c.018.001.166.006.413.015l-.698-1.083-1.377.221-.356-1.969a48.09 48.09 0 0 1 .577-.097c-2.659-4.298-4.854-8.315-6.394-11.884-.44-1.032-.835-2.125-1.191-3.268l-1.289.02-.043-2a98.14 98.14 0 0 1 .768-.013 56.78 56.78 0 0 1-1.067-5.084l-.957.069-.16-1.994.818-.062c-.499-3.636-.781-7.571-.928-11.72l-1.091-.164.295-1.977.736.111-.071-6.002.029-4.403-1.127-.335.569-1.918c.025.008.236.07.589.176l.223-10.293.029-1.287-1.294-.381.563-1.92c.029.009.312.092.778.229l.181-11.054-1.364-.693.923-1.775.465.238.004-.383c0-2.854-.039-5.673-.133-8.437l-1.264-.47.706-1.871c.017.007.186.07.47.176-.298-6.555-.951-12.736-2.215-18.228l-2.011-1.376 1.144-1.641c.009.006.051.035.115.08-.919-3.211-2.08-6.144-3.561-8.707l-6.382-11.327-3.344-2.431 1.187-1.611c-3.058-5.871-5.749-11.635-8.028-17.671-.714-.424-1.405-.806-2.064-1.126l.874-1.799c.049.023.101.053.149.077a123.03 123.03 0 0 1-1.277-3.849l-2.256-1.529 1.135-1.646.215.147a125.32 125.32 0 0 1-1.183-4.45l-1.642-.617.689-1.877a81.26 81.26 0 0 1 .399.148c-.703-3.111-1.313-6.353-1.825-9.758l-1.557-.646.746-1.855.482.197a159.14 159.14 0 0 1-.616-5.22l-1.353-.462.635-1.896c.019.006.194.065.483.164-.474-4.426-1.483-8.43-2.885-12.149l-1.711-.353.345-1.971a19.92 19.92 0 0 1 .468.09c-2.187-5.094-5.072-9.701-8.227-14.234-3.189-2.441-5.307-4.31-5.535-4.514l1.277-1.436c-2.509-3.459-5.037-6.971-7.443-10.729l-3.026-1.507.905-1.783c.007.004.058.029.13.065-1.743-2.933-3.388-6.045-4.882-9.41l-2.396-1.243.921-1.775.262.136c-1.027-2.574-1.96-5.302-2.779-8.212l-2.072-1.259.948-1.76a94.56 94.56 0 0 1 3.681 1.958l12.223.752-.271-.197 1.152-1.635a43.71 43.71 0 0 1 2.766 2.12l7.357.676-.316-.815 1.866-.724.687 1.771 5.471.629-.209-.598 1.896-.636.532 1.514c3.174.414 6.363.884 9.494 1.412l-.167-.288 1.722-1.017 1.005 1.752c2.521.458 4.98.957 7.345 1.5l-.076-.118 1.662-1.085c.015.023.462.714 1.163 1.867 4.13 1.05 7.88 2.249 10.966 3.622.578.259 1.148.529 1.713.808l-.125-.598 1.945-.41.456 2.211c2.848 1.587 5.514 3.408 8.02 5.356l-.026-.387 1.995-.156c.003.042.063.841.124 2.228 2.413 2.007 4.674 4.103 6.805 6.184l.025-.357 1.996.131-.153 2.073 1.104 1.113.11 8.202c0 16.593-1.204 32.028-1.707 37.749l1.953 2.293c5.423-11.53 8.873-25.872 10.899-36.569l2.823 2.693.087-.563 1.975.32-.286 1.854c2.075 1.846 4.354 3.72 6.835 5.512l.238-.71 1.896.641-.429 1.271a66.44 66.44 0 0 0 2.353 1.527c.002.001 1.146.683 2.467 1.469l.135-.695 1.965.373-.273 1.41 2.132 1.27 4.074 2.409.146-.712 1.963.385a82.88 82.88 0 0 1-.295 1.415l1.58.959v-2.341l-6.453-3.838-6.393-3.809c-6.753-4.176-12.347-9.439-16.465-13.559l-1.351-1.352-.341 1.879c-1.687 9.271-4.546 21.885-8.933 32.885.571-7.326 1.403-20.332 1.403-34.174l-.115-8.643-.013-.394-.274-.28c-6.662-6.765-14.62-14.362-24.771-18.901h-.002c-20.901-9.303-70.826-10.844-71.306-10.849l-1.29-.012.313 1.252c4.141 16.669 12.284 27.898 19.472 37.805 7.476 10.307 14.537 20.043 15.845 34.088 1.903 20.438 6.789 34.955 14.046 49.619 1.107 2.239 2.266 4.477 3.479 6.738z"/><path opacity=".5" fill="#fff" d="M273.346 300.571l-1.799 3.745.53-5.251c-22-25.942-43.997-44.725-61.056-57.302a269.75 269.75 0 0 1 8.774 7.71l.202.104-.028.055c6.691 6.135 13.156 12.649 19.401 19.481l.374.284-.054.069c4.881 5.355 9.63 10.898 14.245 16.604l.244.156-.052.08c23.339 28.9 43.327 61.862 60.446 94.645v-20.94c-5.22-8.899-10.634-17.637-16.239-26.062a374.97 374.97 0 0 0-24.988-33.378z"/><path d="M273.346 300.571l-1.269-1.506-.53 5.251 1.799-3.745z"/><path opacity=".5" fill="#fff" d="M273.346 300.571l-1.269-1.506-.53 5.251 1.799-3.745z"/><path d="M295.681 326.492l-4.204-5.925-.218.522-1.851-.76.692-1.658-4.619-6.16-.206.598-1.889-.656.633-1.84-3.177-4.038-.227.579-1.854-.75.63-1.644-5.101-6.182-1.953-2.293a375.21 375.21 0 0 0-8.569-9.66l-.275.622-1.826-.816.62-1.405-1.988-2.122-.147.572-1.932-.52.456-1.767-1.703-1.768-.112.433-1.918-.523.382-1.6-3.326-3.349.021.259-1.979.158-.232-2.576-6.819-6.502-.021.475-1.994-.162a18.29 18.29 0 0 0 .031-2.145l-5.826-5.219-1.631 1.088-3.499-5.503a349.76 349.76 0 0 0-12.938-10.412l.065.169-1.866.725-1.24-3.198-4.213-3.101.033.301-1.994.154c-.002-.027-.084-.861-.52-2.23-10.749-7.624-19.095-12.539-23.588-15.027-2.294-1.271-3.591-1.914-3.681-1.958l-.948 1.76 2.072 1.259c11.037 6.697 21.559 14.479 31.581 23.152l6.982 3.623a271.88 271.88 0 0 0-8.774-7.71c17.059 12.577 39.056 31.359 61.056 57.302l1.269 1.506a375.16 375.16 0 0 1 24.99 33.38c5.605 8.425 11.02 17.162 16.239 26.062v-1.233l-.297-.174c.006-.011.107-.186.297-.54v-1.991l-3.13-5.207-.079.396-1.963-.387.515-2.517-7.497-11.834-.144.456-1.908-.6.641-2.01-1.005-1.531-4.055-5.959-.369-.209c.034-.058.067-.12.1-.18zm-57.152-55.506l-.307-.232c3.656 4.012 7.236 8.131 10.742 12.347 2.529 1.438 4.329 2.563 4.973 2.972-4.615-5.706-9.364-11.249-14.245-16.604l-1.163 1.517zm-19.451-19.632l-.27-.14a298.35 298.35 0 0 1 12.615 12.296l7.948 5.604c-6.245-6.832-12.71-13.347-19.401-19.481l-.892 1.721zm34.017 36.556l-.393-.248a422.64 422.64 0 0 1 10.56 13.658l5.758 4.592-1.315 1.505c4.285 5.981 8.445 12.082 12.484 18.273l5.145 4.353-1.325 1.498-.129-.113 5.103 8.174c1.762.761 2.577.971 2.601.977l-.452 1.947a7.14 7.14 0 0 1-.448-.126l3.84 6.423 3.344 1.949-1.014 1.725-.28-.164 6.723 11.837 3.199 1.907-1.055 1.699-.231-.142 9.368 17.623v-4.304c-17.119-32.782-37.107-65.744-60.446-94.645l-1.037 1.602zm53.714 254.889l1.878-.242c1.828-.188 3.799-.238 5.889-.17v-2.005c-2.734-.083-5.283.029-7.596.373l-.497.071.326 1.973zm-13.829-14.938l2.376.208c3.523.332 10.655 1.09 19.22 2.45v-2.023c-10.987-1.734-19.552-2.476-21.155-2.605l-.291-.023-.15 1.993zm-6.943-8.041l2.123.036c8.152.292 17.617 2.486 26.416 4.699v-2.062c-9.411-2.36-19.548-4.66-28.154-4.669-.132 0-.268-.006-.398-.005l.013 2.001zm-11.955-14.388l2.205.139c5.927.392 22.806 1.627 38.289 3.9v-2.024c-17.645-2.571-36.969-3.805-39.968-3.986l-.412-.024-.114 1.995zm-4.443-5.776l2.138.18 42.799 4.265v-2.02c-15.328-1.941-41.327-4.131-44.447-4.392l-.324-.027-.166 1.994zm-11.165-15.748l1.827.073c6.138.271 26.636 1.362 44.698 4.562 2.887.511 6.129 1.143 9.576 1.853v-2.041l-9.228-1.78c-20.069-3.555-43.091-4.525-46.398-4.649l-.413-.015-.062 1.997zm-1.956-4.814l.356 1.969 1.377-.221c5.636-.847 27.818-3.634 50.578.9l5.746 1.109v-2.034l-5.354-1.036c-24.44-4.868-48.207-1.416-52.126-.784l-.577.097zm-8.34-17.229l.043 2 1.289-.02c5.521-.064 27.673-.145 44.414 2.387 5.433.815 12.822 2.147 20.651 3.644v-2.037l-20.354-3.587c-17.493-2.643-40.787-2.462-45.276-2.399l-.767.012zm-1.417-7.021l.16 1.994.957-.069c6.369-.442 43.026-2.651 60.584 3.638 1.979.709 4.03 1.373 6.113 1.997v-2.085a117.46 117.46 0 0 1-5.439-1.793c-18.309-6.562-55.41-4.191-61.557-3.743l-.818.061zm-1.338-24.551l1.127.335 59.672 18.46 8.354 2.688v-2.094l-7.725-2.49c-20.593-6.795-55.372-17.181-60.27-18.641l-.589-.176-.569 1.918zm.68-15.623l-.563 1.92 1.294.381 61.312 18.979 6.431 2.149v-2.115l-5.806-1.937c-24.309-8.034-56.564-17.578-61.889-19.147l-.779-.23zm-.405-11.518l1.364.693c6.308 3.179 33.394 16.474 54.155 21.139a375.28 375.28 0 0 1 13.358 3.263v-2.067c-3.927-1.03-8.243-2.094-12.919-3.146-21.739-4.886-50.604-19.393-54.571-21.418l-.465-.238-.922 1.774z"/><path d="M245.693 392.326l1.264.47c4.787 1.765 22.615 8.208 41.977 13.604 8.943 2.49 17.987 6.064 25.643 9.468v-2.184c-7.558-3.328-16.375-6.778-25.106-9.21-20.597-5.742-39.455-12.673-42.601-13.844l-.47-.176-.707 1.872zm-3.05-21.299l2.011 1.376c6.376 4.307 26.364 17.378 40.733 21.976 8.658 2.773 20.118 8.181 29.188 12.768v-2.239c-8.993-4.521-20.099-9.717-28.58-12.433-16.088-5.148-40.249-21.733-42.094-23.008l-.115-.08-1.143 1.64zm-12.027-24.025l3.344 2.431c9.388 6.777 35.968 25.615 49.293 31.435 9.613 4.265 22.572 11.91 31.323 17.294v-2.347c-8.769-5.367-21.186-12.639-30.517-16.777-15.783-6.894-51.797-33.309-52.251-33.643l-1.192 1.607zm-8.907-20.408l2.064 1.126c5.58 3.313 12.765 9.606 20.326 16.229 10.189 8.928 20.729 18.16 29.615 22.295 13.377 6.315 34.098 17.811 40.86 21.594v-2.289c-7.623-4.255-27.169-15.051-40.013-21.115-8.633-4.016-19.062-13.152-29.146-21.988-8.563-7.502-16.651-14.587-22.684-17.573-.049-.024-.101-.054-.149-.077l-.873 1.798zm84.785 39.482l-3.199-1.907c-5.466-3.188-17.442-9.886-32.039-16.282-19.014-8.331-48.033-28.064-50.706-29.892l-.215-.147-1.135 1.646 2.256 1.529c7.509 5.053 32.124 21.301 48.996 28.695 18.53 8.119 32.808 16.724 34.756 17.915l.231.142 1.055-1.699zm-9.922-13.744l.28.164 1.014-1.725-3.344-1.949-31.679-17.889c-18.103-9.938-40.793-18.527-44.029-19.734l-.399-.148-.689 1.877 1.642.617c5.822 2.211 26.082 10.121 42.512 19.145l34.692 19.642zm-12.693-20.904l.129.113 1.325-1.498-5.145-4.353c-6.374-5.246-17.561-13.967-27.115-18.894-13.061-6.737-33.884-13.924-37.264-15.074l-.483-.164-.635 1.896 1.353.462c5.159 1.776 24.023 8.419 36.113 14.657 13.398 6.91 30.155 21.48 31.722 22.855zm6.803 10.971l.448.126.452-1.947c-.023-.006-.839-.216-2.601-.977-3.64-1.571-11.338-5.508-24.57-14.949-18.602-13.27-44.002-23.969-47.751-25.516l-.482-.197-.746 1.855 1.557.646c6.115 2.574 29.123 12.612 46.261 24.84 17.63 12.58 25.546 15.536 27.432 16.119zm-22.978-34.981h0l1.316-1.506-5.758-4.592c-5.211-3.931-13.478-9.646-22.783-14.133-14.038-6.766-25.997-9.359-28.452-9.848l-.468-.09-.345 1.971c.027.005.634.114 1.711.353 3.996.884 14.538 3.562 26.685 9.417 15.431 7.438 27.97 18.319 28.094 18.428zm-15.001-19.756l.393.248 1.034-1.602.052-.08-.244-.156-4.973-2.972c-5.426-3.086-14.208-7.607-22.157-9.577-11.96-2.963-27.063-16.293-27.213-16.426l-.052.059-1.277 1.436c.229.204 2.346 2.072 5.535 4.514 5.621 4.303 14.589 10.395 22.525 12.359 10.935 2.711 23.97 10.688 26.377 12.197zm-14.481-16.908l.307.232 1.163-1.519.054-.069-.374-.284-7.948-5.604c-4.824-3.2-10.952-6.893-16.173-8.865-9.552-3.608-23.697-10.713-25.143-11.442l-.13-.065-.905 1.783 3.026 1.507c4.971 2.448 15.053 7.296 22.444 10.089 9.129 3.447 21.601 12.673 23.679 14.237zm-19.144-19.4l.892-1.721.029-.055-.203-.104-6.982-3.623-28.802-14.941-.262-.136-.92 1.776 2.396 1.242 33.582 17.422zm26.778 189.568l-.295 1.977 1.091.164 50.78 7.648c3.834.59 10.142 2.153 17.144 4.068v-2.08c-6.837-1.858-12.998-3.373-16.839-3.963l-51.145-7.703-.736-.111zm33.537-136.161l-.63 1.644 1.854.75.227-.579c.973-2.517 4.795-12.804 6.179-22.308l2.769-17.952.286-1.854-1.975-.32-.087.563-2.973 19.275c-1.206 8.274-4.311 17.184-5.65 20.781zm4.627 5.852l-.633 1.84 1.889.656.206-.598c.812-2.353 3.836-11.19 5.586-17.119 1.686-5.708 5.906-18.326 7.263-22.363l.429-1.271-1.896-.641-.238.71-7.476 22.999c-1.508 5.108-3.976 12.411-5.13 15.787zm6.081 8.059l-.692 1.658 1.851.76.218-.522 6.349-15.21c2.749-6.378 6.167-23.226 7.15-28.244l.273-1.41-1.965-.373-.135.695c-.736 3.78-4.382 22.088-7.163 28.545-.002.002-4.199 10.058-5.886 14.101zm21.227-38.592l-.146.712c-.938 4.5-6.44 29.579-15.501 45.7l-.1.182.369.209 1.371.775c8.87-15.667 14.382-39.733 15.674-45.778l.295-1.415-1.962-.385zm-10.958 56.303l1.908.6.144-.456c.882-2.78 5.629-17.62 8.765-24.696.963-2.175 2.16-5.138 3.39-8.289v-5.568c-1.813 4.779-3.781 9.804-5.218 13.049-2.786 6.287-6.804 18.544-8.348 23.352l-.641 2.008zm9.034 14.494l1.963.387.079-.396a371.28 371.28 0 0 1 3.13-13.947v-7.986c-2.109 7.609-3.835 15.497-4.657 19.427l-.515 2.515zm5.172 7.902v-.714l-.297.54.297.174zm-52.287-73.753l-.62 1.405 1.826.816.275-.622a418.87 418.87 0 0 0 4.954-11.757c2.352-5.741 3.679-20.223 4.107-25.647l.153-2.073-1.996-.131-.025.357c-.194 2.715-1.554 20.545-4.093 26.742l-4.581 10.91zm-3.612-3.836l-.456 1.767 1.932.52.147-.572c4.471-16.977 4.138-35.445 3.858-41.713l-.124-2.228-1.995.156.026.387c.192 2.979 1.248 23.058-3.388 41.683zm-3.351-3.458l-.382 1.6 1.918.523.112-.433c.494-1.956 2.433-10.346 1.617-18.728-.72-7.378-3.453-21.186-4.545-26.544l-.456-2.211-1.945.41.125.598c.688 3.317 4.041 19.721 4.843 27.94.661 6.791-.613 13.785-1.287 16.845zm-5.517-5.507l.232 2.576 1.979-.158-.021-.259c-.216-2.616-2.002-23.132-5.375-31.28-2.496-6.022-5.807-11.745-7.533-14.585l-1.163-1.867-1.662 1.085c.003.005.031.048.076.118.635.989 5.24 8.265 8.448 16.008 2.719 6.571 4.429 22.193 5.019 28.362zm-8.834-6.19l1.994.162.021-.475c.671-12.261-10.506-33.174-13.992-39.369l-1.005-1.752-1.722 1.017.167.288c1.569 2.717 14.108 24.835 14.568 37.985.027.742.025 1.464-.031 2.144zm-7.426-6.275l1.631-1.088.032-.021c-.133-.198-12.903-19.436-18.269-34.156l-.532-1.514-1.896.636.209.598c3.565 10.266 10.938 22.936 15.325 30.042l3.5 5.503zm-18.237-15.022l1.866-.724-.065-.169-7.859-20.26-.686-1.771-1.866.724.316.815 7.054 18.187zm-7.934-8.074c.436 1.37.518 2.204.52 2.23l1.994-.154-.033-.301c-.207-1.545-1.603-8.619-10.198-15.762a43.71 43.71 0 0 0-2.766-2.12l-1.152 1.635c.093.065.179.131.271.197 7.633 5.467 10.39 11.214 11.364 14.275z"/></svg>