<svg xmlns="http://www.w3.org/2000/svg" width="340.291" height="656.619" overflow="visible" xmlns:v="https://vecta.io/nano"><path d="M0 602.375v2.003c6.413.326 20.254.847 32.734.091l2.83-2.201c-13.114 1.047-28.722.458-35.564.107zm0-2.278l.797-1.054L0 600.056v.041zm30.761-103.088l1.974-.326.065.414 2.449-2.159-2.864-.151-2.546 2.41.979.181-.057-.369zm28.39-15.933l-.017.335h-.005l.017-.335z"/><path d="M104.081 454.487l-.023.188h0l6.323-5.321-.204-1.785h.001v-.001l1.983-.258a19.1 19.1 0 0 1 .042.339h0l1.239-1.159c.673 3.267 1.133 6.439 1.232 8.729l.008 1.16c0 7.797-.87 27.41-1.023 30.794l2.078-1.708.944-29.116-.008-1.189c-.123-2.83-.736-6.866-1.641-10.826l-.405-1.772-1.28 1.292c-15.11 15.249-35.757 26.135-52.133 34.295l-.66 2.559 5.993-3.008.227-1.77 1.981.271-.052.395 5.997-3.148.03-1.566 1.999.06v.002h0c0 .01-.004.149-.01.404 3.194-1.747 6.432-3.595 9.671-5.553v-.001l.364-1.996 1.964.377v.001h0l-.042.223c1.943-1.209 3.876-2.465 5.795-3.756v-.002-1.733-.002h2v.002.384.002c1.819-1.261 3.609-2.573 5.378-3.915l.246-2.134h.001v-.001l1.985.243zm98.916-75.612l2.992 9.268.718-.592 1.255 1.557-.001.001.001.001-1.344 1.132 1.888 6.85.601-.514 1.311 1.513-.002.002-1.362 1.153c.99 4.047 1.837 8.141 2.491 12.24l.766-.385.903 1.785-.001.001v.001a238.37 238.37 0 0 1-1.359.681c.58 4.06.955 8.117 1.066 12.139l.835-.243.554 1.923h-.002v.002c-.029.007-.52.149-1.35.396l.008.428c0 2.155-.09 4.295-.258 6.416l.761-.173.438 1.951h-.002v.002l-1.394.319c-.409 3.782-1.104 7.499-2.157 11.107l.776-.016.033 2h0v.003c-.033 0-.56.01-1.444.031h-.001c-1.042 3.139-2.36 6.19-3.991 9.135l.545-.077v.003h0l.281 1.98-2.117.297c-.941 1.514-1.963 2.998-3.084 4.445-1.533 1.972-2.877 3.854-4.091 5.675l.72.063-.001.005h.001l-.221 1.987c-.027-.003-.632-.064-1.753-.118-1.829 2.912-3.292 5.648-4.493 8.257l.551-.084.297 1.979h-.001l.001.003-1.805.28c-.838 1.987-1.541 3.909-2.16 5.783l.684-.173.496 1.938v.003l-1.891.47c-.568 1.856-1.077 3.677-1.58 5.483l-1.5 5.214.83.021-.068 1.998h-.001v.004l-1.394-.029h0c-.865 2.623-1.889 5.278-3.242 8.043.688.182 1.021.337 1.078.365v.002.001l-.882 1.795c-.014-.007-.354-.156-1.136-.327-1.529 2.852-3.447 5.835-5.93 9.028l.606.015v.002h0l-.065 1.998c-.032-.001-.801-.023-2.131-.033l-1.36 1.611c-2.028 2.354-3.984 4.967-5.895 7.771l.591-.034.109 1.996h0v.003l-2.089.126-1.103 1.737c.909-.201 1.818-.385 2.727-.557 2.319-3.569 4.693-6.857 7.171-9.734 10.465-12.014 12.964-20.984 15.609-30.479 2.498-8.968 5.08-18.238 14.898-30.863 20.154-26.01 11.102-62.595.963-91.563l-.511-1.457-1.122 1.062c-.15.143-15.162 14.278-28.137 20.37-11.242 5.335-30.051 14.26-45.095 30.233l-.346.367.089.496c.958 5.315 1.985 12.378 1.985 18.243a38.83 38.83 0 0 1-.148 3.537c-1.03 10.517-1.606 23.807-1.714 26.445l2.076-1.726c.213-4.679.76-15.618 1.632-24.526.108-1.163.156-2.408.156-3.707 0-5.851-.98-12.752-1.927-18.091.941-.99 1.899-1.95 2.869-2.887h0l-.307-1.779h.001v-.001l1.965-.373.096.521a107.42 107.42 0 0 1 6.6-5.607l-.134-1.929h0v-.001l1.995-.141c.001.019.017.244.043.622a127.93 127.93 0 0 1 8.288-5.714l.428-2.312h0v-.002l1.959.402a44.02 44.02 0 0 0-.093.478c1.725-1.05 3.422-2.032 5.084-2.961-.25-.71-.417-1.115-.426-1.136l.001-.001v-.001l1.84-.782c.03.071.167.398.367.941a205.35 205.35 0 0 1 6.9-3.582l-.278-1.373h.001v-.002l1.955-.42.183.881 4.811-2.307c.516-.24 1.033-.507 1.551-.771l-.092-.694-.108-.803h0l1.981-.273.104.771c1.67-.921 3.343-1.922 4.988-2.984l-.256-1.503h.002v-.002l1.965-.371.119.663a127.87 127.87 0 0 0 5.639-4.045c-.264-.729-.473-1.168-.48-1.186l.002-.001v-.001l1.795-.883c.026.057.164.344.346.794 3.045-2.37 5.678-4.595 7.619-6.294l1.994-4.388 1.869.702v.006c-.022.079-.369 1.166-1.018 3.059zM43.646 596.68c-17.832 2.401-35.619 1.052-41.304.503-.508.584-1.022 1.208-1.54 1.852 3.262.355 20.631 2.049 39.044.118l.896-.623a80.15 80.15 0 0 1 2.904-1.85zM3.527 578.653l1.751-1.546-1.621-9.816-1.545 3.178 1.415 8.184zm5.501-4.826l1.974-1.711c-.036-3.76.036-11.6.984-19.112-.832 1.17-1.63 2.361-2.396 3.573-.701 7.77-.61 15.098-.562 17.25zm12.264-32l-.076.311h-.003l.076-.311zm-3.95 24.85l2.321-1.976c.667-4.639 1.836-14.067 1.673-22.094-.682.582-1.34 1.186-1.985 1.8-.039 9.184-1.616 19.784-2.009 22.27zm10.948-9.251l2.245-1.883 2.433-21.731a64.2 64.2 0 0 1-2.197 1.826l-2.481 21.788zm4.51-60.329l-.065-.414-1.974.326.057.368 2.069.319-.087-.599zm6.723 1.342l.505-3.358-2.019-.044-.484 3.21 1.998.192zm-4.034 33.048c1.075 7.176 2.827 16.001 3.095 17.345l1.751-1.454c-.606-3.088-2.199-11.398-3.081-17.664a64.16 64.16 0 0 1-1.765 1.773zm11.173 10.649l1.958-1.617c-.128-5.059-.389-18.06.046-26.841-.691 1.298-1.406 2.555-2.142 3.777-.259 9.715.059 21.929.138 24.681zm.192-28.126h0l.815.202.482-1.941-.482 1.94-.815-.201zm.642-14.952l1.996.13.238-4.15-2.005.039-.229 3.981zm10.334-13.367l.02 1.998-.56.006.566-.004-.026-2zm.625 20.304c.312 11.274-2.759 26.683-3.257 29.098l2.431-2.001c1.019-5.397 3.087-17.677 2.825-27.151-.21-7.554-.847-15.139-1.316-19.942l-1.534 5.268c.357 4.305.707 9.526.851 14.728z"/><path d="M58.402 483.037h0l.437.022-.437-.022zm8.373-7.108l-.227 1.77c-.51 4.115-1.73 14.807-2.091 25.462a277.47 277.47 0 0 0 .075 24.258l1.929-1.582a278.11 278.11 0 0 1-.006-22.6c.412-12.139 1.946-24.327 2.249-26.643l.052-.395-1.981-.27zm7.956-4.05l-.03 1.564c-.043 2.862-.078 9.44.261 18.016.377 9.551-1.46 24.383-2.092 29.12l2.255-1.848c.774-6.164 2.173-18.804 1.835-27.351-.396-10.022-.278-17.295-.24-19.038l.01-.402v-.002l-1.999-.059zm12.024-7.084l-.364 1.996v.001c-.837 4.753-2.775 16.786-2.308 23.886.493 7.473.649 17.501.683 20.163l1.977-1.617c-.063-3.942-.24-12.244-.664-18.677-.527-8.008 2.224-23.143 2.598-25.152l.042-.222v-.001l-1.964-.377zm9.717-4.89v-.002h-2v.002 1.733.002 20.197c0 10.115-2.086 20.902-2.543 23.144l2.413-1.975c.784-4.327 2.13-12.957 2.13-21.168V460.29v-.002-.383zm6.784 19.401c-1.369-5.994.573-22.712.802-24.631h0l.023-.188-1.984-.246v.001l-.246 2.134c-.56 5.118-1.777 17.979-.545 23.377 1.263 5.535.579 14.878.377 17.244l2.141-1.755c.255-3.81.536-11.095-.568-15.936zm8.905-31.996l-1.983.258v.001l.204 1.784c.381 3.597 1.117 11.998.598 19.255-.623 8.823-2.874 21.29-3.272 23.45l2.382-1.954c.801-4.575 2.376-14.148 2.885-21.354.626-8.759-.534-19.114-.772-21.102h0l-.042-.338zm21.538-23.65h0c.708 4.316 2.335 15.644 1.528 24.264l-2.028 23.099 2.167-1.809 1.853-21.104c.944-10.077-1.263-23.271-1.766-26.08l-.096-.521-1.964.373h-.001c.006.028.127.681.307 1.778zm8.355-7.24l1.364 23.545c.099 6.465 1.15 18.177 1.434 21.244l1.863-1.598c-.387-4.306-1.211-14.038-1.298-19.692-.204-6.67-1.235-21.726-1.459-24.946l-.043-.622-1.995.141h0l.134 1.928zm10.192-7.162c-.676 3.938-1.868 12.206-1.438 19.533.514 8.713 1.766 22.568 2.031 25.464l1.855-1.687-1.889-23.895c-.497-8.472 1.301-18.57 1.735-20.848l.093-.478-1.958-.402h0c-.026.126-.198.968-.429 2.313zm7.379-4.394h0c1.06 3.012 3.589 11.549 1.71 19.962-2.194 10.312-2.428 22.29-2.446 23.532.688-.749 1.377-1.527 2.066-2.331.158-4.181.675-12.978 2.334-20.774 2.077-9.299-.81-18.45-1.884-21.365-.2-.543-.337-.87-.367-.941l-1.838.781-.001.001a21.95 21.95 0 0 1 .426 1.135zm8.683-4.561c.542 2.757 1.692 9.108 1.777 13.675.105 5.628-.084 18.387-.112 20.184l2.043-3.024.069-17.196c-.096-5.108-1.425-12.11-1.918-14.55l-.183-.881-1.954.42h-.001a71.09 71.09 0 0 1 .279 1.372zm8.13-4.685l.093.696c1.505 11.451 2.434 23.702 1.438 25.32l.03.02 2.354-3.968c.043-6.866-1.397-18.316-1.939-22.372l-.104-.771-1.981.271h0l.109.804zm6.965-3.289h0c.677 4.23 2.291 16.234-.361 20.655l.007.004 3.38-6.117c.353-6.161-.807-13.511-1.197-15.753l-.119-.663-1.963.371h-.002c.005.029.109.587.255 1.503zm7.469-5.258h0c.799 2.223 2.098 7.187-.107 11.6l3.221-6.354c-.143-2.896-.969-5.323-1.452-6.52-.181-.451-.318-.738-.347-.794l-1.793.881-.002.001c.007.018.216.456.48 1.186zm15.746 3.17h0l1.344-1.132-.001-.001-1.254-1.556-.717.592c-1.751 1.468-6.331 5.449-10.354 10.151a346.17 346.17 0 0 1-3.971 9.24l.067.031c3.124-6.78 11.587-14.485 14.886-17.325zm-11.781 18.66c3.961-1.314 11.2-7.138 14.214-9.654l1.364-1.155h0l-1.311-1.513a58.94 58.94 0 0 1-.601.514c-2.256 1.906-10.34 8.598-14.299 9.912-1.102.366-2.198 1.13-3.246 2.104a302.85 302.85 0 0 1-4.835 10.165c1.79-3.35 5.517-9.306 8.714-10.373zm17.016 4.668l1.359-.682v-.001l-.902-1.784-.767.385c-2.401 1.204-10.136 5.048-16.618 7.906-4.65 2.082-9.588 5.375-12.89 7.751l-2.384 4.289c1.307-1.028 9.174-7.118 16.086-10.212 6.056-2.671 13.196-6.195 16.116-7.652zm1.102 14.215l1.351-.396v-.002l-.553-1.92-.835.242c-3.628 1.065-17.985 5.371-25.752 9.051-5.117 2.456-11.108 6.297-15.171 9.04a147.74 147.74 0 0 1-3.386 4.788c1.402-1.011 11.509-8.228 19.417-12.023 7.2-3.41 20.646-7.508 24.929-8.78zm-.446 8.943l1.395-.319v-.002l-.438-1.949-.761.174c-4.067.926-22.742 5.258-29.657 8.189-4.782 2.031-12.174 6.317-17.155 9.314-1.307 1.645-2.635 3.232-3.989 4.747l-.096.104c1.327-.831 14.898-9.299 22.022-12.324 6.367-2.702 23.655-6.777 28.679-7.934zm-2.156 11.111c-3.922.084-21.113.55-26.1 2.354-3.945 1.43-18.019 6.991-25.328 9.89l-3.458 3.524 29.468-11.533c4.4-1.594 19.948-2.1 24.782-2.22h.001l1.444-.031v-.003l-.033-1.997-.776.016zm-34.526 14.997c-8.823.973-19.585 3.885-25.251 5.546l-3.24 3.074c1.153-.368 16.778-5.315 28.71-6.633 9.92-1.092 23.271-2.92 28.386-3.632l2.12-.297-.281-1.98h0l-.545.077-29.899 3.845zm-9.932 11.678a627.11 627.11 0 0 0-30.65 8.056l-3.462 3.11c.17-.052 15.669-4.777 34.568-9.22 14.773-3.446 25.596-3.399 29.652-3.211 1.124.054 1.729.115 1.756.118l.221-1.987h-.001a21.81 21.81 0 0 0-.718-.064c-2.938-.224-14.505-.735-31.366 3.198zm-12.029 16.037c16.234-3.546 31.565-6.059 36.688-6.866l1.807-.28-.001-.003-.296-1.976-.551.084c-3.216.497-20.095 3.16-38.074 7.088-15.25 3.33-27.337 5.545-32.176 6.402l-2.057 1.803.096.569c.145-.023 14.684-2.48 34.564-6.821zm34.53-1.08c-3.482.868-19.94 4.887-36.396 7.428-14.943 2.2-35.395 6.995-43.069 8.848l-2.689 2.325.092.367c.272-.067 27.414-6.831 45.965-9.563 15.096-2.33 30.192-5.897 35.384-7.17l1.893-.47-.001-.003-.495-1.935c-.02.006-.265.067-.684.173zm-81.488 30.534c9.766-1.221 28.248-6.76 42.23-11.708 10.925-3.967 29.623-3.979 34.833-3.899h0l1.394.029v-.004l.067-1.994-.828-.022c-4.362-.1-24.293-.292-36.143 4.008-13.874 4.91-32.186 10.405-41.804 11.606-6.042.756-13.601 3.614-18.895 5.888l-5.591 4.757.008.017c.15-.076 14.86-7.442 24.729-8.678zm41.904-4.738l-69.431 15.769-3.304 2.803 73.185-16.621c19.294-4.434 27.73-3.552 30.526-2.94.783.171 1.124.32 1.138.327l.882-1.795v-.001c-.06-.028-.391-.185-1.078-.364-2.764-.73-11.362-1.9-31.918 2.822zm-20.905 16.571c5.712-1.925 11.107-3.741 18.159-4.794 11.07-1.658 21.779-1.787 26.204-1.758l2.132.033.065-1.998h0c-.016-.001-.229-.007-.606-.015-2.829-.058-15.217-.169-28.089 1.758-7.227 1.079-12.704 2.924-18.502 4.877-5.91 1.99-12.021 4.049-20.286 5.282-12.628 1.881-32.755 5.605-41.005 7.155l-3.103 2.619 44.403-7.797c8.438-1.256 14.635-3.343 20.628-5.362zm-46.899 21.519c7.239-1.46 16.378-4.16 25.217-6.771 8.137-2.403 15.823-4.675 21.776-5.93 10.273-2.169 29.324-3.499 35.623-3.896l2.091-.126v-.003l-.109-1.993-.591.034c-3.854.227-25.97 1.607-37.426 4.025-6.031 1.271-13.754 3.554-21.93 5.97-8.797 2.599-17.894 5.284-25.046 6.728-10.257 2.066-21.752 1.517-26.672 1.135l-2.157 1.818c2.852.286 16.89 1.493 29.224-.991zm34.721-1.494c-7.007 1.935-14.253 3.935-25.553 5.057l-46.112 3.934-2.613 2.202 48.923-4.146c11.47-1.14 18.799-3.162 25.888-5.118 6.066-1.675 11.796-3.256 19.978-4.352l1.172-.158c1.301-.918 2.62-1.77 3.951-2.567l-5.388.743c-8.317 1.112-14.381 2.786-20.246 4.405zm-13.764 11.633c-13.906 3.101-31.213 6.958-39.059 7.043-8.274.094-23.971-.106-30.098-.192l-2.326 1.966 32.446.228c8.054-.088 24.746-3.809 39.472-7.091l12.554-2.742c2.758-.573 5.749-.929 8.784-1.146a59.31 59.31 0 0 0 2.277-2.146c-3.92.188-7.862.584-11.468 1.332l-12.582 2.748zm-30.007 16.087c-6.558 1.704-12.752 3.313-21.397 4.354-14.263 1.714-26.938-.821-31.499-1.922l-1.857 1.591c2.85.767 17.204 4.286 33.595 2.317 8.778-1.058 15.036-2.684 21.661-4.404 6.925-1.8 14.089-3.657 24.786-5.023 2.345-.859 4.648-1.774 6.907-2.759l-5.917.616c-11.525 1.396-19.026 3.344-26.279 5.23zM7.367 592.191l-1.953 1.782-.378.366c1.805-.121 14.038-.906 26.709-.906 4.75 0 12.716-.826 21.728-1.936 2.271-1.036 4.569-1.995 6.887-2.89-11.769 1.528-22.749 2.825-28.614 2.825-10.04.001-19.802.491-24.379.759zM0 609.366v2.004c6.36.396 15.628.75 24.385.267l2.409-2.162c-9.418.717-19.877.325-26.794-.109zm0 5.083v2.034c6.276 1.204 14.812 2.512 23.867 2.936l.055-1.999c-9.112-.428-17.698-1.764-23.922-2.971zm0 13.553v2.013l5.612.46 1.777-1.896L0 628.002zm23.37 3.066l.104-2-6.619-.099.351 2.01 6.164.089zm-4.323 12.145l3.576-.386.144-2.028-3.943.427.223 1.987zM0 640.892v2.036l.741.136-.248-2.079-.493-.093zm0 6.495v2.037l1.521.174-.246-2.063L0 647.387zm19.509 1.586l.114 2.013 2.361.047.164-2.004-2.639-.056zm.981 7.646h1.006l.009-.102-1.015.102z"/><path opacity=".5" fill="#fff" d="M4.053 592.508c6.507-6.05 22.694-19.686 43.186-36.948 40.608-34.209 96.223-81.062 113.174-100.017 15.01-16.783 26.979-42.233 34.178-59.978-9.336 18.489-24.241 45.209-38.178 58.142-9.979 9.267-37.439 31.733-66.511 55.52L0 584.524v12.334c1.383-1.663 2.736-3.125 4.053-4.35z"/><path d="M5.036 594.339l.378-.366 1.953-1.782c2.477-2.229 5.808-5.129 9.837-8.587l1.857-1.591 11.421-9.703 2.326-1.966 8.643-7.291 2.613-2.202 4.464-3.761 3.255-2.742 2.157-1.818 8.93-7.528 3.105-2.621 10.101-8.543 3.304-2.803 2.792-2.37 5.59-4.756 18.479-15.838 2.689-2.325 10.274-8.942 2.056-1.802 10.521-9.322 3.462-3.11 12.09-11.111 3.24-3.075 4.892-4.775 3.458-3.524 2.879-3.092.101-.11c1.354-1.516 2.682-3.103 3.986-4.743.921-1.159 1.825-2.341 2.717-3.548a148.17 148.17 0 0 0 3.386-4.789c2.693-3.978 5.248-8.14 7.656-12.364l2.384-4.289c1.417-2.614 2.773-5.232 4.069-7.829.008-.016.014-.03.021-.046 1.721-3.448 3.335-6.857 4.832-10.159l.708-1.573 3.971-9.241c3.549-8.596 6.061-15.625 7.361-19.42l1.021-3.059h-.002l-1.867-.702a301.98 301.98 0 0 1-1.996 4.389l-6.166 12.813-3.221 6.354-4.334 8.2-3.381 6.117-2.695 4.699-2.354 3.968c-1.94 3.221-3.942 6.404-5.983 9.481l-2.042 3.025c-2.966 4.309-5.994 8.337-9.018 11.864-.689.805-1.378 1.582-2.066 2.331-1.285 1.399-2.565 2.702-3.838 3.883l-.357.328-1.855 1.687-6.125 5.356-1.863 1.598-9.486 8.004-2.167 1.809-2.227 1.854-2.076 1.725-13.158 10.863-2.078 1.708-3.57 2.93-2.382 1.954-3.884 3.184-2.141 1.755-7.341 6.011-2.413 1.975-3.294 2.695-1.892 1.548-1.977 1.617-9.641 7.892-2.255 1.848-6.409 5.256-1.929 1.583-6.903 5.673-2.431 2.001-6.579 5.427-1.958 1.617-6.326 5.241-1.751 1.455-8.049 6.712-2.245 1.882-8.626 7.275-2.321 1.976-6.34 5.438-1.974 1.711-3.75 3.28-1.75 1.546L0 581.823v2.706c17.87-16.363 55.973-47.538 89.902-75.297l66.511-55.52c13.937-12.933 28.842-39.652 38.178-58.142.004-.007.008-.015.012-.022-7.197 17.744-19.172 43.211-34.188 60.003-16.951 18.955-72.566 65.807-113.174 100.016L4.054 592.513c-1.317 1.225-2.67 2.687-4.053 4.35v3.197l.797-1.012a61.37 61.37 0 0 1 1.546-1.861c.914-1.057 1.811-2.002 2.692-2.848z"/><path opacity=".5" d="M145.57 330.256l.205.146 1.216-5.733c-3.007 3.503-9.181 10.055-16.052 13.617l-.661 3.467a9.01 9.01 0 0 0-.135 1.581c0 2.123.684 4.472 1.831 6.932 1.379-1.642 4.004-4.897 5.199-7.289 1.748-3.495 8.125-12.347 8.397-12.721zm-14.144 5.477c1.591-.938 3.142-2.033 4.611-3.196 6.368-5.04 11.217-11.339 11.279-11.423l.394.301.001.001 1.242-5.429-15.379 8.554-1.601 8.325-.547 2.867zm8.824 17.955c.807-.81 2.473-6.244 3.632-11.077-.017-1.502.398-4.38 1.074-8.024-2.062 2.951-4.953 7.205-5.993 9.285-1.497 2.994-4.883 7.026-6.007 8.33 1.118 2.032 2.512 4.119 4.083 6.204.674-1.186 1.679-2.854 2.589-4a8.09 8.09 0 0 1 .622-.718zm12.44-53.24l-16.814 5.367h0 .001l.004.125c0 2.293-.214 4.915-.566 7.747 5.482-4.935 14.087-7.428 16.079-7.956l1.296-5.283zm-1.838 7.521c-2.538.759-7.982 2.618-12.264 5.666-1.427 1.016-2.725 2.163-3.743 3.446l-.81 4.914 15.534-8.641 1.283-5.385zm2.701-10.978l-.205.005c-6.001.099-11.953.653-16.848 2.01-.542.15-1.083.303-1.598.474.481 1.134.763 2.579.891 4.264l17.464-5.575.296-1.178zm-9.06 51.132h0l-.312 1.046-.016.052c-.563 1.84-1.192 3.645-1.796 4.817-.242.47-.479.838-.706 1.065-.981.979-2.491 3.56-3.295 5.021h0l4.627 5.386c1.41-3.055 2.375-9.047 2.698-11.705-.479-1.86-.886-3.758-1.2-5.682zm15.151-37.208l-.981 3.548c1.321 1.315 5.934 5.883 8.938 8.598 2.795 2.529 8.209 5.524 10.438 6.71h0v-.001c1.284-2.994 2.446-6.014 3.403-8.98-.836-.139-2.04-.363-3.452-.683-5.365-1.216-13.91-3.888-18.346-9.192zm-14.77 55.282l-.429.867c4.346 4.589 8.832 8.699 12.136 11.585-2.889-4.701-6.819-11.944-9.562-20.312-.469 2.583-1.18 5.693-2.145 7.86zm17.021-26.168c-3.559-3.015-6.613-6.339-8.306-8.282l-1.437 5.065h0c1.295 2.645 7.294 14.815 11.17 21.377l2.688-4.861.864-1.546 1.499-2.697c-.477-1.282-2.27-5.49-6.478-9.056zm-10.517-.255l-.554 2.467c-.049.236-.085.49-.115.756-.815 7.422 5.855 26.069 9.341 35.175h0v-.001h0c.072-5.003.35-12.094 1.292-15.721.136-.521.446-1.253.899-2.178h0c-3.293-5.359-8.47-15.661-10.863-20.498zm4.83-12.352l-.931-1.388-1.014 3.42v-.001c1.281 1.521 4.801 5.555 8.926 9.05a25 25 0 0 1 6.411 8.343v-.001l2.754-5.177-1.385-.895c-3.567-2.362-10.506-7.398-14.761-13.351zm10.05-2.878c-2.588-2.342-6.344-6.027-8.222-7.886l-1.969 6.716v-.001.001c3.836 7.565 14.009 14.466 17.208 16.505.014-.027.027-.057.041-.084a183.87 183.87 0 0 0 3.656-7.626l.26-.561c-2.219-1.172-7.929-4.309-10.974-7.064zm-5.959-16.117c4.571 7.154 18.053 9.82 21.741 10.426v-.001h-.001c.561-1.911 1.021-3.788 1.361-5.614-5.674-2.866-17.581-9.635-21.476-11.862-.407 2.113-.967 4.499-1.625 7.051zm1.986-9.148l21.45 11.887c.207-1.52.322-2.994.322-4.409 0-2.798-.457-5.349-1.449-7.571l-.032-.005-.129-.021a190.59 190.59 0 0 0-8.623-1.112l-.705-.074-.446-.047-1.333-.132-.114-.011-8.671-.624-.266 2.119z"/><path d="M161.656 384.583c-.11.063-.228.102-.346.119-.355.055-.723-.085-.95-.389-.191-.255-1.72-2.315-3.778-5.664-3.304-2.886-7.79-6.996-12.136-11.585-.115.21-.233.415-.356.594v-.001l-1.646-1.134c.192-.278.376-.627.554-1.015h0c-1.608-1.755-3.171-3.563-4.626-5.387l-.338.624h0v.001l-1.77-.932c.034-.063.335-.633.776-1.408-1.569-2.086-2.964-4.173-4.082-6.205l-.373.428-1.497-1.326c.012-.015.363-.411.888-1.037-1.147-2.46-1.831-4.81-1.831-6.932 0-.544.044-1.07.135-1.582l.661-3.466-.508.263h0l-.887-1.793a29.8 29.8 0 0 0 1.882-1.023l.547-2.867 1.602-8.325-.444.247-.972-1.748 1.877-1.044.81-4.914c-.045.058-.094.111-.137.168l-1.587-1.217c.383-.5.811-.973 1.259-1.433.302-.311.609-.618.935-.912v-.001c.352-2.832.566-5.454.566-7.747 0-.044-.003-.081-.004-.125h-.001l-.735.235h0-.001l-.608-1.905 1.261-.402h.001 0c-.128-1.685-.41-3.13-.891-4.264a34.13 34.13 0 0 1 1.598-.474c4.895-1.357 10.846-1.912 16.848-2.01l.205-.005.004-.012c-2.708.037-5.403.171-8.001.423l-.402.034c-.151.016-.297.038-.447.055-4.36.474-8.403 1.306-11.661 2.668 2.318 5.033-.635 20.096-3.034 32.322l-1.701 8.92c-2.729 15.305 30.687 41.969 32.11 43.097l1.653 1.31-.025-1.662c-.09.176-.215.335-.397.438zm21.503-85.31l-.547-.088c.99 2.224 1.447 4.772 1.447 7.57 0 1.415-.115 2.892-.322 4.41l1.295.651v.001h0l-.881 1.795-.752-.375h0a57.42 57.42 0 0 1-1.361 5.614h.001l.946.144v.001h0l-.25 1.984-1.293-.193-.001.001c-.957 2.967-2.119 5.986-3.403 8.98h0l1.004.526v.001h0l-.904 1.782-.904-.471h-.001l-.261.562-3.656 7.626-.041.082.976.604-.001.001-1.016 1.724-.877-.537-2.756 5.176h0c.559 1.188.803 1.979.829 2.063h-.001v.001l-1.917.572c-.003-.007-.051-.157-.14-.397h0l-1.499 2.697-.862 1.544-2.688 4.861.876 1.443-.001.001v.001l-1.694 1.063-.261-.423c-.453.925-.763 1.656-.899 2.178-.942 3.627-1.22 10.718-1.292 15.721h0l1.62 4.139.365.901c-.022-2.624-.058-15.247 1.243-20.257.315-1.212 2.152-4.495 4.477-8.651 8.19-14.641 23.399-41.84 16.538-56.283l.594 1.547-1.73-.292zm-20.605-2.115h0l8.673.625-8.673-.63z"/><path d="M160.051 378.171h0c-3.486-9.105-10.156-27.753-9.341-35.175a8.05 8.05 0 0 1 .115-.757c.14-.718.329-1.55.554-2.466v-.001l-1.28-2.606.001-.001h0l1.799-.875c.008.018.099.203.253.521l1.437-5.064v-.001l-1.409-1.667 1.559-1.254.001.001h0a29.74 29.74 0 0 0 .521.628l1.014-3.419v-.001c-.418-.667-.802-1.342-1.135-2.025l1.798-.877h0 .001c.04.082.085.162.126.242v.001l1.969-6.716v-.001l-.04-.04-1.123-1.113v-.001h0l-.001-.001 1.414-1.414.375.373.982-3.547a13.49 13.49 0 0 1-1.313-1.852l1.729-1.006v.001l.001-.001c.073.125.158.246.236.368.659-2.55 1.219-4.936 1.626-7.05l-1.263-.723.996-1.734.003-.001a61.55 61.55 0 0 0 .625.357c.12-.755.212-1.468.27-2.116h0v-.001-.005a145.04 145.04 0 0 0-8.997-.174l-.297 1.188.438-.14.608 1.905-.002.001h0l-1.612.514-1.296 5.283.408-.104.473 1.943h-.001v.002c-.025.005-.556.139-1.422.398l-1.283 5.385.019-.011h0l.002-.001.973 1.748-1.609.896-1.242 5.429 1.196.912c-.096.125-.782 1.019-1.917 2.341l-1.216 5.734 1.417 1.022a262.04 262.04 0 0 0-2.236 3.159c-.675 3.643-1.09 6.517-1.074 8.02l.025-.104h.001l1.946.462a116.08 116.08 0 0 1-1.361 5.158c.313 1.923.72 3.818 1.199 5.677l.041-.329h.002 0l1.987.227a76.49 76.49 0 0 1-.702 4.643c2.743 8.367 6.672 15.61 9.562 20.313 2.058 3.349 3.586 5.409 3.778 5.664a1 1 0 0 0 .948.389 1.01 1.01 0 0 0 .346-.119c.182-.103.307-.262.392-.438.121-.251.149-.54.038-.813l-.047-.115-.368-.908-1.617-4.138zm-14.172-35.388a5.82 5.82 0 0 1-.008-.309c0-5.474 6.208-31.487 9.718-45.38h4.933c-.537 6.039-3.958 17.592-7.028 27.913-2.011 6.76-3.91 13.145-4.631 16.839-.145.695-.211 1.506-.211 2.408 0 7.417 4.523 21.113 7.921 30.363-4.355-7.673-9.887-19.596-10.694-31.834z"/><g fill="#fff"><path opacity=".5" d="M64.426 448.577l.296-2.674.432-3.896c-4.626 1.367-19.467 5.521-28.902 5.46-.629-.004-1.234-.026-1.81-.07l-23.645-1.475a83.24 83.24 0 0 1-2.131 5.584c7.839.958 18.757 2.123 25.849 2.167 1.721.01 3.215-.046 4.384-.187 6.56-.802 20.428-3.789 25.527-4.909zm-31.64 22.333c9.411 0 23.536 2.662 27.315 3.41l.286-1.143.634-2.545c.313-1.291.599-2.665.871-4.135l-28.244 1.102c-4.635.244-22.017-1.17-32.362-2.071l-.381-.033A33.14 33.14 0 0 1 0 466.598v2.119l1.823.161c9.964.875 24.365 2.032 30.963 2.032z"/><path opacity=".5" d="M47.228 512.042c1.726-3.313 3.317-6.866 4.779-10.702-12.068-.699-20.155-1.534-23.967-2.487l-2.629-.651L0 492.17v8.904c4.954 1.433 10.037 2.76 14.273 3.563 8.503 1.613 19.937 4.272 27.106 5.987l5.849 1.418h0zm11.987-206.843l1.604-1.889-2.192-7.903a388.64 388.64 0 0 1-4.711 12.266l.408 3.782 4.891-6.256zm-6.671 8.699l-.22-2.324-2.854 6.761 3.074-4.437zM0 411.834l1.255-2.72-.715-1.021-.54.286v3.455zm13.409 65.084l.241.047 8.42 1.459c8.234 1.131 31.767 2.375 36.32 2.607l1.225-4.767c-3.851-.754-17.795-3.354-26.827-3.354-4.804 0-13.67-.604-21.993-1.271L0 470.724v3.418l12.495 2.598.914.178zM2.691 462.979l-.417.624c10.375.896 26.919 2.228 31.27 1.997l28.703-1.116c.3-1.781.588-3.688.883-5.756-10.722 1.15-24.743 2.63-30.141 2.407a21.49 21.49 0 0 1-1.228-.085c-6.15-.582-17.026-3.72-24.643-6.101a75.17 75.17 0 0 1-4.427 8.03zm16.669 78.708L0 536.765v6.173l14.966 3.12a54.44 54.44 0 0 1 4.394-4.371zM0 552.208l8.504 2.335c1.518-2.334 3.158-4.599 4.952-6.756L0 544.98v7.228zm52.039-66.491l5.087-.021.747-2.687c-5.412-.282-27.983-1.493-36.073-2.604-1.7-.233-3.882-.605-6.305-1.056-4.815-.895-10.589-2.101-15.495-3.161v3.782c10.942 2.034 25.677 4.666 31.142 5.146 5.786.506 14.958.6 20.897.601zM0 570.269l3.641-7.359L0 561.822v8.447zm26.235-48.419l13.022 2.516a68.38 68.38 0 0 0 3.319-4.49l-3.008-.624L0 511.042v6.255l9.266 1.646c5.023.739 11.361 1.863 16.969 2.907zm11.557 4.264c-4.909-.977-19.267-3.788-28.817-5.191-2.465-.363-5.587-.926-8.975-1.589v4.71c10.379 2.347 28.075 7.415 31.484 8.397 2.242-1.939 4.337-4.05 6.308-6.327zM0 559.733l4.609 1.38 2.785-4.803L0 554.28v5.453zm0-25.037l21.26 5.399 3.591-2.644 4.766-3.463c-5.213-1.49-20.287-5.751-29.617-7.891v8.599zm65.399-94.853h0l.375-3.213c-3.584.525-13.719 1.788-23.606.952-7.76-.658-20.763-.139-29.081.319a94.82 94.82 0 0 1-1.667 6.051l23.174 1.449c9.351.709 27.384-4.531 30.805-5.558zm-34.431 47.265c-5.55-.486-20.048-3.069-30.968-5.1v4.854c7.903 2.008 17.453 4.195 24.965 5.183 7.31 1.043 17.429 1.314 30.041.821l1.564-5.165c-4.221.034-17.871.083-25.602-.593z"/><path opacity=".5" d="M27.769 509.519l-13.871-2.915c-4.139-.785-9.066-2.061-13.898-3.447v5.842l43.763 9.08c.861-1.354 1.686-2.765 2.487-4.217l-18.481-4.343zm40.674-154.185l9.02-.437c2.116-.245 4.208-.364 6.23-.391l2.898.028 1.265.043 4.493.338c4.735.492 8.376 1.291 9.895 1.66 1.041-1.721 2.019-3.449 2.938-5.187l-30.78-1.542c-3.812-.227-10.632-.907-16.558-1.538l-10.47-1.155-3.275 6.646c3.875.437 14.66 1.537 24.344 1.535zM57.74 374.433c8.767 2.242 23.261 4.24 26.231 4.638 1.376-1.753 2.856-3.415 4.458-4.966 1.365-1.32 2.64-2.678 3.875-4.05-4.369-.82-16.067-2.973-22.57-3.703-7.306-.821-28.395.896-32.214 1.22l-2.444 5.235.943-.04c4.571-.175 14.219-.254 21.721 1.666zm-6.843-34.245l-2.569 5.062 23.421 2.402 2.771.199 31.676 1.586a124.79 124.79 0 0 0 1.892-3.912c-3.494-.791-14.688-3.257-26.622-5.153-5.091-.773-10.549-1.007-15.455-.987-7.171.027-13.164.595-15.113.801l-.001.002zm102.407-70.797c-.15.254-.373.439-.617.583-.519.305-1.145.401-1.438.442l-3.796.557c4.421 1.648 11.56 4.678 15.864 8.436 5.772 5.037 11.136 14.591 12.336 16.804a194.56 194.56 0 0 1 6.069.808c-4.723-11.239-12.36-18.735-28.418-27.63zm-66.668-1.489l-3.667 16.193 7.773-4.814-.039-.03-.064-.049v-.001l-.001-.001c5.621-7.238 7.467-20.578 7.887-24.319a105.7 105.7 0 0 0-7.349.019c-.792 1.733-3.4 7.684-4.54 13.002zm-43.465 87.807l-4.667 9.772c4.661-.386 17.408-1.367 25.947-1.351 2.174.004 4.079.071 5.504.231 7.302.822 21.027 3.403 23.895 3.949 2.735-3.215 5.142-6.547 7.289-9.933a79.54 79.54 0 0 0-12.413-1.74c-.027-.002-.053-.005-.08-.006l-.507-.024c-.976-.051-1.973-.087-2.997-.097-2.4-.023-4.914.079-7.448.373l-.937.099c-11.699 1.148-29.533-.796-33.586-1.273zm7.497 32.892c8.647-.104 22.726 1.843 26.098 2.328a69.77 69.77 0 0 1 1.565-3.118c-4.035-1.172-15.28-4.365-22.292-5.653-7.641-1.408-21.633-1.214-24.692-1.151-.015 0-.035.001-.049.001l-4.203 9.255c4.398-.456 15.88-1.571 23.573-1.662zm-13.855-9.645h.054c5.699.014 14.066.228 19.535 1.234 7.366 1.354 19.293 4.767 22.921 5.826h0c1.013-1.77 2.097-3.479 3.271-5.113l-6.695-.979c-4.278-.66-9.535-1.542-14.18-2.522a110.48 110.48 0 0 1-4.478-1.03c-5.34-1.366-11.978-1.675-16.867-1.676a110.97 110.97 0 0 0-6.25.167l-1.902 4.126 4.591-.033zm73.651-98.793l-8.465 3.321c3.917.967 10.91 2.724 15.796 4.144 6.905 1.973 22.226 7.723 23.73 8.287 1.03-.158 2.075-.301 3.139-.418-1.433-.929-3.472-2.211-5.928-3.647-7.369-4.308-18.493-10.001-28.268-11.688zm32.362-15.433l1.342.002c-5.014-2.225-10.612-4.112-16.462-5.626 1.641 3.086 1.924 5.37 1.895 6.683 1.542-.228 3.012-.41 4.403-.555 3.477-.361 6.458-.487 8.822-.504zm-69.765 38.728h0l-4.775 6.458-.1.149-1.568 2.354 25.219 2.001.717.069c6.87.564 24.07 4.402 25.562 4.736l1.505-4.113c-2.496-1.415-10.967-5.951-18.99-7.179l-7.704-1.251-19.864-3.227zm19.41-15.359c-3.911 2.141-7.613 4.521-10.976 7.161 4.151.509 13.113 1.651 20.035 2.849 8.126 1.403 18.922 6.544 22.043 8.088.422-.772.854-1.52 1.303-2.217.753-1.177 1.754-2.203 2.94-3.109-2.66-1.769-9.587-6.116-15.508-7.618l-19.835-5.156-.002.002zm2.627-1.387l17.706 4.601c6.906 1.752 14.792 6.967 16.815 8.355 2.282-1.321 5.057-2.309 8.134-3.024-5.164-1.913-15.292-5.604-20.51-7.095-6.288-1.825-16.093-4.219-18.23-4.735a113.17 113.17 0 0 0-3.915 1.898zm-29.712 27.624l-3.367 5.508h0c4.022-.57 13.339-1.641 22.113-.852 10.272.926 27.127 6.51 31.286 7.928l1.038-2.974.985-2.823c-2.456-.546-18.66-4.115-25.07-4.643l-6.347-.561-18.754-1.448-1.882-.139zm-11.382 19.895l-2.011 3.836 2.233-.191c3.016-.234 7.384-.487 12.258-.49l2.117.016c4.287.063 8.855.339 13.173.995 12.483 1.981 24.156 4.585 27.15 5.269a170.77 170.77 0 0 0 3.316-8.034h0c-4.726-1.049-24.911-5.371-34.989-5.175-10.253.203-21.105 3.162-23.246 3.773zm14.138-73.159l.723-1.924-1.27.373-.201 3.65.748-2.099zm-2.775 37.384l-1.369-19.246-.006-.15c-1.172 4.115-2.578 8.481-4.169 13.014l2.574 9.47a78.6 78.6 0 0 1 2.97-3.088zm-4.649 23.609c-1.765 3.049-3.574 6.304-5.419 9.739 4.11-1.073 13.209-3.177 21.913-3.351 10.654-.209 31.488 4.327 35.745 5.282l1.793-4.929c-4.129-1.4-20.904-6.93-30.797-7.821-10.135-.913-21.046.722-23.233 1.076zm-13.247 81.784c10.215 1.431 19.822 4.699 22.879 5.802h0c.637-2.593 1.349-5.151 2.143-7.664-2.986.141-10.381.35-16.55-.663-6.899-1.131-28.608-2.283-32.695-2.493l-2.566 5.762c4.65-.676 16.798-2.143 26.789-.744zm57.61-142.757c-.019.805-.075 1.601-.191 2.34-.333 2.666-1.68 7.423-2.465 10.063 2.757-1.177 5.453-2.195 8.073-3.082.459-.767 3.654-6.378 3.923-14.034-3.253-.503-6.507-.888-9.714-1.148h0c.175 1.317.427 3.621.374 5.861zm41.852 26.282l.067.058c4.114 3.511 7.199 6.526 8.198 7.519 3.224-.009 6.416.104 9.438.283-5.071-4.855-19.451-17.607-33.859-21.001l-2.366.571c1.059.47 2.134 1.009 3.215 1.602 5.381 2.947 10.917 7.226 15.307 10.968zm20.772 8.069l5.505.5c-1.9-3.336-6.494-10.912-11.209-15.026-5.526-4.824-16.503-8.559-18.66-9.262-2.532.446-5.394.994-8.491 1.66 15.989 5.298 30.56 19.775 32.855 22.128zm-100.606 131.2l1.13-6.908c-4.438-.284-21.433-1.278-29.094-.396-6.939.801-18.126.527-23.177.346-.171 1.909-.37 3.82-.614 5.734 6.215.293 16.599.861 22.761 1.631 8.005 1 25.08-.128 28.994-.407zm-42.975-29.771c5.586.29 25.411 1.374 32.144 2.479 2.343.385 4.905.584 7.328.678 4.313.166 8.181-.005 9.561-.082a89.84 89.84 0 0 1 2.752-7.117l-1.501-.206c-5.191-.703-16.486-2.101-23.667-2.021h-.048c-8.443.101-21.547 1.451-24.549 1.771l-2.02 4.498zm58.437-141.195c-.764 2.307-3.21 9.966-3.874 15.37-.526 4.35-1.982 11.947-2.938 16.739l-.375 1.863a124.05 124.05 0 0 1 5.164-3.874v.001h0l4.141-18.292c1.034-4.82 3.158-9.989 4.249-12.468-2.209.14-4.337.36-6.365.663l-.002-.002zM41.729 435.546l.609.044 5.797.267c8.186.091 15.571-.93 17.89-1.289l.782-5.896c-4.682.331-20.929 1.365-28.95.362-6.16-.768-16.624-1.336-22.786-1.626l-.135.983.084.115-.114.082c-.369 2.432-.814 4.862-1.344 7.284 8.18-.438 20.434-.908 28.167-.326zm61.181-172.393c.326-2.085.141-4.762-.061-6.586l-.191-1.487h0l-2.123-.123c-.347 3.28-1.819 14.459-6.318 22.432 1.953-1.021 3.886-1.962 5.795-2.829.394-1.272 2.489-8.139 2.898-11.407zm10.324 6.373l6.399-1.777-.06-.058c.058-.061.514-.548.955-1.367.969-1.802 1.86-5.208-1.734-9.199l-2.373-.422h0c-.246 5.754-1.997 10.334-3.187 12.823zm-41.937-11.092c-.719 1.792-3.625 9.234-4.822 15.282-.399 2.016-.609 3.876-.484 5.321.413 4.767.944 12.704 1.214 16.839l.05.774h0v-.001a129.45 129.45 0 0 1 5.67-5.012v.001l1.934-9.751c.745-3.95 1.498-8.231 1.842-11.083.615-5.007 2.63-11.654 3.631-14.757-2.021.377-3.926.842-5.683 1.402l-3.351.984-.001-.002zm56.304 6.961c-.046-1.282-.493-3.664-2.613-6.96l-3.224-.718c2.516 3.948 1.623 7.37.578 9.402l5.242-1.014a5.55 5.55 0 0 0 .017-.71zm-2.511 10.257a189.07 189.07 0 0 0-10.946 3.242c9.907 2.45 20.348 8.035 26.999 12.03 3.485 2.092 5.929 3.748 6.712 4.287a103.09 103.09 0 0 1 4.512-.218c-4.597-4.392-17.453-16.079-27.276-19.345zm-86.184 141.7c2.272-.262 5.291-.366 8.547-.374l1.144.001c8.061.031 17.186.589 20 .773h0c.393-2.058.82-4.106 1.289-6.142-2.705-.986-12.389-4.338-22.693-5.781-10.718-1.501-24.452.462-27.476.935l-3.35 7.583-.235 3.338c5.064.176 16.105.437 22.774-.333zm40.447-120.333l-2.692 2.445-2.085 2.21 26.358 4.281c8.196 1.256 16.549 5.647 19.421 7.269.744-1.87 1.501-3.631 2.295-5.25-3.09-1.521-13.729-6.56-21.461-7.896-7.278-1.256-16.838-2.457-20.601-2.914l-1.234-.148z"/></g><path d="M62.336 473.663l.635-2.55c.906-3.733 1.586-8.048 2.329-13.379l.177-1.27-1.435.154c-10.777 1.157-25.537 2.743-30.976 2.52-5.104-.195-15.416-3.061-23.314-5.478 9.773 1.173 23.421 2.531 29.395 1.813 6.967-.853 21.981-4.116 26.417-5.097l.699-.153.454-4.1c2.649-24.041 5.946-53.961 23.108-70.58 16.271-15.729 23.066-35.253 28.525-50.938 2.763-7.938 5.148-14.791 8.214-19.543 1.351-2.109 3.616-3.707 6.479-4.903 3.26-1.363 7.303-2.195 11.663-2.669l.447-.055c.132-.014.269-.021.402-.034 2.598-.252 5.293-.386 8-.423h.001a144.96 144.96 0 0 1 8.995.174c3.084.151 6.026.379 8.675.63l.114.011 1.333.132.446.047.705.074a191 191 0 0 1 8.623 1.112l.131.021c.011.002.021.003.03.005l.549.088 1.729.293-.594-1.547-.016-.043-.02-.048c-5.31-13.829-14.139-22.148-34.991-32.969-21.231-11.016-56.382-15.416-75.224-9.416l-6.479 1.902.042 1.65c0 .144-.009.282-.011.425l1.27-.373h0l.746-1.879h.001 0l1.848.765c-.006.014-.063.152-.161.399l3.35-.982c1.756-.56 3.661-1.025 5.683-1.402l.572-1.725 1.891.652h0l.002.001-.234.7a77.1 77.1 0 0 1 6.365-.661l.675-1.489.003.002 1.806.859-.235.512a106.33 106.33 0 0 1 7.349-.018l.104-1.005h.003 0l1.993.162-.088.918 2.12.123-.094-.604 1.971-.343h.005c.01.059.08.468.167 1.1h0a136.44 136.44 0 0 1 9.714 1.148h0 0c.016-.452.028-.907.022-1.372l2-.024.004.001c.007.584-.003 1.156-.026 1.719h0l2.373.422-.159-.18 1.464-1.362.005.002c.674.724 1.22 1.437 1.664 2.133l3.22.717h0l-.219-.345 1.664-1.109.003.001a24.87 24.87 0 0 1 1.272 2.125c5.85 1.514 11.446 3.4 16.459 5.625 2.973.031 4.679.227 4.763.238l.146.019.002.001h.001l.135.06c3.01 1.343 4.45 2.629 4.281 3.821-.029.201-.101.367-.19.519 16.059 8.894 23.696 16.392 28.418 27.631a192.05 192.05 0 0 0-6.068-.808l.244.454-1.771.931-.004-.001c-.014-.026-.345-.65-.916-1.653l-5.502-.499.296.306-1.449 1.38-.002-.002a69.97 69.97 0 0 0-1.914-1.894c-3.021-.181-6.213-.292-9.437-.283l.322.323-1.423 1.406-.001-.001-.001.001a99.8 99.8 0 0 0-1.729-1.687c-1.513.04-3.019.111-4.511.219l.114.079.1.069c.012.009.03.021.038.026h0l-1.146 1.64a98.43 98.43 0 0 0-2.298-1.53 68.6 68.6 0 0 0-3.132.42l.121.047v.001l-.703 1.873a518.72 518.72 0 0 0-3.196-1.192c-3.078.717-5.853 1.703-8.134 3.025l.489.341-1.16 1.629-.003-.002c-.002-.002-.03-.021-.045-.032-.107-.076-.469-.327-1.036-.705-.017-.011-.029-.02-.045-.03-1.186.906-2.188 1.934-2.94 3.109-.45.697-.881 1.443-1.303 2.217l.868.437-.913 1.778-.003-.001-.875-.437c-.794 1.619-1.551 3.38-2.295 5.25l1.034.6-1.037 1.711-.005-.001a31.85 31.85 0 0 0-.727-.421l-1.505 4.112.084.019h0l-.435 1.952-.322-.071-.985 2.822-1.038 2.974.929.319v.001l-.657 1.889c-.025-.01-.358-.125-.939-.321l-1.794 4.93.748.17-.448 1.949h-.005a137.59 137.59 0 0 0-1.01-.227 171.4 171.4 0 0 1-3.315 8.035l.187.042.557.129-.457 1.946-.006-.001-1.117-.257c-.602 1.303-1.233 2.607-1.891 3.911l.514.026v.001h.005l-.094 1.998-1.441-.072a104.24 104.24 0 0 1-2.937 5.188l.442.111.235.062c.042.011.071.019.088.022l-.527 1.93-.005-.001c-.024-.007-.5-.135-1.337-.322-2.146 3.387-4.554 6.718-7.288 9.933l.534.103v.003l-.373 1.964c-.031-.007-.662-.127-1.71-.324-1.235 1.372-2.51 2.729-3.875 4.05-1.602 1.551-3.082 3.213-4.458 4.965l.543.072v.001l-.254 1.984c-.031-.005-.639-.083-1.666-.226-1.174 1.635-2.259 3.345-3.271 5.114l1.076.314h0l-.566 1.918c-.006-.002-.047-.014-.103-.031l-.865-.253-.532-.154a70.86 70.86 0 0 0-1.565 3.118l.729.105-.296 1.979h-.008l-1.285-.186a89.47 89.47 0 0 0-2.748 7.116l.531-.032v.002l.149 1.995a71.73 71.73 0 0 1-1.346.075c-.794 2.513-1.506 5.072-2.143 7.666l1.01.373-.723 1.865-.006-.001c-.017-.007-.279-.107-.744-.276-.469 2.033-.896 4.083-1.288 6.14l.846.059h0l-.133 1.995-1.082-.071c-.414 2.303-.789 4.609-1.129 6.908l.813-.062v.001l.161 1.994-1.267.095-.779 5.896.75-.121v.002l.353 1.971c-.024.004-.508.088-1.356.212l-.375 3.21.56-.17.001.003.602 1.907-1.408.426-.432 3.896-.296 2.674c-5.099 1.12-18.968 4.107-25.527 4.909-1.17.141-2.667.196-4.392.187-7.092-.044-18.01-1.209-25.849-2.167-.485 1.153-1 2.301-1.546 3.442 7.612 2.38 18.487 5.518 24.642 6.103a21.49 21.49 0 0 0 1.228.085c5.398.223 19.419-1.257 30.141-2.407l-.875 5.756 1.09-.038v.002l.076 1.998-1.52.054c-.272 1.47-.558 2.845-.871 4.136.001-.008-.634 2.545-.634 2.545l-.286 1.142.931.188v.001l-.397 1.96-.007-.001-1.014-.203-1.225 4.767.761.039v.001l-.012.335-.083 1.663c-.013-.001-.101-.005-.226-.012l-.437-.022-.521-.026-.747 2.686.69-.007v.002l.032 2-.566.006-.714.007-1.564 5.165c-12.612.493-22.731.222-30.041-.822-7.514-.987-17.067-3.175-24.971-5.183v2.063c7.855 1.986 17.253 4.123 24.7 5.101 2.295.327 4.862.58 7.685.759l2.864.151 2.761.099 2.019.044c2.424.041 4.995.038 7.697-.004l2.005-.039 6.079-.193.696-.028.214-.663.886-2.888 1.534-5.268 1.417-5.291.66-2.559 1.118-4.489zm-22.813 24.776l-1.997-.192-4.639-.55-2.069-.319-.979-.181-1.308-.285c-4.454-1.129-17.556-4.222-28.531-6.797v2.056l25.411 6.031 2.629.651c3.812.953 11.899 1.788 23.967 2.487-1.462 3.836-3.053 7.389-4.779 10.702l.923.229-.482 1.941c-.023-.007-.311-.078-.815-.202l-.604-.149c-.801 1.452-1.626 2.863-2.487 4.217l.886.185-.407 1.959-1.666-.347c-1.062 1.564-2.167 3.061-3.319 4.49l.655.132-.397 1.962a31.24 31.24 0 0 0-.31-.063l-1.412-.282c-1.971 2.277-4.066 4.39-6.308 6.328l.54.156-.557 1.922-1.85-.531a63.06 63.06 0 0 1-4.767 3.464c-1.258.829-2.441 1.723-3.591 2.644l.451.109-.399 1.633-.076.311h-.001 0l-1.875-.462a54.44 54.44 0 0 0-4.394 4.371l.706.146-.404 1.959h-.001 0l-1.81-.375c-1.794 2.157-3.435 4.423-4.951 6.757l.768.216h0l.002.001-.543 1.924a210.34 210.34 0 0 0-1.337-.374c-.975 1.581-1.901 3.185-2.785 4.803l.767.235-.591 1.91h-.002l-1.142-.349c-1.292 2.455-2.485 4.92-3.644 7.366v2.282l.049.021-.048.113v2.279l2.112-4.505 1.545-3.178c1.793-3.618 3.735-7.236 5.933-10.714.766-1.212 1.564-2.403 2.396-3.573 2.182-3.066 4.608-5.969 7.365-8.596.645-.614 1.303-1.218 1.985-1.8 1.45-1.24 2.983-2.409 4.617-3.485a66.38 66.38 0 0 0 4.817-3.484 64.2 64.2 0 0 0 2.197-1.826 64.35 64.35 0 0 0 2.521-2.325 65.62 65.62 0 0 0 1.766-1.773c3.439-3.604 6.512-7.674 9.27-12.258a82.55 82.55 0 0 0 2.142-3.777c2.1-3.942 4.004-8.228 5.727-12.909l.467-1.271-1.35-.073-4.018-.237-1.996-.13-7.973-.62z"/><path opacity=".5" fill="#fff" d="M77.693 295.792c12.542-10.929 30.82-17.776 46.398-21.939h0l.141-.548h.001c.304.078.614.172.924.267 11.196-2.929 20.876-4.468 25.819-5.138.056-.008.067-.016.115-.024-.565-.433-1.562-1.013-2.565-1.472-1.644-.179-29.227-2.799-59.894 15.892-7.077 4.313-14.317 9.762-21.442 16.637-7.204 6.952-14.971 17.667-22.965 30.702-7.569 16.592-15.4 31.845-20.847 41.342-4.495 7.807-5.7 17.666-6.334 27.156l-.036.545-.476.264-11.474 6.215-2.974 6.403 7.577-3.23 7.096-3.023-.057 1.572-.056 1.354c21.472-48.528 43.703-96.136 58.616-110.73a57.21 57.21 0 0 1 2.433-2.245z"/><path d="M144.168 264.732l-1.342-.002-8.822.504-4.403.555c-.018.783-.143 1.227-.159 1.277l-1.915-.578c.001-.006.034-.14.057-.383l-5.242 1.014c-.631 1.227-1.316 1.947-1.336 1.968l-1.373-1.337-6.399 1.777-1.104 2.052-1.687-1.075c.003-.004.022-.035.054-.089l-8.072 3.08-.574 1.889-1.908-.601.069-.224-5.795 2.829c-.611 1.081-1.272 2.105-1.997 3.038h0 0l-1.145-.889-.33-.256-.001-.001-7.774 4.814v.001l-.493 2.179-1.948-.453v-.001h0l.01-.045v-.001l-5.164 3.874v.001l-.512 2.492-1.957-.41c.001-.003.007-.033.012-.054l.008-.039-5.67 5.011v.001l.123 1.918h0v.001l-1.996.125c0-.009-.006-.096-.015-.238v-.001l-2.97 3.087.44 1.544-1.921.557-.096-.333-1.604 1.889-4.891 6.256.238 2.565-1.993.164c0-.007-.005-.056-.01-.124l-.015-.161-3.073 4.436-1.509 3.475.322.992h0v.001l-.879.28-3.176 7.078c7.993-13.031 15.758-23.744 22.961-30.694 7.125-6.875 14.366-12.323 21.443-16.637 30.667-18.691 58.25-16.07 59.894-15.892 1.003.459 2 1.039 2.565 1.472-.048.008-.059.016-.115.024-4.943.67-14.623 2.209-25.819 5.138h0a28.61 28.61 0 0 1 3.254 1.231l2.366-.571c-.031-.007-.061-.017-.092-.022l.453-1.947v-.001a41.77 41.77 0 0 1 3.709 1.054 230.07 230.07 0 0 1 8.492-1.659l-.374-.121h0 0l.592-1.91c.18.055 1.704.533 3.892 1.348l3.798-.557c.294-.041.919-.137 1.438-.442.244-.144.467-.33.617-.585a1.39 1.39 0 0 0 .19-.519c.169-1.192-1.271-2.478-4.281-3.821l-.133-.059-.002-.001-.146-.019c-.084-.011-1.79-.207-4.763-.238h-.002zM19.103 406.863l-.34-1.971 1.918-.3 2.567-5.763-.671-.033.099-1.998h.001l1.447.073 2.019-4.499-.634.068h0-.001l-.221-1.988 1.39-.148.417-.043 4.204-9.255-.562.013-.055-2 1.542-.032 1.901-4.126-.036.002-.509.031-.024.002h0-.001l-.147-1.994 1.669-.096 2.444-5.235-.604.052-.176-1.991h0v-.001l1.764-.149h0v-.001l4.667-9.769-.813-.099.248-1.983h0v-.002l1.491.173 3.274-6.645-.733-.084.229-1.985h0v-.003l1.458.166h0v-.001l2.569-5.062h0l-.676.075-.241-1.986h.001v-.003l2.012-.207h0l2.011-3.836-.38.11-.578-1.914h0v-.002a64.98 64.98 0 0 1 2.252-.62c1.847-3.437 3.657-6.691 5.421-9.74l-.398.066-.35-1.97.002-.003c.029-.004.777-.135 2.047-.314l3.367-5.508-.581-.043.145-1.994h.001v-.002l1.665.121 1.569-2.354.1-.149c1.65-2.419 3.245-4.581 4.776-6.458h0l-.149-.023v-.003h0l.33-1.974 1.332.217h.002 0c.709-.803 1.406-1.546 2.085-2.21.859-.842 1.766-1.649 2.692-2.445l-.39-.046.23-1.986h0v-.003l2.298.276h.002c3.363-2.64 7.065-5.021 10.976-7.161l-.002-.001-.601-.155.506-1.936h.001l.001-.003 2.719.707.002.001h0a112.05 112.05 0 0 1 3.913-1.896l-.426-.103.001-.005h0l.126-.525.34-1.415h0l.001-.004 2.941.718c2.803-1.203 5.638-2.31 8.472-3.32l-.27-.05.327-1.973.001-.003c1.192.197 2.4.455 3.615.756l.004.001c3.725-1.23 7.408-2.308 10.946-3.242-.461-.152-.913-.292-1.356-.405l.001-.004h0l.037-.145.319-1.242c-15.577 4.164-33.854 11.011-46.397 21.937-.837.729-1.649 1.477-2.432 2.242-14.913 14.595-37.144 62.202-58.616 110.73l-.277 5.58 3.348-7.578-.608.098zM5.06 405.69l-2.739 1.459.814 1.165-1.648 1.133h0 0l-.229-.332-1.257 2.724v1.143l2.085-.888 2.974-6.404z"/><path d="M1.486 409.447l1.647-1.133-.813-1.165-1.78.945.716 1.02.23.333h0zm46.798-86.646l-.322-.992-.557 1.273.879-.281h0zm4.26-8.902l.015.161.01.124 1.993-.164-.239-2.564-.407-3.781-1.592 3.899.22 2.325zm8.372-10.256l1.921-.557-.44-1.544-2.574-9.47-1.194 3.333 2.191 7.904.096.334zm6.478-40.472l-.021.25c-.535 4.51-1.724 9.822-3.381 15.638.003.048.002.103.006.15l1.369 19.246h0v.001l.015.238 1.996-.125v-.001l-.123-1.918-.05-.774-1.214-16.839c-.125-1.445.085-3.306.484-5.321 1.198-6.048 4.104-13.491 4.822-15.282l.162-.401-1.847-.764h-.001l-.746 1.879h0l-.723 1.924-.748 2.099zm7.465 18.717l-1.934 9.751-.008.039-.012.054 1.957.41.512-2.492v-.001l.375-1.863c.956-4.792 2.412-12.389 2.938-16.739.664-5.404 3.11-13.063 3.874-15.37h0l.235-.702h0l-1.891-.652c-.034.097-.252.733-.571 1.724-1.001 3.105-3.017 9.75-3.631 14.758-.346 2.853-1.099 7.134-1.844 11.083zm5.679 3.888l-.01.045v.001l1.948.453.493-2.179v-.001l3.667-16.193c1.14-5.319 3.748-11.27 4.537-13.003l.236-.513-1.803-.858-.003-.002a61.3 61.3 0 0 0-.675 1.488c-1.091 2.48-3.215 7.649-4.249 12.469l-4.141 18.293zm10.103-6.575h0l.063.05.04.03.001.001.33.256 1.145.889h0c.725-.934 1.386-1.957 1.996-3.036 4.5-7.975 5.972-19.154 6.319-22.434h0l.088-.918-1.99-.162h-.003a43.48 43.48 0 0 1-.103 1.005h0c-.419 3.739-2.267 17.08-7.886 24.319zm12.017-24.122l.191 1.487c.203 1.825.387 4.501.061 6.586-.409 3.268-2.504 10.135-2.898 11.406l-.069.224 1.908.601.574-1.889c.785-2.64 2.132-7.396 2.465-10.063.116-.739.172-1.536.191-2.34.053-2.239-.199-4.544-.379-5.861-.086-.631-.156-1.04-.167-1.099l-1.971.342c.002.011.04.237.094.606h0zm7.839 15.336l-.054.089 1.687 1.075c.057-.088.51-.811 1.104-2.052a33.49 33.49 0 0 0 3.183-12.824h0l.026-1.718-2 .023-.022 1.372h0c-.269 7.655-3.463 13.268-3.923 14.034zm10.031-4.091c-.44.819-.896 1.307-.955 1.367l.06.058 1.373 1.337c.02-.021.705-.741 1.336-1.968 1.045-2.031 1.938-5.454-.579-9.402-.443-.694-.987-1.406-1.661-2.128l-1.467 1.358.158.179c3.595 3.991 2.704 7.396 1.735 9.199zm7.056-.219c-.022.244-.055.377-.057.383l1.915.578c.016-.051.141-.494.159-1.277.029-1.313-.254-3.597-1.895-6.683-.356-.671-.774-1.378-1.271-2.123l-1.665 1.107.219.345h0c2.119 3.296 2.565 5.678 2.611 6.96a5.4 5.4 0 0 1-.016.71zM0 572.56v.127l.046-.107c-.003-.001-.028-.012-.046-.02zm4.785-9.302l.591-1.909-.767-.235L0 559.734v2.088l3.641 1.088 1.144.348h0zm3.721-8.714L0 552.209v2.07l7.394 2.03 1.337.374.543-1.924h0l-.768-.215zm6.761-6.381l.404-1.959-.706-.146L0 542.938v2.043l13.456 2.807h0l1.811.375h0zm4.093-6.476l1.875.462h0l.077-.313.398-1.63-.451-.109L0 534.698v2.068l19.36 4.921zm12.108-7.167l.557-1.922-.54-.156h0c-3.41-.982-21.105-6.051-31.484-8.397v2.053c9.33 2.14 24.404 6.4 29.617 7.892l1.85.53zm7.737-8.124l.309.063.397-1.961-.655-.132-13.021-2.516-16.969-2.907L0 517.297v2.035l8.975 1.588c9.55 1.405 23.909 4.217 28.817 5.193l1.413.283zm5.037-6.174l.407-1.959-.886-.185L0 509v2.042l39.568 8.21 3.008.624 1.666.346zm-16.473-10.703l18.481 4.343.588.145.831.205.482-1.94-.923-.229h0l-5.848-1.417c-7.169-1.715-18.604-4.373-27.108-5.986-4.236-.804-9.318-2.131-14.271-3.563v2.08c4.832 1.387 9.759 2.662 13.898 3.447 4.194.796 9.109 1.848 13.87 2.915zm30.055-23.828v-.002l-.69.007-5.095.021c-5.938-.001-15.111-.096-20.896-.602-5.465-.479-20.2-3.111-31.142-5.146v2.038c10.92 2.03 25.418 4.613 30.968 5.1 7.731.676 21.381.627 25.602.594l.72-.007.56-.006-.027-1.997zm.049-2.682l.529.027.437.021.221.012.083-1.66.017-.337v-.001l-.761-.039c-4.558-.232-28.091-1.478-36.325-2.607-2.177-.299-5.153-.828-8.424-1.46l-.241-.047-.914-.179L0 474.142v2.046l15.495 3.161c2.423.45 4.605.822 6.305 1.056 8.09 1.111 30.661 2.322 36.073 2.604zm1.742-6.744l1.022.204h0l.404-1.959v-.001l-.931-.188c-3.787-.749-17.912-3.411-27.322-3.411-6.6 0-21.001-1.157-30.965-2.033L0 468.716v2.008l10.795.916c8.323.666 17.189 1.271 21.993 1.271 9.032 0 22.977 2.6 26.827 3.354zm2.632-11.781L33.544 465.6c-4.351.23-20.895-1.101-31.27-1.997a31.89 31.89 0 0 1-1.369 1.892l.381.033c10.345.901 27.727 2.315 32.362 2.071l28.244-1.102 1.522-.054-.069-1.996v-.002l-1.09.038zm3.152-24.641c-3.421 1.026-21.454 6.267-30.805 5.559l-23.174-1.449-.623 1.969 23.645 1.475c.576.044 1.181.066 1.81.07 9.435.061 24.274-4.093 28.902-5.461l1.408-.426-.594-1.906-.001-.003-.56.17-.008.002zm.626-5.275c-2.319.359-9.705 1.38-17.89 1.289-1.907-.021-3.857-.103-5.798-.267l-.608-.044c-7.733-.582-19.987-.112-28.167.326l-.474 2.028c8.318-.458 21.32-.978 29.08-.319 9.887.837 20.022-.427 23.606-.952l1.356-.213-.345-1.969v-.002l-.75.121zm1.074-7.925c-3.915.279-20.989 1.407-28.994.406-6.162-.77-16.546-1.338-22.761-1.631l-.272 1.988c6.162.289 16.626.857 22.786 1.626 8.021 1.003 24.268-.031 28.95-.362l1.267-.095-.155-1.993v-.001l-.813.062zm1.499-8.891c-2.815-.185-11.94-.742-20-.773l-1.144-.001c-3.256.008-6.275.112-8.547.374-6.669.77-17.71.509-22.773.333l-.175 1.999c5.051.182 16.238.455 23.177-.346 7.661-.883 24.656.111 29.094.396l1.082.071.14-1.994h0l-.846-.059h-.008zm1.753-8.101h0c-3.058-1.103-12.665-4.371-22.879-5.802-9.991-1.399-22.139.067-26.79.743h0l-1.918.3.34 1.971.615-.099c3.024-.474 16.758-2.437 27.476-.935 10.304 1.443 19.988 4.795 22.693 5.781l.75.278v-.002l.722-1.863c-.02-.007-.378-.145-1.009-.372zm2.805-9.705l-9.561.082c-2.423-.094-4.985-.293-7.329-.678-6.732-1.104-26.557-2.188-32.144-2.479l-1.446-.073-.1 1.998.67.033c4.09.21 25.796 1.362 32.695 2.493 6.169 1.014 13.564.805 16.549.662l1.346-.075-.14-1.994v-.002a25.98 25.98 0 0 1-.531.032zm3.609-9.016c-3.37-.486-17.449-2.433-26.097-2.329-7.693.091-19.175 1.206-23.573 1.661l-.418.043-1.372.146.203 1.99h.001l.633-.068c3.002-.32 16.106-1.672 24.549-1.771h.049c7.182-.078 18.479 1.318 23.667 2.021l1.499.206 1.292.187v-.001l.296-1.979-.729-.106z"/><path d="M79.323 386.016c-3.628-1.06-15.555-4.473-22.921-5.826-5.469-1.007-13.836-1.221-19.535-1.234h-.054c-1.9-.004-3.499.014-4.59.032l-1.542.032.055 2c.017 0 .22-.006.562-.013.015 0 .034-.001.049-.001 3.058-.063 17.051-.258 24.694 1.15 7.012 1.288 18.257 4.481 22.292 5.653l.537.156.865.253c.051.016.092.027.098.029l.571-1.916h0l-1.076-.314-.005-.001zm-21.582-11.582c-7.505-1.92-17.152-1.842-21.722-1.667l-.943.04-1.669.096.147 1.994h0c.002 0 .016-.001.024-.002l.509-.031c.013-.001.022-.001.036-.002 1.016-.059 3.319-.168 6.251-.167 4.889.001 11.528.31 16.869 1.676 1.374.352 2.892.696 4.476 1.03 4.645.98 9.902 1.862 14.18 2.522l6.697.979 1.666.226.257-1.983v-.001l-.543-.072c-2.974-.397-17.468-2.396-26.235-4.638zm36.109-6.123c-2.868-.546-16.593-3.127-23.895-3.949-1.425-.16-3.33-.228-5.504-.231-8.539-.016-21.287.966-25.948 1.352h0l-1.764.149v.001l.176 1.99.604-.052c3.819-.323 24.908-2.041 32.213-1.22 6.503.73 18.201 2.883 22.57 3.703l1.71.324.378-1.961v-.003c-.017-.003-.208-.041-.534-.103zm8.394-11.734c-1.519-.369-5.16-1.168-9.895-1.66a77.26 77.26 0 0 0-4.493-.338c-.415-.02-.84-.031-1.265-.043a67.67 67.67 0 0 0-2.898-.028 61.1 61.1 0 0 0-6.23.391c-2.687.312-5.792.436-9.02.437-9.684.002-20.469-1.099-24.345-1.533h0l-1.491-.173v.002l-.248 1.981.813.098c4.053.477 21.886 2.42 33.585 1.273l.937-.099c2.534-.294 5.048-.396 7.448-.373 1.024.01 2.021.046 2.997.097l.507.024c.027.001.053.004.08.006a79.54 79.54 0 0 1 12.413 1.74h0l1.342.323h0l.527-1.93c-.016-.004-.044-.012-.083-.021l-.235-.062-.445-.112zm-27.724-8.726l-2.771-.199c-7.237-.584-19.275-1.931-23.422-2.401h0l-1.458-.166v.003l-.229 1.983c.022.003.288.033.733.084l10.471 1.155 16.557 1.537 30.78 1.542 1.441.072.094-1.997v-.001l-.514-.026h-.006l-31.676-1.586zm7.253-9.455c-4.317-.656-8.886-.932-13.172-.995l-2.117-.016c-4.874.003-9.242.256-12.258.49l-2.233.191h0l-2.012.207v.003l.241 1.983.677-.075a157.03 157.03 0 0 1 15.113-.801c4.906-.02 10.364.214 15.455.987 11.934 1.896 23.128 4.362 26.621 5.153l1.123.258h0l.457-1.946a85.42 85.42 0 0 0-.551-.128l-.187-.042c-3.001-.684-14.674-3.287-27.157-5.269zm31.182-4.657c-4.255-.957-25.09-5.493-35.744-5.284-8.702.174-17.801 2.276-21.913 3.351l-2.253.62v.002l.578 1.912c.012-.005.146-.044.381-.11h0c2.14-.611 12.992-3.57 23.246-3.773 10.078-.196 30.263 4.126 34.989 5.175h0l1.015.228v-.001l.448-1.948c-.085-.022-.35-.082-.747-.172zm2.462-6.819c-4.159-1.418-21.013-7.002-31.286-7.928-8.774-.789-18.091.281-22.113.852h0l-2.047.314v.003l.349 1.967c.012-.003.153-.026.397-.066 2.188-.354 13.099-1.989 23.234-1.076 9.894.892 26.668 6.421 30.797 7.821l.939.321.661-1.887v-.001l-.929-.319-.002-.001zm-22.865-12.431l-.716-.069-25.219-2.001-1.666-.121v.002l-.145 1.991.581.043 1.882.139 18.754 1.448 6.348.561c6.41.526 22.614 4.097 25.07 4.643l.322.072.439-1.951h0l-.084-.019c-1.496-.336-18.696-4.174-25.566-4.738zm27.801-1.265c-2.872-1.62-11.225-6.013-19.421-7.269l-26.356-4.281h-.002l-1.332-.217-.33 1.974h0l.149.023 19.865 3.228 7.704 1.251c8.023 1.228 16.494 5.764 18.989 7.178l.731.424.001-.001 1.036-1.71a41.2 41.2 0 0 0-1.034-.6zm3.22-7.027c-3.122-1.544-13.917-6.685-22.043-8.088-6.922-1.196-15.882-2.34-20.035-2.849l-2.3-.276v.003l-.229 1.983c.013.002.15.018.39.046l1.234.148c3.763.457 13.323 1.658 20.601 2.914 7.732 1.336 18.371 6.375 21.461 7.896l.878.438h0l.913-1.778-.87-.437zm6.044-6.528c-2.023-1.391-9.909-6.604-16.815-8.356l-17.705-4.601-.002-.001-2.719-.707-.001.003-.505 1.933.603.156 19.835 5.154c5.921 1.503 12.848 5.852 15.508 7.619l.048.032 1.036.705a1.24 1.24 0 0 1 .045.032h0l1.16-1.629-.488-.34zm11.908-3.754c-1.504-.564-16.825-6.314-23.73-8.287-4.887-1.42-11.879-3.177-15.796-4.144l-2.946-.719-.001.004-.34 1.415-.126.525h0c.014.004.166.04.426.104 2.137.518 11.943 2.91 18.23 4.735 5.218 1.49 15.346 5.182 20.51 7.095l3.196 1.191.707-1.869v-.001c-.006-.003-.055-.021-.121-.047zm6.33-.704l-6.712-4.287c-6.651-3.994-17.092-9.579-26.999-12.03a46.87 46.87 0 0 0-3.619-.757v.003l-.326 1.97.27.05c9.775 1.688 20.899 7.382 28.268 11.689 2.456 1.437 4.495 2.719 5.928 3.647l2.298 1.53 1.147-1.639h0c-.008-.005-.026-.018-.038-.026l-.1-.069-.114-.079zm7.343-.259c-.998-.994-4.083-4.009-8.183-7.508-.037-.033-.06-.051-.082-.071-4.39-3.741-9.926-8.021-15.307-10.969-1.082-.593-2.157-1.132-3.215-1.602a28.61 28.61 0 0 0-3.254-1.231c-.31-.095-.62-.188-.923-.267l-.142.548h0l-.32 1.245-.037.145h0c.444.114.897.254 1.356.406h0c9.823 3.266 22.679 14.953 27.276 19.345l.001.001 1.729 1.687.001-.001 1.421-1.405c-.044-.046-.155-.158-.321-.323zm12.508.492c-2.296-2.354-16.867-16.831-32.856-22.129-1.231-.407-2.468-.766-3.71-1.054v.001l-.453 1.945c.031.008.061.018.092.023 14.407 3.395 28.788 16.146 33.858 21.002 1.199 1.149 1.881 1.858 1.916 1.896v-.001l1.448-1.379-.295-.304zm7.947.77c-1.2-2.215-6.564-11.769-12.336-16.806-4.304-3.758-11.443-6.788-15.864-8.436-2.19-.815-3.714-1.293-3.894-1.348l-.592 1.91h0a20.74 20.74 0 0 1 .374.121c2.157.703 13.134 4.438 18.66 9.262 4.715 4.114 9.309 11.69 11.209 15.026l.916 1.654.002-.001 1.77-.93-.245-.452zm8.082 14.952c-6.197-3.18-18.549-10.227-21.45-11.887l-.627-.359-.998 1.733a382.31 382.31 0 0 0 1.261.722c3.897 2.229 15.804 8.997 21.478 11.863h0l.752.375.881-1.795h0l-1.295-.651zm-23.438-2.739l-.237-.369v-.001l-1.729 1.006a13.49 13.49 0 0 0 1.312 1.85c4.438 5.307 12.982 7.979 18.347 9.193a61.59 61.59 0 0 0 3.452.682l1.294.193.25-1.984h0c-.025-.003-.369-.049-.947-.144-3.688-.604-17.17-3.27-21.742-10.426zm17.741 21.343c-2.229-1.186-7.643-4.181-10.438-6.71-3.004-2.715-7.617-7.282-8.938-8.598l-.376-.374-1.414 1.414.001.001v.001c.02.019.449.449 1.123 1.113.014.015.024.024.039.039 1.877 1.858 5.634 5.545 8.224 7.887 3.045 2.756 8.755 5.893 10.974 7.064h.001l.904.471.904-1.782h0l-1.004-.526h0zm-4.764 10.109c-3.2-2.039-13.372-8.939-17.208-16.505l-.127-.243h0l-1.798.877c.333.684.717 1.358 1.135 2.025v.001a27.1 27.1 0 0 0 .931 1.388c4.255 5.951 11.194 10.988 14.762 13.352l1.385.895.879.538 1.017-1.723c-.023-.015-.378-.225-.976-.605h0zm-3.675 6.967a25 25 0 0 0-6.411-8.343c-4.125-3.495-7.646-7.528-8.926-9.05l-.521-.628-.001-.001-1.559 1.254c.059.073.568.702 1.408 1.666 1.694 1.944 4.75 5.27 8.307 8.283 4.208 3.567 6.002 7.776 6.476 9.056.089.241.137.392.14.398l1.917-.572v-.001c-.027-.085-.271-.875-.83-2.062zm-17.448-10.034l-.254-.521-1.798.874-.001.001 1.28 2.606v.001h0c2.393 4.837 7.569 15.139 10.864 20.498h0l.261.423 1.694-1.063v-.001l-.876-1.442c-3.876-6.561-9.875-18.731-11.17-21.376zm-6.457 16.991c-.323 2.658-1.288 8.65-2.698 11.705h0c-.178.388-.362.736-.554 1.015l1.646 1.135c.123-.179.241-.384.356-.594a10.95 10.95 0 0 0 .429-.867c.965-2.167 1.676-5.276 2.146-7.859.45-2.475.681-4.459.702-4.644l-1.985-.227h-.002l-.041.329.001.007zm-5.444-.114c-.198.197-.409.447-.623.717-.911 1.146-1.915 2.814-2.589 4l-.777 1.409 1.77.932v-.001l.337-.623c.804-1.461 2.314-4.041 3.295-5.021.227-.228.464-.596.706-1.065.603-1.172 1.233-2.977 1.793-4.807l.019-.062.312-1.046h0l1.361-5.157-1.944-.466h-.001l-.025.104c-1.161 4.842-2.827 10.277-3.634 11.086zm4.706-19.105l2.236-3.159-1.417-1.022-.205-.146c-.272.374-6.649 9.226-8.397 12.721-1.195 2.392-3.82 5.647-5.199 7.289h0l-.888 1.037 1.497 1.326a41.73 41.73 0 0 0 .373-.429c1.125-1.303 4.511-5.336 6.008-8.33 1.039-2.08 3.93-6.334 5.992-9.287zm2.033-9.916l1.917-2.342-1.195-.911-.001-.001-.394-.301c-.062.084-4.911 6.383-11.279 11.423-1.469 1.163-3.02 2.259-4.611 3.196a29.3 29.3 0 0 1-1.882 1.023l.886 1.793h0c.169-.084.339-.176.508-.263 6.872-3.562 13.046-10.113 16.051-13.617zm-12.954-2.672l-1.877 1.044.972 1.748.444-.247 15.379-8.554 1.609-.896-.972-1.748h0l-.019.011-.002.001zm17.36-16.264c-1.992.528-10.598 3.021-16.08 7.957-.327.293-.633.601-.935.911-.448.46-.876.933-1.259 1.433l1.587 1.217c.043-.057.092-.11.137-.168 1.018-1.283 2.315-2.431 3.743-3.446 4.281-3.048 9.726-4.907 12.264-5.666h.001c.866-.26 1.397-.394 1.422-.398v-.002l-.472-1.94a12.87 12.87 0 0 0-.408.102zm1.863-7.564l-17.464 5.575h-.001l-1.261.402.608 1.905h.001l.735-.235 16.814-5.367.002-.001 1.612-.514h0l-.608-1.905z"/><path opacity=".5" d="M242.748 529.971l-1.554.415c-10.612 16.903-19.547 35.191-22.421 41.23 4.25-1.461 8.438-2.821 12.554-4.079.213-1.736.849-6.78 1.775-12.887.954-6.307 7.215-19.661 9.646-24.679zm-23.682 6.172l-8.883 1.354-5.253 24.001c-1.295 5.35-2.93 13.116-3.656 16.61l4.784-1.87c.419-2.643 2.337-13.824 6.095-22.857l6.913-17.238zm2.341-.497l-7.406 18.498c-3.273 7.871-5.125 17.446-5.779 21.267l7.739-2.82c1.004-10.542 4.138-23.27 9.308-37.855l-3.862.91zm71.666-3.189l-7.742-2.634c-2.499 1.378-9.047 5.103-14.969 9.497-5.861 4.418-15.649 17.652-19.329 22.769l9.491-2.227c5.725-11.18 26.244-23.737 32.549-27.405zM2.059 637.221l2.314 19.397h8.635c-.932-10.824-2.786-22.719-3.536-27.306l-7.413 7.909zm11.955-12.678l-2.815 2.956c.459 2.723 2.751 16.639 3.816 29.119h2.834c-.185-6.232-.549-12.14-1.203-16.591-.429-2.869-1.322-8.523-2.632-15.484zm292.811-86.535c-8.452 7.145-21.543 14.488-29.097 18.475 5.905-1.016 11.485-1.826 16.698-2.472l17.44-13.753-5.041-2.25zm.066 14.693c12.822-1.104 22.416-1.163 27.786-1.052-2.533-1.403-6.177-3.333-10.518-5.508-9.41.825-14.798 4.373-17.268 6.56zm14.016-8.17l-7-3.334-15.68 12.364 5.596-.583c1.092-1.362 6.019-6.686 17.084-8.447zm-51.742-6.813c4.953-3.677 10.325-6.886 13.496-8.691-4.001-1.139-7.751-1.962-11.043-2.326a50.92 50.92 0 0 0-1.978-.174c-3.089 3.431-13.716 15.327-18.467 21.822-4.132 5.647-6.653 12.578-7.653 15.685l4.519-1.19c1.368-1.959 13.842-19.638 21.126-25.126zm-2.114-11.301c-3.332-.071-6.63.152-9.881.577-1.794 2.635-13.094 19.677-18.637 38.417l2.699-.754c.618-2.127 3.275-10.584 8.329-17.491 4.338-5.929 13.471-16.258 17.49-20.749zm-21.756 2.901c-1.328 2.691-9.19 18.846-10.217 25.631l-1.658 11.96 2.844-.84c4.855-17.26 14.736-33.312 18.245-38.685-3.125.511-6.2 1.184-9.214 1.934zm59.477 7.803l-9.265-3.753c-3.118 1.771-25.262 14.614-32.356 25.922l7.79-1.574-.003-.006c.222-.108 21.499-10.475 33.834-20.589zm-96.668.543l-2.975.126-2.778.014c-1.304 3.693-7.571 21.691-8.483 28.785l-2.185 15.494 7.364-3.077 3.938-17.974c1.424-5.975 4.203-19.042 5.119-23.368zM87.182 608.446c1.685-11.049.901-22.848.575-26.647l-6.964 2.144-1.471.448-7.479 40.28c-1.568 10.887-.738 23.419-.371 27.74l9.488-6.569-.124-.022 6.346-37.374zm19.416-33.593l-8.466 3.448-2.502 35.933c-1.098 11.333-2.937 20.746-3.65 24.152l5.178-3.437c.479-2.604 4.839-26.475 5.485-33.262.563-5.917 3.055-21.344 3.955-26.834zm-12.959 39.196c1.061-11.964 2.135-29.706 2.446-35.012-2.1.741-4.226 1.451-6.376 2.139.303 3.332 1.237 15.852-.549 27.568-1.726 11.396-4.993 29.819-6.03 35.618l7.25-4.904-.646-.148c.026-.111 2.543-11.194 3.905-25.261zm16.997-29.827c1.75-6.897 3.383-11.241 4.669-13.95-2.114 1.283-4.289 2.449-6.509 3.531-.583 3.531-3.546 21.603-4.163 28.073-.581 6.104-3.994 25.119-5.166 31.561l8.346-5.413c-.144-4.281-.834-29.817 2.823-43.802zm-62.219 12.017l-5.188 3.063c-.751 3.676-6.097 30.051-7.052 40.555-.375 4.173-.21 10.467.148 16.762h8.005c.35-7.925.879-17.326 1.632-24.688 1.33-13.1 2.198-30.22 2.455-35.692zm151.81-58.425l-2.647.013-4.697.01c-1.513 4.482-9.624 29.343-10.082 48.206l6.73-3.022 2.354-16.688c.901-7.014 6.62-23.624 8.342-28.519zM34.186 639.677c.859-9.452 5.211-31.493 6.684-38.8a125.69 125.69 0 0 0-5.796 4.3c-.432 3.512-3.06 25.435-3.164 39.903l-.169 11.538h2.572c-.355-6.318-.513-12.652-.127-16.941zm296.02-79.869a83.11 83.11 0 0 0 6.769-5.935c-13.226.19-26.562 1.612-39.917 4.085l33.148 1.85zm-206.587 4.525l-4.531 3.464c-.753.912-3.441 4.813-6.516 16.924-3.294 12.597-2.961 35.574-2.792 42.053l5.463-3.451c.126-2.966.901-19.706 2.988-35.983 1.414-11.021 3.746-18.652 5.388-23.007zm-90.774 42.63l-6.828 5.897c-.202 14.511-1.286 30.19-2.511 43.758h6.234l.169-11.551c.093-12.814 2.146-31.396 2.936-38.104zm148.415-68.834c-3.376.179-6.801.467-10.24.923-.422 2.983-2.037 14.579-3.124 24.854-1.05 9.92-6.799 27.641-8.946 34.017l12.715-6.534c.578-2.537 4.152-18.363 5.095-26.319.878-7.394 3.659-22.448 4.5-26.941zm9.509-.277l-7.455.181c-.71 3.776-3.664 19.655-4.567 27.271-.831 7.024-3.673 20.036-4.772 24.944l1.842-.91 6.617-3.126-1.64-.035c.4-18.376 7.991-42.354 9.975-48.325zm-43.78 8.095c-4.171 2.039-8.23 4.587-12.104 7.779.009 3.341-.01 20.688-1.282 29.259l-4.779 32.004 3.355-1.997c.725-3.165 6.239-27.085 10.103-39.106 3.31-10.291 4.409-23.344 4.707-27.939zm-14.105 9.502l-3.925 3.84-1.772 1.783c-.599 1.191-4.869 10.12-6.973 26.521-1.857 14.49-2.67 29.357-2.911 34.44l9.29-5.697 5.032-33.634c1.088-7.339 1.242-21.711 1.259-27.253zm28.331-14.576c-4.105 1.004-8.18 2.338-12.166 4.113-.177 3.229-1.167 18.021-4.863 29.51-3.402 10.583-8.101 30.493-9.631 37.09l13.346-7.645c.06-1.973.491-9.858 3.588-26.239 2.936-15.534 8.016-31.613 9.726-36.829zm7.744-1.527l-5.464 1.003c-1.126 3.369-6.857 20.882-10.04 37.724-2.608 13.793-3.307 21.593-3.494 24.729l6.403-3.491c.957-2.778 8.374-24.567 9.543-35.615 1.031-9.735 2.531-20.646 3.052-24.35zM56.028 592.542l-5.56 2.623c-.164 3.628-1.065 22.678-2.516 36.968-.745 7.295-1.271 16.611-1.62 24.486h6.103c.861-8.261 2.066-19.141 2.887-23.728 1.184-6.602.82-33.502.706-40.349zm136.839 26.973c-20.275-2.536-37.25-2.351-39.71-2.308l-17.73 10.892c8.628.2 31.889.834 46.463 2.126 9.623.913 23.473-1.713 36.868-4.251 11.327-2.147 22.029-4.171 28.939-3.739 1.021-.866 2.027-1.746 3.02-2.645-9.154.59-39.265 2.248-57.85-.075zm26.262 8.424c-13.532 2.563-27.524 5.216-37.424 4.277-16.978-1.505-45.853-2.113-49.329-2.183l-11.317 7.326c8.62-.288 30.758-.808 44.804.837 17.203 2.011 61.449-2.36 63.222-2.537 6.009-3.784 11.339-7.499 16.276-11.488-6.664.059-16.203 1.868-26.232 3.768zm-29.097-33.485l.128-.024c8.821-4.507 17.755-8.788 26.771-12.775l-.003-.015c.005-.001.027-.006.065-.013 14.684-6.49 29.583-12.194 44.568-16.831l-.003-.021.117-.014c9.13-2.822 18.292-5.243 27.455-7.2l.003-.044.16.009c3.895-.829 7.788-1.585 11.681-2.241-30.136 3.155-75.063 11.978-124.287 35.854-37.885 18.403-75.678 42.91-107.727 65.481H89.3c30.293-21.372 64.571-43.644 100.74-62.128l-.008-.038zm27.406-10.876c-6.939 3.076-13.83 6.327-20.66 9.722 8.308-1.307 22.655-3.176 33.559-2.557 14.783.837 36.619 5.231 40.43 6.017a50.44 50.44 0 0 1 9.007-9.179c-4.024-1.292-14.602-4.342-28.229-5.58-16.644-1.516-32.567 1.294-34.107 1.577zM92.766 656.619h40.685c-17.083-2.971-33.069-3.438-35.685-3.495l-5 3.495zm75.915-48.41l-12.111 6.979a313.76 313.76 0 0 1 36.546 2.342c20.927 2.617 56.715.13 59.925-.102 1.17-1.115 2.324-2.258 3.467-3.438-6.431-1.075-28.207-4.51-47.152-5.088l-40.675-.693zM60.95 632.796c-.35-4.93-.68-9.585.146-14.219 2.217-12.286 4.158-25.303 4.827-29.883-2.658.931-5.299 1.925-7.909 3.006.097 5.269.564 34.359-.723 41.542-.794 4.437-1.983 15.153-2.842 23.376h5.414c2.088-9.589 1.564-17.093 1.087-23.822zm8.914-8.419c1.76-11.539 6.045-33.135 7.285-39.322l-9.099 2.909c-.473 3.273-2.565 17.551-4.985 30.967-.782 4.386-.475 8.713-.12 13.723.481 6.774 1.005 14.319-1.036 23.965h3.58l4.094-2.883c-.26-2.71-1.492-17.042.281-29.359zm120.854-28.018l-8.813 4.601c3.957.495 12.732 1.008 29.348-.517 23.076-2.116 50.686 1.604 55.048 2.228 1.041-1.334 2.086-2.713 3.136-4.142-5.565-1.127-25.488-5.013-39.213-5.79-14.98-.849-36.694 3.094-39.506 3.62zm20.719 6.076c-22.137 2.031-30.531.519-32.408.069l-6.802 3.72 37.188.679c20.743.633 44.813 4.66 48.753 5.341a140.56 140.56 0 0 0 6.691-7.754c-6.765-.92-32.078-4.013-53.422-2.055zm-45.807 37.748c-16.564-1.939-44.598-.837-47.781-.703l-7.358 4.922c8.498.297 32.305 1.39 46.706 4.662 16.347 3.716 44.973 1.782 48.704 1.508 2.389-2.239 4.844-4.122 7.381-5.556l11.955-6.978c-11.677 1.081-44.853 3.87-59.607 2.145zm105.739-76.242c5.982-.332 13.559-.425 19.348.609 10.556 1.892 27.155 2.823 28 2.871 3.005-1.681 6.015-3.565 9.022-5.75l-38.467-2.146a307.29 307.29 0 0 0-17.903 4.416zm-1.21 13.171c-11.518-3.554-28.193-3.022-29.776-2.963-5.346 2.02-10.673 4.158-15.975 6.406 6.618-.767 16.827-1.502 27.317-.547 15.71 1.427 27.45 5.236 29.986 6.109 4.63-3.336 9.618-5.889 14.802-8.257-7.137.89-18.312 1.657-26.354-.748zm-113.406 73.903c-16.491-3.75-45.592-4.608-49.084-4.699l-7.138 4.894c7.192.28 25.7 1.365 43.02 5.409h56.718c1.138-1.372 2.289-2.672 3.457-3.891-8.104.518-32.101 1.666-46.973-1.713zm105.091-84.262c-5.302 1.646-10.594 3.428-15.869 5.331 6.341.068 16.651.61 24.765 3.113 11.969 3.579 32.104-.331 32.305-.371l.024.124c4.067-1.781 8.18-3.604 12.312-5.733-5.55-.373-16.989-1.261-25.015-2.698-10.481-1.872-27.686.135-28.522.234z" fill="#fff"/><path d="M339.549 552.314l-.058 1.522-2.517.037c-2.249 2.195-4.507 4.159-6.769 5.935l.37.021-.111 1.995-2.726-.152a90.27 90.27 0 0 1-9.022 5.75l.043.002-.106 1.998-3.273-.204c-4.132 2.13-8.244 3.952-12.312 5.733l.364 1.839c-.299.06-3.004.584-6.919 1.071-5.184 2.368-10.172 4.921-14.802 8.257l.518.183-.693 1.875a54.48 54.48 0 0 0-1.763-.595 50.41 50.41 0 0 0-9.007 9.179l.588.122-.414 1.957a225.45 225.45 0 0 0-1.504-.31l-3.136 4.142.609.089-.304 1.977-1.747-.246c-2.222 2.763-4.44 5.337-6.691 7.754l.572.1-.353 1.969-1.881-.321a120.64 120.64 0 0 1-3.467 3.438l.251-.019.149 1.994a277.9 277.9 0 0 1-2.724.186 126.63 126.63 0 0 1-3.02 2.645l.438.023-.158 1.994a30.19 30.19 0 0 0-2.616-.081c-4.938 3.989-10.268 7.704-16.276 11.488.027-.003.046-.004.053-.005l.201 1.99-4.104.394c-3.711 2.253-7.674 4.556-11.955 6.978-2.537 1.434-4.992 3.316-7.381 5.556l.404-.03.16 1.994-2.738.192c-1.168 1.219-2.319 2.519-3.457 3.891h2.615c3.645-4.209 7.422-7.626 11.379-9.862 26.553-15.021 41.15-25.511 57.461-47.961 8.457-11.646 19.682-16.558 31.563-21.758 11.417-4.997 24.356-10.66 36.568-23.153l.436-.445-.206-.597c-.037-.118-.223-.298-.532-.531zM19.047 643.213l-.223-1.987-.201-1.489-1.417-8.758-.351-2.01-1.24-6.709-.362-1.878-1.335 1.369-6.528 6.827-1.777 1.896-5.246 5.631L0 636.5v.352l.493 4.134.248 2.079.533 4.472.246 2.063.837 7.021h2.015l-2.314-19.397 7.413-7.908-.327-1.961 1.971-.341.083.488 2.815-2.956a434.48 434.48 0 0 1 2.633 15.484c.653 4.451 1.018 10.358 1.203 16.591h1.997l-.224-5.633-.114-2.013c-.124-2.035-.276-3.969-.461-5.762zm122.316-96.501l-3.951 2.567c-3.43 2.421-6.75 5.271-9.913 8.643-.485.518-.987.999-1.484 1.492a60.15 60.15 0 0 1-2.277 2.146 61.9 61.9 0 0 1-5.691 4.516l1.25 1.487c-.004.004-.079.074-.21.234a64.54 64.54 0 0 0 4.531-3.464c1.038-2.753 1.802-4.207 1.88-4.352l1.761.947-.073.143 1.772-1.783a63.97 63.97 0 0 1 3.925-3.84v-2.26l2-.011.002.548a61.2 61.2 0 0 1 12.104-7.779l.096-1.692 1.998.082-.033.649c3.985-1.775 8.061-3.109 12.166-4.113l.583-1.753 1.892.648c-.006.019-.076.222-.196.581 1.82-.392 3.643-.724 5.464-1.003l.186-1.313 1.979.285c-.002.018-.04.278-.104.734 3.439-.456 6.864-.744 10.24-.923l.244-1.297 1.966.375a145.08 145.08 0 0 0-.156.825 243.71 243.71 0 0 1 7.455-.181l.471-1.393 1.887.661a59.77 59.77 0 0 0-.244.716l4.697-.01 2.647-.013.481-1.36 1.883.675a135.3 135.3 0 0 0-.239.675l2.778-.014a62.33 62.33 0 0 0 2.975-.126l.302-1.428 1.956.412c-.004.022-.068.326-.179.85 3.059-.291 6.032-.777 8.883-1.354l.698-1.792 1.865.721-.223.574 3.861-.911c-5.17 14.586-8.304 27.313-9.308 37.855l2.813-.974c2.874-6.039 11.809-24.327 22.421-41.23l1.554-.415.952-1.941 1.789.896c-.008.015-.079.158-.194.393 3.014-.75 6.089-1.423 9.214-1.934l1.273-1.903 1.637 1.15c-.01.014-.102.146-.249.363 3.251-.425 6.549-.648 9.881-.577l1.74-1.936c-9.937-.511-19.54 1.627-28.499 4.073l-.375.103-.207.329c-9.171 14.562-17.105 30.184-21.057 38.276 1.48-9.665 4.516-20.914 9.104-33.595l.645-1.782-1.834.475c-6.305 1.627-13.785 3.308-21.469 3.431l-7.521.037c-10.036.001-21.192.01-32.327 2.111-.909.172-1.818.355-2.727.557-7.207 1.594-14.362 4.146-21.161 8.217zm128.278-20.185l1.978.174c3.292.364 7.042 1.188 11.043 2.326l2.428-1.352c-4.769-1.448-9.313-2.526-13.255-2.962h-.004a54.36 54.36 0 0 0-2.496-.204l1.169 1.063c-.021.022-.335.368-.863.955zm16.749 2.721l-1.059.575 7.742 2.634 1.83-1.045.97 1.75-.365.206 9.265 3.753 1.16-.974 1.305 1.516-.412.346 5.042 2.25 1.579-1.245 1.238 1.57-.777.613 7 3.334 3.496-.427.155 1.994-.399.043c4.341 2.175 7.984 4.104 10.518 5.508l4.116.145c-4.146-2.683-17.204-9.195-24.469-12.559-8.403-3.892-18.975-8.389-28.671-11.384l.736 1.397zM32.845 606.963l.306-2.534 1.984.252-.062.496 5.796-4.3.49-2.411 1.959.403-.089.433 5.188-3.063.081-1.77 1.998.086-.027.609 5.56-2.623-.028-1.589L58 590.91l.015.79 7.909-3.006.248-1.713 1.98.281-.101.701 9.099-2.909.343-1.706 1.96.396-.13.646 1.471-.448 6.964-2.144-.119-1.261 1.988-.222.083.86 6.376-2.139.09-1.555 1.997.113-.041.705 8.466-3.448.326-1.98 1.973.328-.1.603 6.509-3.531c1.135-2.392 1.999-3.508 2.431-3.973-4.267 2.958-8.821 5.362-13.583 7.437-2.259.984-4.563 1.899-6.907 2.759-5.503 2.018-11.215 3.763-17.038 5.535-6.59 2.006-13.29 4.049-19.849 6.578-2.318.895-4.616 1.854-6.887 2.89-3.351 1.529-6.637 3.235-9.827 5.183a77.58 77.58 0 0 0-2.903 1.85l-.896.623a125.03 125.03 0 0 0-4.283 3.115l-2.83 2.201a162.5 162.5 0 0 0-5.94 5.005l-2.409 2.162c-.013.012-.025.022-.038.034l-.319.292-.005.433-.101 5.024-.055 1.999-.393 9.649-.104 2-.602 9.731-.144 2.028-.477 6.201-.164 2.004-.479 5.484-.009.102h2.011c1.225-13.567 2.309-29.247 2.511-43.758 2.298-2.091 4.576-4.055 6.828-5.896zm184.593-23.385l-.131.024-.376-1.948c-9.017 3.987-17.95 8.269-26.771 12.775.558-.106 3.021-.564 6.618-1.13 6.83-3.394 13.721-6.645 20.66-9.721zM97.392 653.116l.025-2 3.114.094 7.138-4.894-.357-.009.043-2 3.135.095 7.358-4.922-.312.014-.091-1.998 3.613-.136 11.317-7.326-.356-.007.037-2 3.37.072 17.73-10.892-.314.007-.051-2 3.777-.025 12.111-6.979h-.279.001v-2l3.824.015 6.802-3.72-.424-.112.602-1.907c.023.007.82.239 2.699.475l8.813-4.601-.305.058-.373-1.926c-36.169 18.484-70.447 40.756-100.74 62.128h3.466l5-3.495-.373-.009z"/><path d="M289.272 559.526l-.249-.014.108-1.952c-9.163 1.957-18.325 4.378-27.455 7.2.775-.094 4.674-.54 9.692-.819a306.7 306.7 0 0 1 17.904-4.415zm-48.889 14.623l-.132.005-.09-1.998 5.813-.071c5.275-1.903 10.567-3.685 15.869-5.331l-.042.005-.239-1.963c-14.985 4.637-29.885 10.341-44.568 16.831.454-.085 3.21-.584 7.414-1.071a429.67 429.67 0 0 1 15.975-6.407zm60.593-18.865c-3.893.656-7.786 1.412-11.681 2.241l7.763.434c13.355-2.473 26.691-3.895 39.917-4.085l2.517-.037.058-1.522.018-.474-.773-.047c-.789-.043-2.176-.104-4.116-.145-5.37-.111-14.964-.052-27.786 1.052-1.14 1.009-1.661 1.726-1.678 1.748l-1.639-1.146c.022-.033.115-.157.249-.324l-5.596.583-2.584 2.038-1.238-1.57.021-.018c-5.213.646-10.793 1.456-16.698 2.472l-5.917 3.025-.87-1.793-7.79 1.574c-.386.615-.741 1.229-1.033 1.833l-1.801-.868c.063-.13.141-.262.207-.393l-9.491 2.227-1.462 2.055-1.642-1.144.108-.156-4.519 1.19c-.325 1.01-.492 1.62-.498 1.645l-1.933-.518.143-.503-2.699.754-.478 1.659-1.928-.531.136-.471-2.844.84-.187 1.514-1.985-.234a81.81 81.81 0 0 1 .079-.65c-4.115 1.258-8.304 2.618-12.554 4.079l-2.813.974-7.739 2.82-.272 1.693-1.979-.283c.002-.016.031-.222.089-.582l-4.784 1.87-.377 1.825-1.959-.4c.004-.014.041-.2.109-.528l-7.364 3.077-.243 1.727-1.979-.301.068-.488-6.73 3.022-.007.178-.36-.008-6.617 3.126-1.842.91-.44 1.945-1.949-.449.081-.356-12.715 6.534-.8 2.345-1.889-.66.103-.297-6.403 3.491c-.065 1.088-.069 1.619-.069 1.639l-2-.001c0-.041.001-.206.01-.498l-13.346 7.645-.505 2.195-1.95-.442.079-.347-3.355 1.997-.302 1.954-1.977-.307c.002-.015.019-.121.046-.3l-9.29 5.697-.081 1.833-1.999-.076a39.62 39.62 0 0 1 .02-.468l-5.463 3.451.053 1.754-1.998.08-.021-.584-8.346 5.413-.388 2.122-1.967-.363c.002-.014.02-.108.045-.246l-5.178 3.437-.296 1.371-1.303-.299-7.25 4.904-.325 1.812-1.845-.333-9.488 6.569.145 1.562-1.988.217c-.001-.016-.018-.172-.045-.453l-4.094 2.883h3.473c32.048-22.571 69.842-47.078 107.727-65.481 49.222-23.879 94.15-32.701 124.286-35.856zM97.417 651.116l-.025 2 .374.008c2.616.057 18.601.524 35.685 3.495h10.1c-17.319-4.044-35.828-5.129-43.02-5.409l-3.114-.094zm59.779-2.052c-14.4-3.272-38.208-4.365-46.706-4.662l-3.135-.095-.043 2c.018 0 .148.004.357.009 3.492.091 32.593.949 49.084 4.699 14.872 3.379 38.869 2.23 46.973 1.713l2.738-.192-.16-1.994a25.37 25.37 0 0 1-.404.03c-3.731.274-32.357 2.208-48.704-1.508zm8.667-10.867c-14.046-1.645-36.185-1.125-44.804-.837l-3.613.136.091 1.998c.016-.001.134-.006.312-.014 3.184-.134 31.217-1.236 47.781.703 14.754 1.725 47.93-1.064 59.605-2.145l4.104-.394-.201-1.99c-.007.001-.025.002-.053.005-1.773.177-46.02 4.549-63.222 2.538zm52.895-12.223c-13.396 2.538-27.245 5.164-36.868 4.251-14.574-1.292-37.834-1.926-46.463-2.126l-3.37-.072-.037 2c.018 0 .148.003.356.007 3.476.069 32.351.678 49.329 2.183 9.899.938 23.892-1.714 37.424-4.277 10.029-1.9 19.568-3.709 26.232-3.768.93-.008 1.805.017 2.616.081l.158-1.994c-.141-.012-.294-.015-.438-.023-6.91-.433-17.612 1.591-28.939 3.738zm-25.643-8.443a313.76 313.76 0 0 0-36.546-2.342c-2.371-.007-3.729.024-3.777.025l.051 2 .314-.007c2.46-.043 19.435-.229 39.71 2.308 18.585 2.323 48.695.665 57.85.075l2.724-.186-.149-1.994-.251.019c-3.211.232-38.999 2.719-59.926.102z"/><path d="M172.227 606.224l-3.824-.015v2h-.001.279c2.365.004 19.704.055 40.674.693 18.945.578 40.722 4.013 47.152 5.088l1.881.321.353-1.969c-.021-.004-.229-.04-.572-.1-3.94-.681-28.01-4.708-48.753-5.341l-37.189-.677zm24.551-12.925l-6.618 1.13-.128.024.008.037.373 1.926.305-.058c2.813-.526 24.526-4.469 39.506-3.62 13.725.777 33.647 4.663 39.213 5.79l1.504.31.414-1.957c-.021-.005-.232-.049-.588-.122-3.811-.785-25.646-5.18-40.43-6.017-10.903-.618-25.251 1.251-33.559 2.557zm14.475 7.144c-16.615 1.524-25.391 1.012-29.348.517-1.879-.235-2.676-.468-2.699-.475l-.602 1.907c.036.012.175.053.424.112 1.877.449 10.271 1.962 32.408-.069 21.345-1.958 46.657 1.135 53.423 2.055l1.747.246.304-1.977c-.023-.004-.245-.037-.609-.089-4.363-.623-31.972-4.343-55.048-2.227zm13.155-19.888l-7.414 1.071-.065.013.003.015.376 1.948c.008-.001.06-.011.131-.024 1.539-.282 17.463-3.093 34.106-1.577 13.627 1.238 24.204 4.288 28.229 5.58l1.763.595.693-1.875-.518-.183c-2.536-.873-14.276-4.683-29.986-6.109-10.491-.956-20.7-.22-27.318.546zm46.331-5.357c-8.113-2.503-18.424-3.045-24.765-3.113-3.326-.035-5.561.06-5.813.071l.09 1.998c.008 0 .06-.003.132-.005 1.583-.06 18.259-.591 29.776 2.963 8.042 2.405 19.217 1.639 26.354.749 3.915-.487 6.62-1.012 6.919-1.071l-.364-1.839-.024-.124c-.201.04-20.336 3.95-32.305.371zm.63-11.257l-9.692.819-.117.014.003.021.239 1.963c.004 0 .025-.003.042-.005.836-.1 18.041-2.106 28.521-.234 8.025 1.438 19.465 2.325 25.015 2.698l3.273.204.106-1.998c-.004 0-.025-.001-.043-.002-.845-.048-17.444-.979-28-2.871-5.788-1.034-13.364-.941-19.347-.609zm17.926-6.416l-.16-.009-.003.044-.109 1.952.249.014 38.467 2.145 2.726.153.111-1.995-.37-.021-33.148-1.85zM11.116 627.011l-1.971.341.327 1.961c.75 4.587 2.604 16.481 3.536 27.306h2.007c-1.065-12.48-3.357-26.396-3.816-29.119l-.083-.489zm23.958-21.834l.062-.496-1.984-.252-.306 2.534c-.79 6.708-2.842 25.29-2.935 38.104l-.169 11.551h2l.169-11.538c.103-14.468 2.731-36.391 3.163-39.903zm186.333-69.531l.223-.574-1.865-.721-.698 1.792-6.913 17.238c-3.758 9.033-5.676 20.215-6.095 22.857l-.089.582 1.979.283.272-1.693c.654-3.82 2.506-13.396 5.779-21.267l7.407-18.497zm-11.223 1.852l.179-.85-1.956-.412-.302 1.428-5.119 23.368c-1.502 6.209-3.461 15.654-3.938 17.974l-.109.528 1.959.4.377-1.825 3.656-16.61c1.499-6.293 4.492-20.401 5.253-24.001zm-7.832.305l.239-.675-1.883-.675-.481 1.36c-1.722 4.896-7.44 21.505-8.343 28.518 0 .001-1.961 13.904-2.354 16.688l-.068.488 1.979.301.243-1.727 2.185-15.494c.911-7.092 7.179-25.09 8.483-28.784zm-9.226-.682l-1.887-.661-.471 1.393c-1.983 5.971-9.574 29.949-9.976 48.325l1.64.035.36.008c.001-.059.005-.119.007-.178.458-18.863 8.569-43.724 10.082-48.206l.245-.716zm-9.813.912l.156-.825-1.966-.375-.244 1.297c-.841 4.492-3.622 19.547-4.5 26.939-.942 7.956-4.517 23.782-5.095 26.319l-.081.356 1.949.449a254.33 254.33 0 0 0 .44-1.945c1.1-4.908 3.941-17.92 4.772-24.944.905-7.616 3.86-23.495 4.569-27.271zm-12.293 1.019l.104-.734-1.979-.285-.186 1.313c-.521 3.704-2.021 14.615-3.052 24.349-1.169 11.048-8.586 32.837-9.543 35.615l-.103.297 1.889.66.8-2.345c2.147-6.376 7.896-24.097 8.946-34.017 1.087-10.274 2.701-21.869 3.124-24.853zm-7.525 1.297l.196-.581-1.892-.648-.583 1.753c-1.71 5.217-6.79 21.296-9.725 36.829-3.098 16.381-3.529 24.267-3.588 26.239l-.01.498 2 .001c0-.02.004-.551.069-1.639.187-3.136.886-10.936 3.494-24.729 3.182-16.841 8.913-34.354 10.039-37.723zm-14.445 4.637l.033-.649-1.998-.082-.096 1.692c-.298 4.596-1.397 17.648-4.706 27.938-3.864 12.021-9.378 35.941-10.103 39.106l-.079.347 1.95.442.505-2.195c1.53-6.597 6.229-26.507 9.631-37.09 3.696-11.489 4.686-26.28 4.863-29.509zm-14.164 8.74l-.002-.548-2 .011v2.26c-.017 5.542-.171 19.914-1.26 27.254l-5.032 33.634-.046.3 1.977.307.302-1.954 4.779-32.004c1.272-8.571 1.291-25.919 1.282-29.26zm-7.699 7.346l.073-.143-1.761-.947c-.078.145-.842 1.599-1.88 4.352-1.642 4.354-3.974 11.985-5.388 23.006-2.087 16.277-2.862 33.018-2.988 35.983l-.02.468 1.999.076.081-1.833c.241-5.083 1.054-19.95 2.911-34.44 2.103-16.402 6.373-25.331 6.973-26.522zm-14.615 23.649c3.074-12.111 5.762-16.012 6.516-16.924.132-.16.206-.23.21-.234l-1.25-1.487-.036-.043a2.79 2.79 0 0 0-.275.267c-.432.465-1.296 1.581-2.431 3.973-1.286 2.709-2.919 7.053-4.669 13.95-3.658 13.984-2.967 39.521-2.822 43.802l.021.584 1.998-.08-.053-1.754c-.17-6.48-.504-29.457 2.791-42.054zm-3.775-10.918l.1-.603-1.973-.328-.326 1.98c-.9 5.49-3.392 20.917-3.955 26.835-.646 6.787-5.006 30.657-5.485 33.262l-.045.246 1.967.363.388-2.122c1.172-6.441 4.585-25.457 5.166-31.561.616-6.469 3.579-24.541 4.163-28.072zm-10.665 4.498l.041-.705-1.997-.113-.09 1.555-2.446 35.012c-1.362 14.066-3.879 25.149-3.904 25.261l.646.148 1.303.299.296-1.371c.713-3.406 2.552-12.819 3.65-24.152 1.131-12.761 2.274-32.044 2.501-35.934zm-8.423 2.875l-.083-.86-1.988.222.119 1.261c.326 3.8 1.11 15.599-.575 26.647-2.053 13.563-6.303 37.137-6.345 37.373l.124.022 1.845.333.325-1.812 6.03-35.618c1.786-11.716.851-24.236.548-27.568zM71.843 624.67c1.875-12.291 6.638-36.1 7.479-40.28l.13-.646-1.96-.396-.343 1.706-7.285 39.322c-1.773 12.316-.541 26.648-.281 29.358l.045.453 1.988-.217-.145-1.562c-.366-4.319-1.197-16.851.372-27.738zm-8.898 7.984c-.355-5.01-.662-9.337.12-13.723 2.42-13.416 4.513-27.693 4.985-30.967l.101-.701-1.98-.281c-.004.031-.092.643-.248 1.713-.669 4.58-2.61 17.597-4.827 29.883-.826 4.634-.496 9.289-.146 14.219.477 6.729 1 14.232-1.087 23.822h2.046c2.041-9.646 1.517-17.191 1.036-23.965zm-4.931-40.953l-.015-.79-1.999.042.028 1.589c.114 6.848.478 33.747-.705 40.35-.821 4.587-2.026 15.467-2.887 23.728h2.013c.859-8.223 2.048-18.939 2.842-23.376 1.288-7.184.82-36.275.723-41.543zm-21.836 48.156c.955-10.504 6.301-36.879 7.052-40.555l.089-.433-1.959-.403-.49 2.411c-1.473 7.307-5.825 29.348-6.684 38.8-.386 4.289-.229 10.623.127 16.941h2.013c-.358-6.294-.523-12.588-.148-16.761zm14.291-44.692l.027-.609-1.998-.086-.081 1.77c-.258 5.473-1.125 22.592-2.455 35.691-.753 7.362-1.282 16.764-1.632 24.688h2.002c.349-7.875.875-17.191 1.62-24.486 1.451-14.291 2.353-33.341 2.517-36.968zm194.826-65.847l.194-.393-1.789-.896-.952 1.941c-2.431 5.018-8.692 18.372-9.646 24.68l-1.775 12.887-.079.65 1.985.234.187-1.514 1.658-11.96c1.026-6.783 8.889-22.938 10.217-25.629zm12.124-2.687l-1.637-1.15-1.273 1.903c-3.509 5.373-13.39 21.425-18.245 38.685l-.136.471 1.928.531.478-1.659c5.543-18.74 16.843-35.782 18.637-38.417l.248-.364zm9.632-.214c-4.019 4.49-13.151 14.819-17.489 20.749-5.054 6.907-7.711 15.364-8.329 17.491l-.143.503 1.933.518c.006-.024.173-.635.498-1.645 1-3.106 3.521-10.037 7.653-15.685 4.751-6.495 15.378-18.392 18.467-21.822l.862-.955-1.169-1.063-.312-.282-.231.255-1.74 1.936zm15.61 2.61c-3.171 1.806-8.543 5.015-13.496 8.691-7.284 5.487-19.758 23.167-21.126 25.125l-.108.156 1.641 1.144c.026-.038.565-.809 1.462-2.055 3.68-5.116 13.468-18.351 19.329-22.769 5.922-4.395 12.47-8.119 14.969-9.497l1.059-.575-.736-1.396-.196-.373c-.01.005-.146.077-.368.197l-2.43 1.352z"/><path d="M295.508 533.368l.365-.206-.97-1.75-1.83 1.045c-6.306 3.669-26.824 16.226-32.549 27.405-.066.131-.145.263-.207.393l1.801.868c.292-.604.647-1.218 1.033-1.833 7.095-11.308 29.239-24.152 32.357-25.922zm11.729 4.295l-1.305-1.516-1.16.974c-12.336 10.114-33.612 20.481-33.834 20.589l.003.006.87 1.793c.072-.035 2.392-1.165 5.917-3.025 7.554-3.986 20.645-11.33 29.097-18.475l.412-.346zm7.448 2.92l-1.239-1.57-1.579 1.245-17.44 13.753-.022.018 1.239 1.57 2.584-2.038 15.679-12.364zm9.874 5.515l-.155-1.994-3.496.427c-11.065 1.762-15.992 7.085-17.084 8.447-.134.167-.227.291-.249.324l1.639 1.146c.017-.022.538-.739 1.678-1.748 2.471-2.187 7.858-5.734 17.269-6.56.135-.011.259-.031.398-.042zM14.936 428.391l.135-.983.272-1.989.614-5.734.175-1.999.235-3.338.277-5.582.056-1.354.057-1.572-7.096 3.023-7.577 3.23-2.085.888v2.173l10.447-4.453 4.179-1.78c-.251 6.12-.699 12.343-1.599 18.553l.815-.584 1.095 1.501zM2.321 407.149l2.739-1.459 11.474-6.215.476-.264.036-.545c.634-9.49 1.839-19.35 6.334-27.156 5.447-9.497 13.278-24.75 20.847-41.342l3.179-7.086.557-1.273h0l1.509-3.475 2.854-6.761 1.592-3.899c1.672-4.15 3.252-8.258 4.711-12.268l1.194-3.334c1.591-4.532 2.997-8.898 4.169-13.014h0c1.657-5.816 2.846-11.128 3.381-15.638.009-.082.012-.167.021-.25.125-1.178.189-2.397.201-3.651.001-.143.011-.281.011-.425 0-.541-.022-1.096-.042-1.65-.424-12.212-5.407-27.595-10.652-43.752-5.545-17.081-11.245-34.637-11.245-48.395 0-3.052.281-5.917.906-8.549 4.021-16.861 6.963-30.882 6.963-46.642 0-8.576-.872-17.667-2.915-28.012a47.94 47.94 0 0 1-.917-9.34c0-10.133 3.164-19.243 6.47-28.76 3.797-10.93 8.061-23.207 8.061-38.754 0-1.285-.029-2.592-.09-3.922L64.084 0l-1.312.435c-4.103 1.361-34.56 11.641-54.71 23.274l1.561.443-.304 1.132c2.29-1.316 4.712-2.614 7.217-3.885l.505-2.15 1.94.483-.122.507c2.96-1.455 6.001-2.867 9.045-4.218l.074-1.53 1.999.071c-.006.184-.019.374-.027.56l5.15-2.191.159-1.949 1.993.162-.076.932 7.186-2.859A43.82 43.82 0 0 1 46.435 6.4l1.562 1.249c-.068.085-.13.169-.198.255l11.552-4.191C61.283 1.738 62.396.7 62.472.63l1.409 1.417-1.674 1.85.033 1.452c0 2.564-.125 5.021-.337 7.399l.213-.206 1.388 1.438-1.931 1.864a91.36 91.36 0 0 1-1.994 10.531l.108-.103 1.38 1.447-2.457 2.308c-1.28 4.524-2.768 8.83-4.244 13.08l.083-.131 1.699 1.055c-.166.268-1.722 2.754-4.178 6.118-1.727 5.292-3.183 10.572-3.859 16.097l.387-.202.901 1.785c-.025.013-.572.292-1.534.831a51.63 51.63 0 0 0-.164 4.055c0 2.818.252 5.725.785 8.739l.467-.329 1.146 1.64-1.222.865.896 5.126.404-.323 1.238 1.57a122.69 122.69 0 0 0-1.296 1.046c.507 3.536.869 6.935 1.097 10.229l.371-.278 1.193 1.605a147.49 147.49 0 0 0-1.412 1.066c.085 1.667.126 3.304.146 4.926l.12-.148 1.56 1.252-1.68 2.062-.112 4.061c.074-.069.149-.146.223-.214l1.35 1.477c-.569.52-1.153 1.112-1.747 1.756-.458 6.627-1.41 13.095-2.699 19.781l1.565 1.185-2.454 3.206c-.897 4.273-1.911 8.662-3.009 13.27-.661 2.781-.957 5.795-.957 8.995 0 .07.005.143.005.213l.103-.128 1.565 1.245c-.032.041-.596.746-1.568 1.926.329 5.762 1.479 12.035 3.093 18.571l.434-.327 1.21 1.593-1.115.837c.738 2.845 1.552 5.733 2.419 8.646l.397-.379 1.389 1.439-1.14 1.081 3.364 10.666.578-.376 1.088 1.678-1.028.668.544 1.678 3.145 9.783.637-.415 1.09 1.677c-.035.022-.43.28-1.107.721l2.961 10.072.64-.301.848 1.812-.961.452c1.079 4.125 1.955 8.077 2.542 11.806l.79-.171.416 1.956c-.035.007-.354.076-.912.201.24 1.836.393 3.606.462 5.314l.672-.187.525 1.93a164.55 164.55 0 0 0-1.154.322c-.006 1.349-.073 2.655-.216 3.906-.457 3.85-1.405 8.304-2.709 13.152l.476-.059.218 1.988c-.033.004-.475.054-1.269.164l-.354 1.213.279-.092.619 1.902-1.595.533c-1.581 5.17-3.495 10.685-5.637 16.37l.215-.083.72 1.865-1.895.734-1.709 4.364.13-.047.679 1.881-1.812.665c-2.027 5.001-4.174 10.05-6.379 15.035.063-.018.127-.04.19-.058l.548 1.924a48.51 48.51 0 0 0-1.816.557l-3.321 7.292.122-.047.709 1.869-2.058.812-7.776 16.015.354-.052.246 1.983c-.561.069-1.135.164-1.717.27-3.42 6.72-6.588 12.617-9.201 17.173-.925 1.606-1.71 3.292-2.39 5.034l.172-.059.627 1.898-1.653.56c-.681 2.096-1.224 4.259-1.66 6.463l.294-.174 1.019 1.722-1.782 1.054c-.584 3.625-.929 7.324-1.181 10.975l-15.091 8.13v2.263l.54-.286h0l1.779-.943h0zM0 28.874v2.502c2.035-1.56 4.354-3.119 6.894-4.661l.7-2.733L0 28.874zm2.274 434.729l.417-.624c1.678-2.634 3.131-5.316 4.428-8.029l1.547-3.444 2.131-5.584.623-1.969 1.667-6.051.474-2.029 1.344-7.284-2.309 1.63c-1.122 6.671-2.832 13.306-5.466 19.765l.042-.027 1.119 1.658c-.834.563-1.701 1.112-2.59 1.65-1.354 2.926-2.898 5.813-4.699 8.64a28.42 28.42 0 0 1-1.004 1.464v3.229c.309-.36.611-.728.905-1.103.479-.609.934-1.241 1.371-1.892z"/><path opacity=".5" fill="#fff" d="M.651 110.623l.141-.221c2.723-7.842 5.637-15.584 8.761-23.185l-.039-.033.103-.119c2.873-6.979 5.927-13.833 9.167-20.542l-.08-.059.313-.423c4.102-8.461 8.509-16.678 13.246-24.59l-.046-.047.177-.171c2.097-3.495 4.25-6.938 6.479-10.307C27.151 46.45 12.943 68.106 0 95.508v17.207l.703-2.06-.052-.032z"/><path d="M.703 110.655L0 112.715v6.177l2.514-7.47-.166.26-1.645-1.027zm12.832-27.866c2.242-5.245 4.588-10.414 7.043-15.497l-.261.353-1.535-1.122c-3.239 6.708-6.294 13.563-9.167 20.542a121.99 121.99 0 0 1 3.92-4.276zm-2.501 5.696l-1.481-1.268c-3.125 7.6-6.039 15.343-8.761 23.185.443-.69 1.933-2.971 4.263-6.134a432.18 432.18 0 0 1 6.202-16.039l-.223.256zm13.944-29.983c2.814-5.417 5.767-10.714 8.857-15.883l-.23.223-1.342-1.391c-4.737 7.912-9.144 16.129-13.246 24.59a173.47 173.47 0 0 1 5.961-7.539zm7.415-17.269l5.649-5.453c7.279-11.42 15.312-22.11 24.164-31.883l1.674-1.85L62.471.63c-.076.07-1.189 1.107-3.121 3.083-3.685 3.769-10.361 10.97-18.568 21.456-.027 1.453.133 2.288.139 2.314l-1.956.417c-.007-.035-.029-.144-.056-.316l-3.357 4.451-.264 3.24-1.991-.162c-3.114 4.297-6.359 8.985-9.678 14.058l-1.768 6.176-1.829-.566-4.21 6.855c.175.636.366 1.253.589 1.823l-1.862.729c-.032-.082-.058-.172-.089-.255l-4.845 8.471.494 2.408-1.955.42-.026-.123-2.226 4.149c.507.916.834 1.451.847 1.472l-1.701 1.05-.251-.418-1.208 2.333.852 1.423-1.705 1.046-.215-.359-1.378 2.761.891 1.035-1.508 1.314-.344-.398-.172.354v4.638C12.943 68.106 27.151 46.45 38.872 30.926c-2.228 3.369-4.382 6.812-6.479 10.307zm-24.1 410.381l-1.119-1.658-.042.027c-2.192 1.477-4.59 2.864-7.132 4.168v2.237l5.703-3.124 2.59-1.65zm6.613-23.026l.114-.082-.084-.115-1.094-1.502-.815.584-7.743 5.08.53 1.88L0 436.028v1.857c4.392-2.39 8.643-4.946 12.598-7.667l2.308-1.63z"/><path d="M5.284 432.553l-.013-.046L0 433.955v2.072l5.814-1.595-.53-1.879zm14.77-55.164l-.627-1.898-.172.059C12.932 377.647 6.42 380.412 0 383.529v2.224c6.124-3.008 12.341-5.703 18.401-7.804l1.653-.56zm12.509-24.316l-.246-1.983-.354.052C22.947 352.364 11.525 357.91 0 365.035v2.421c11.106-6.978 22.113-12.529 30.846-14.113.582-.106 1.156-.201 1.717-.27zm9.234-18.758l-.709-1.869-.122.047c-1.769.681-22.563 8.784-40.966 19.887v2.336c15.816-9.694 33.773-17.198 39.739-19.59l2.058-.811zm4.306-9.671l-.548-1.924-.19.058c-9.715 2.808-20.62 9.299-30.25 15.033-5.297 3.154-10.301 6.135-14.387 8.055l-.728.328v2.187l1.571-.7c4.182-1.966 9.226-4.971 14.567-8.149 8.982-5.349 19.086-11.365 28.148-14.33.611-.201 1.217-.387 1.817-.558zm7.453-17.566l-.679-1.881-.13.047c-1.74.633-21.951 8.018-39.318 16.15-3.8 1.779-8.453 4.168-13.429 6.828v2.268c5.299-2.847 10.266-5.407 14.276-7.285 14.931-6.991 31.979-13.43 37.469-15.462l1.811-.665zm2.795-6.933l-.72-1.865-.215.083c-2.634 1.017-30.843 11.942-44.748 18.293L0 321.6v2.209l11.499-5.334c12.363-5.646 36.121-14.939 42.958-17.596l1.894-.734zm6.297-18.686l-.619-1.902-.279.092c-2.713.896-25.286 8.472-44.076 17.974-5.067 2.563-11.257 5.915-17.674 9.488v2.29c6.738-3.763 13.275-7.312 18.575-9.992 16.853-8.523 36.788-15.489 42.478-17.416l1.595-.534zm.724-3.187l-.218-1.988-.476.059c-3.639.462-28.09 3.929-50.791 15.865L0 298.26v2.229l12.818-6.511c21.1-11.095 43.755-14.774 49.286-15.542l1.268-.164zm3.386-19.31l-.525-1.93-.672.187c-4.176 1.17-27.104 7.736-43.589 15.458C16.24 275.361 8.25 279.427 0 283.734v2.257l22.82-11.503c15.786-7.395 37.58-13.734 42.784-15.204l1.154-.322z"/><path d="M65.595 249.747l-.79.171c-6.058 1.331-43.066 9.81-59.045 21.47-1.84 1.343-3.776 2.659-5.76 3.943v2.378c2.396-1.522 4.734-3.096 6.939-4.705 15.343-11.195 51.926-19.708 58.16-21.101l.912-.201-.416-1.955zm-6.802-26.068l-.637.415L4.74 259.715 0 262.966v2.413l5.883-4.023c17.529-12.199 46.882-31.363 52.893-35.279l1.107-.721-1.09-1.677zm-4.386-13.392l-.578.376L0 246.756v2.439l.107-.074c20.926-14.668 48.734-32.826 54.36-36.488l1.028-.668-1.088-1.678zm-4.191-12.809l-.397.379c-3.33 3.164-27.272 25.635-47.076 36.756l-2.742 1.556v2.305l3.722-2.116c18.915-10.622 41.487-31.416 46.743-36.36l1.14-1.081-1.39-1.439z"/><path d="M47.304 186.781l-.434.327c-2.822 2.122-19.262 14.373-37.586 25.826-3.147 1.967-6.264 4.105-9.284 6.314v2.486c3.348-2.489 6.826-4.906 10.343-7.104 17.264-10.791 32.858-22.283 37.057-25.419l1.115-.837-1.211-1.593zm-3.524-21.415l-.103.128c-1.509 1.878-20.249 25.057-34.429 34.764-2.878 1.97-6.032 4.413-9.248 7.069v2.599c3.609-3.027 7.169-5.821 10.379-8.018 12.515-8.567 28.419-27.323 33.398-33.371l1.568-1.926-1.565-1.245zm4.746-26.741l-.029-.022c-.277.364-27.795 36.637-41.289 47.978-2.268 1.922-4.712 4.176-7.208 6.593v2.792c2.944-2.897 5.844-5.608 8.498-7.857 11.431-9.606 32.041-35.879 39.14-45.093l2.454-3.206-1.566-1.185zm4.446-21.537l-1.35-1.477-.223.214c-5.051 4.731-10.911 14.035-17.11 23.889-7.245 11.514-14.737 23.419-21.907 29.8-3.719 3.313-8.049 7.406-12.382 11.61v2.79c4.771-4.653 9.614-9.257 13.711-12.906 7.382-6.568 14.951-18.596 22.27-30.229 5.496-8.732 10.72-17.03 15.244-21.935.594-.644 1.178-1.236 1.747-1.756zm-1.34-8.638c-.008.011-.054.066-.12.148-1.804 2.234-24.62 30.336-40.84 43.925-3.833 3.211-7.415 6.389-10.672 9.39v2.726c3.585-3.341 7.609-6.94 11.956-10.583 14.365-12.036 33.792-35.271 39.556-42.292l1.68-2.062-1.56-1.252zm-.046-7.449l-.371.278c-2.897 2.179-22.584 17.136-37.266 32.03L0 147.642v2.888l15.374-15.816c13.375-13.568 30.954-27.206 35.993-31.041l1.412-1.066-1.193-1.606zm-2.635-19.874l-.467.329c-3.109 2.196-21.364 15.206-32.091 25.513-5.73 5.506-11.733 13.23-16.393 19.719v3.451c4.776-6.803 11.456-15.652 17.778-21.727 9.955-9.564 26.506-21.515 31.097-24.78l1.222-.865-1.146-1.64zm1.225 7.308l-.404.323c-3.188 2.56-24.963 20.319-39.25 38.869C6.4 132.978 2.908 137.151 0 140.402v2.991c3.216-3.495 7.227-8.209 12.106-14.544 13.179-17.113 32.833-33.577 38.012-37.798l1.296-1.046-1.238-1.57zm-1.68-22.389l-.387.202c-2.154 1.144-13.095 7.18-24.995 17.84C15.352 91.039 9 98.914 5.055 104.268c-2.33 3.163-3.82 5.443-4.263 6.134l-.141.221.052.032 1.646 1.027c.006-.01.066-.104.166-.26 1.264-1.966 9.873-15.043 21.935-25.844 10.274-9.204 19.8-14.898 23.413-16.916l1.534-.831-.901-1.785zm-15.871.84c-7.302 4.215-14.691 11.311-19.09 15.903a116.87 116.87 0 0 0-3.918 4.276l-.103.119.039.033 1.481 1.268c.009-.01.089-.104.223-.256 1.636-1.867 12.279-13.786 22.375-19.614 7.151-4.202 14.092-12.648 18.337-18.464 2.456-3.364 4.012-5.851 4.178-6.118l-1.699-1.055-.083.131c-.985 1.554-11.362 17.678-21.74 23.777zm-7.647-8.384l-5.962 7.539-.313.423.08.059 1.535 1.122.261-.353c1.667-2.239 11.133-14.734 19.05-20.801 6.466-4.953 14.884-12.648 18.981-16.463l2.457-2.308-1.38-1.447c-.006.005-.048.046-.108.103-1.199 1.137-12.839 12.147-21.167 18.527-4.614 3.535-9.619 9.035-13.434 13.599zm7.415-17.269l-.177.171.046.047 1.342 1.391.23-.223 27.738-26.774 1.931-1.864-1.388-1.438-.213.206-23.86 23.031zm29.984 194.615l-.64.301L14 258.594c-3.325 1.554-8.377 4.479-14 7.932v2.356c6.002-3.711 11.416-6.874 14.854-8.48.006-.003 40.626-19.101 47.41-22.29l.961-.452-.848-1.812zM18.054 385.959l-1.019-1.722-.294.174L0 394.272v2.318l16.272-9.578 1.782-1.053zM2.024 89.601l-.891-1.035L0 87.23v3.086l.172.2.344.398 1.508-1.313zm2.407-4.483l-.852-1.423L0 77.077v4.341l2.511 4.387.215.359 1.705-1.046zm2.308-4.39l-.847-1.472C4.452 76.655 1.531 70.925 0 64.737v6.616c1.876 4.923 4.059 8.778 4.787 10.009l.251.418 1.701-1.052zm3.36-5.918l-.494-2.408c-1.224-6.133-4.253-22.39-3.529-29.722.719-7.291 2.524-14.651 3.242-17.395l.304-1.132-1.561-.443-.365-.104c-.003.01-.042.152-.103.375-.132.483-.384 1.437-.7 2.733-.869 3.558-2.208 9.68-2.809 15.77-.904 9.158 3.613 30.658 4.033 32.624l.026.123 1.956-.421zm4.351-10.879l.089.255 1.862-.729c-.223-.57-.414-1.187-.589-1.823-3.493-12.673 2.143-37.577 3.046-41.394l.122-.507-1.94-.483c-.045.18-.234.951-.505 2.15-1.646 7.273-6.433 30.91-2.085 42.531zm5.572-9.153l1.829.566 1.768-6.176c2.231-8.189 5.833-22.897 6.33-34.045l.027-.56-1.999-.071-.074 1.53c-.951 15.918-7.891 38.498-7.962 38.731l.081.025zm13.275-19.667l1.991.162.264-3.24 1.624-19.956.075-.932-1.993-.162-.158 1.949-1.805 22.179zm5.612-7.528l.056.316 1.956-.417c-.006-.026-.166-.861-.139-2.314.061-3.282 1.085-9.734 7.016-17.264l.198-.255L46.434 6.4a43.82 43.82 0 0 0-2.073 2.817c-6.365 9.407-5.7 16.762-5.452 18.366z"/></svg>